<?xml version="1.0" encoding="utf-8"?>
<!-- Generator: Adobe Illustrator 22.1.0, SVG Export Plug-In . SVG Version: 6.00 Build 0)  -->
<svg version="1.1" id="图层_1" xmlns="http://www.w3.org/2000/svg" xmlns:xlink="http://www.w3.org/1999/xlink" x="0px" y="0px"
	 viewBox="0 0 65 65" style="enable-background:new 0 0 65 65;" xml:space="preserve">
<style type="text/css">
	.st0{fill:url(#Oval-6-Copy-6_1_);}
	.st1{clip-path:url(#SVGID_2_);fill:#FFFFFF;}
	.st2{fill:#FFFFFF;}
	.st3{fill:url(#Oval-6-Copy-7_1_);}
	.st4{fill:url(#Oval-6-Copy-8_1_);}
</style>
<g>
	
		<radialGradient id="Oval-6-Copy-6_1_" cx="-265.4492" cy="450.1325" r="0.6373" gradientTransform="matrix(6.000000e-15 101.8666 101.0097 -6.000000e-15 -45451.7461 27034.9668)" gradientUnits="userSpaceOnUse">
		<stop  offset="0" style="stop-color:#F95625"/>
		<stop  offset="0.7634" style="stop-color:#FB4A29"/>
		<stop  offset="1" style="stop-color:#E9005B"/>
	</radialGradient>
	<ellipse id="Oval-6-Copy-6_21_" class="st0" cx="32.5" cy="32.5" rx="32.5" ry="32.5"/>
	<g>
		<g>
			<defs>
				<rect id="SVGID_1_" x="19.4" y="16.8" width="30.1" height="30.2"/>
			</defs>
			<clipPath id="SVGID_2_">
				<use xlink:href="#SVGID_1_"  style="overflow:visible;"/>
			</clipPath>
			<path class="st1" d="M42.4,31.2c0.8,0,1.5,0.2,2.3,0.4v-6.4l-8.5-8.3H21.5c-1.2,0-2.1,0.9-2.1,2.1v24.4c0,1.2,0.9,2.1,2.1,2.1
				h14.1c-1.1-1.7-1.9-3.6-1.9-5.6C33.7,34.9,37.7,31.2,42.4,31.2L42.4,31.2z M35.2,26.5v-6.4 M41.6,26.5 M25.3,26.6h14
				c0.5,0,0.9,0.4,0.9,0.9v0c0,0.5-0.4,0.9-0.9,0.9h-14c-0.5,0-0.9-0.4-0.9-0.9v0C24.3,27.1,24.7,26.6,25.3,26.6z M29.7,36.6h-4.4
				c-0.5,0-0.9-0.4-0.9-0.9v0c0-0.5,0.4-0.9,0.9-0.9h4.4c0.6,0,1,0.5,0.9,1v0C30.6,36.2,30.2,36.6,29.7,36.6z M33.7,32.5h-8.4
				c-0.5,0-0.9-0.4-0.9-0.9v0c0-0.5,0.4-0.9,0.9-0.9h8.4c0.5,0,0.9,0.4,0.9,0.9v0C34.6,32.1,34.2,32.5,33.7,32.5z M32.2,32.5"/>
		</g>
		<path class="st2" d="M41.8,39.4l4-5.8c-1.1-0.6-2.3-0.9-3.4-0.9c-4,0-7.1,3.2-7.1,7.1c0,4,3,7.1,6.8,7.1h0.4c4,0,7-3,7.1-7
			L41.8,39.4z M41.8,39.4"/>
	</g>
	
		<radialGradient id="Oval-6-Copy-7_1_" cx="-266.118" cy="457.6747" r="0.8336" gradientTransform="matrix(34.3643 -47.4967 -47.0972 -34.6558 30740.5762 3274.248)" gradientUnits="userSpaceOnUse">
		<stop  offset="0" style="stop-color:#BF2A00;stop-opacity:0"/>
		<stop  offset="1" style="stop-color:#FF5A3F;stop-opacity:0.84"/>
	</radialGradient>
	<path id="Oval-6-Copy-7_21_" class="st3" d="M32.5,64.8C50.4,64.8,65,50.3,65,32.4c0-1.3,0-1.9-0.1-2.6c-0.1-0.6-0.1-1.3-0.2-1.7
		c-0.9-2.2-3.4,1.1-14.5,4.3C34.3,37,34,47.3,29.2,50c-9.8,5.6-10.8,0-15.9-4.1c-5.6-4.6-11.8-2-9.1,2.7
		C9.9,58.3,20.5,64.8,32.5,64.8z"/>
	
		<radialGradient id="Oval-6-Copy-8_1_" cx="-270.0275" cy="452.8353" r="0.9127" gradientTransform="matrix(55.721 14.5928 14.4701 -56.1937 8540.3369 29431.1953)" gradientUnits="userSpaceOnUse">
		<stop  offset="0" style="stop-color:#FF8415;stop-opacity:0"/>
		<stop  offset="1" style="stop-color:#FF94A0;stop-opacity:0.84"/>
	</radialGradient>
	<path id="Oval-6-Copy-8_21_" class="st4" d="M32.5,65C50.4,65,65,50.5,65,32.5c0-1.3,0-1.9-0.1-2.6c-0.1-0.6-0.1-1.3-0.2-1.7
		c-0.9-2.2-1.3,11-8.3,11c-17.8,0-11.3,13.5-24.7,5c-9.3-5.9-8.5,16.2-19.8,5.1S1.6,44,4.3,48.7C9.9,58.5,20.5,65,32.5,65z"/>
</g>
</svg>
