<?xml version="1.0" encoding="utf-8"?>
<!-- Generator: Adobe Illustrator 22.1.0, SVG Export Plug-In . SVG Version: 6.00 Build 0)  -->
<svg version="1.1" id="图层_1" xmlns="http://www.w3.org/2000/svg" xmlns:xlink="http://www.w3.org/1999/xlink" x="0px" y="0px"
	 viewBox="0 0 65 65" style="enable-background:new 0 0 65 65;" xml:space="preserve">
<style type="text/css">
	.st0{fill:url(#Oval-6-Copy-6_1_);}
	.st1{fill:#FFFFFF;}
	.st2{fill:#0776FF;}
	.st3{fill:none;stroke:#0776FF;stroke-width:1.5;stroke-miterlimit:10;}
	.st4{fill:url(#Oval-6-Copy-8_1_);}
	.st5{fill:url(#Oval-6-Copy-7_1_);}
</style>
<g>
	
		<radialGradient id="Oval-6-Copy-6_1_" cx="-265.4492" cy="451.7957" r="0.6373" gradientTransform="matrix(6.000000e-15 101.8666 101.0097 -6.000000e-15 -45619.7461 27034.9688)" gradientUnits="userSpaceOnUse">
		<stop  offset="0" style="stop-color:#0776FF"/>
		<stop  offset="0.7634" style="stop-color:#0089FB"/>
		<stop  offset="1" style="stop-color:#3F81FF"/>
	</radialGradient>
	<ellipse id="Oval-6-Copy-6_4_" class="st0" cx="32.5" cy="32.5" rx="32.5" ry="32.5"/>
	<g id="XMLID_10_">
		<path id="XMLID_21_" class="st1" d="M44.8,46H20c-1.1,0-2-0.9-2-2V17.6c0-1.1,0.9-2,2-2h24.8c1.1,0,2,0.9,2,2V44
			C46.8,45.1,45.9,46,44.8,46z"/>
		<path id="XMLID_13_" class="st2" d="M21.7,29L21.7,29c0-0.5,0.4-0.9,0.9-0.9h5.6c0.5,0,0.9,0.4,0.9,0.9v0c0,0.5-0.4,0.9-0.9,0.9
			h-5.6C22.1,29.9,21.7,29.5,21.7,29z"/>
		<path id="XMLID_12_" class="st2" d="M21.9,22.9L21.9,22.9c0-0.5,0.4-0.9,0.9-0.9h15.1c0.5,0,0.9,0.4,0.9,0.9v0
			c0,0.5-0.4,0.9-0.9,0.9H22.8C22.3,23.8,21.9,23.4,21.9,22.9z"/>
		<path id="XMLID_9_" class="st2" d="M21.7,34.6L21.7,34.6c0-0.5,0.4-0.9,0.9-0.9h2.2c0.5,0,0.9,0.4,0.9,0.9v0
			c0,0.5-0.4,0.9-0.9,0.9h-2.2C22.1,35.5,21.7,35.1,21.7,34.6z"/>
		<path id="XMLID_11_" class="st3" d="M36.1,38.4L36.1,38.4c-2.5,0-4.5-2-4.5-4.5v0c0-2.5,2-4.5,4.5-4.5h0c2.5,0,4.5,2,4.5,4.5v0
			C40.6,36.4,38.6,38.4,36.1,38.4z"/>
		<path id="XMLID_18_" class="st3" d="M39.4,36.7l4.1,3.9L39.4,36.7z"/>
	</g>
	
		<radialGradient id="Oval-6-Copy-8_1_" cx="-264.4692" cy="455.635" r="0.6495" gradientTransform="matrix(34.6002 -46.4016 -46.0113 -34.8937 30161.7266 3671.2581)" gradientUnits="userSpaceOnUse">
		<stop  offset="0" style="stop-color:#032AFF;stop-opacity:0"/>
		<stop  offset="1" style="stop-color:#00BBFB;stop-opacity:0.84"/>
	</radialGradient>
	<path id="Oval-6-Copy-8_4_" class="st4" d="M32.5,65C50.4,65,65,50.5,65,32.5c0-1.3,0-1.9-0.1-2.6c-0.1-0.6-0.1-1.3-0.2-1.7
		c-0.9-2.2-1.3,11-8.3,11c-17.8,0-11.3,13.5-24.7,5c-9.3-5.9-8.5,16.2-19.8,5.1S1.6,44,4.3,48.7C9.9,58.5,20.5,65,32.5,65z"/>
	
		<radialGradient id="Oval-6-Copy-7_1_" cx="-264.4196" cy="455.3469" r="0.8336" gradientTransform="matrix(34.3643 -47.4967 -47.0972 -34.6558 30572.5762 3274.2495)" gradientUnits="userSpaceOnUse">
		<stop  offset="0" style="stop-color:#94ADFF;stop-opacity:0"/>
		<stop  offset="1" style="stop-color:#002DFF;stop-opacity:0.84"/>
	</radialGradient>
	<path id="Oval-6-Copy-7_4_" class="st5" d="M32.5,64.8C50.4,64.8,65,50.3,65,32.4c0-1.3,0-1.9-0.1-2.6c-0.1-0.6-0.1-1.3-0.2-1.7
		c-0.9-2.2-3.4,1.1-14.5,4.3C34.3,37,34,47.3,29.2,50c-9.8,5.6-10.8,0-15.9-4.1c-5.6-4.6-11.8-2-9.1,2.7
		C9.9,58.3,20.5,64.8,32.5,64.8z"/>
</g>
</svg>
