<?xml version="1.0" encoding="utf-8"?>
<!-- Generator: Adobe Illustrator 22.1.0, SVG Export Plug-In . SVG Version: 6.00 Build 0)  -->
<svg version="1.1" id="图层_1" xmlns="http://www.w3.org/2000/svg" xmlns:xlink="http://www.w3.org/1999/xlink" x="0px" y="0px"
	 viewBox="0 0 65 65" style="enable-background:new 0 0 65 65;" xml:space="preserve">
<style type="text/css">
	.st0{fill:url(#Oval-6-Copy-3_1_);}
	.st1{fill:#FFFFFF;}
	.st2{fill:url(#Oval-6-Copy-4_1_);}
	.st3{fill:url(#Oval-6-Copy-5_1_);}
</style>
<radialGradient id="Oval-6-Copy-3_1_" cx="-271.1023" cy="455.1221" r="0.6373" gradientTransform="matrix(6.000000e-15 101.8666 101.0097 -6.000000e-15 -45955.7461 27610.8359)" gradientUnits="userSpaceOnUse">
	<stop  offset="0" style="stop-color:#00DD8E"/>
	<stop  offset="0.7634" style="stop-color:#00B46B"/>
	<stop  offset="1" style="stop-color:#00BF47"/>
</radialGradient>
<ellipse id="Oval-6-Copy-3_4_" class="st0" cx="32.5" cy="32.5" rx="32.5" ry="32.5"/>
<g id="XMLID_211_">
	<path id="XMLID_217_" class="st1" d="M38.6,22.6h-6.4c-0.4,0-0.8,0.2-0.8,0.5v0.7c0,0.3,0.3,0.5,0.8,0.5h6.4c0.4,0,0.8-0.2,0.8-0.5
		V23C39.4,22.8,39,22.6,38.6,22.6z"/>
	<path id="XMLID_216_" class="st1" d="M38.6,27h-6.4c-0.4,0-0.8,0.2-0.8,0.4V28c0,0.2,0.3,0.4,0.8,0.4h6.4c0.4,0,0.8-0.2,0.8-0.4
		v-0.6C39.4,27.1,39,27,38.6,27z"/>
	<path id="XMLID_212_" class="st1" d="M45.1,33.9V18.2c0-0.9-0.8-1.7-1.8-1.7H27.5c-1,0-1.8,0.7-1.8,1.7V19h-5
		c-0.7,0-1.2,0.5-1.2,1.1v13.8h-2.6v9.9c0,0.9,0.8,1.7,1.8,1.7H46c1,0,1.8-0.7,1.8-1.7v-9.9H45.1z M22.2,22.1c0-0.3,0.3-0.6,0.6-0.6
		H25c0.4,0,0.6,0.3,0.6,0.6v11.8h-3.5V22.1z M35.4,36.5c0,0.4-0.3,0.7-0.8,0.7H30c-0.4,0-0.8-0.3-0.8-0.7v-2.6h-0.9V20.5
		c0-0.7,0.6-1.3,1.4-1.3H41c0.8,0,1.4,0.6,1.4,1.3v13.5h-7.1V36.5z"/>
</g>
<radialGradient id="Oval-6-Copy-4_1_" cx="-264.1969" cy="464.3437" r="1.151" gradientTransform="matrix(56.3191 15.2012 15.0733 -56.7969 7920.5728 30442.2871)" gradientUnits="userSpaceOnUse">
	<stop  offset="0" style="stop-color:#00941A;stop-opacity:0"/>
	<stop  offset="1" style="stop-color:#00BF61;stop-opacity:0.84"/>
</radialGradient>
<path id="Oval-6-Copy-4_4_" class="st2" d="M32.5,64.8C50.4,64.8,65,50.3,65,32.4c0-1.3,0-1.9-0.1-2.6c-0.1-0.6-0.1-1.3-0.2-1.7
	c-0.9-2.2-3.4,1.1-14.5,4.3C34.3,37,34,47.3,29.2,50c-9.8,5.6-10.8,0-15.9-4.1c-5.6-4.6-11.8-2-9.1,2.7
	C9.9,58.3,20.5,64.8,32.5,64.8z"/>
<radialGradient id="Oval-6-Copy-5_1_" cx="-253.0339" cy="456.9318" r="0.6495" gradientTransform="matrix(34.6002 -46.4016 -46.0113 -34.8937 29825.7266 4247.1245)" gradientUnits="userSpaceOnUse">
	<stop  offset="0" style="stop-color:#00F142;stop-opacity:0"/>
	<stop  offset="0.9859" style="stop-color:#00E9B5;stop-opacity:0.84"/>
</radialGradient>
<path id="Oval-6-Copy-5_4_" class="st3" d="M32.5,65C50.4,65,65,50.5,65,32.5c0-1.3,0-1.9-0.1-2.6c-0.1-0.6-0.1-1.3-0.2-1.7
	c-0.9-2.2-1.3,11-8.3,11c-17.8,0-11.3,13.5-24.7,5c-9.3-5.9-8.5,16.2-19.8,5.1S1.6,44,4.3,48.7C9.9,58.5,20.5,65,32.5,65z"/>
</svg>
