<?xml version="1.0" encoding="utf-8"?>
<!-- Generator: Adobe Illustrator 22.1.0, SVG Export Plug-In . SVG Version: 6.00 Build 0)  -->
<svg version="1.1" id="图层_1" xmlns="http://www.w3.org/2000/svg" xmlns:xlink="http://www.w3.org/1999/xlink" x="0px" y="0px"
	 viewBox="0 0 65 65" style="enable-background:new 0 0 65 65;" xml:space="preserve">
<style type="text/css">
	.st0{fill:url(#Oval-6-Copy-6_1_);}
	.st1{fill:#FFFFFF;}
	.st2{fill:#F39800;}
	.st3{fill:#F7F8F8;}
	.st4{fill:url(#Oval-6-Copy-7_1_);}
	.st5{fill:url(#Oval-6-Copy-8_1_);}
</style>
<g>
	
		<radialGradient id="Oval-6-Copy-6_1_" cx="-265.4492" cy="448.4693" r="0.6373" gradientTransform="matrix(6.000000e-15 101.8666 101.0097 -6.000000e-15 -45283.7461 27034.9668)" gradientUnits="userSpaceOnUse">
		<stop  offset="0" style="stop-color:#FF6907"/>
		<stop  offset="0.7634" style="stop-color:#FB9C00"/>
		<stop  offset="1" style="stop-color:#FFBD55"/>
	</radialGradient>
	<ellipse id="Oval-6-Copy-6_5_" class="st0" cx="32.5" cy="32.5" rx="32.5" ry="32.5"/>
	<g id="搜索_1_" transform="translate(27.000000, 24.000000)">
		<path id="Shape" class="st1" d="M14-3.5C8.7-8.9,0-8.8-5.4-3.4c-5.2,5.3-5.2,13.9,0,19.2c4.3,4.3,10.8,5.1,15.9,2.5
			c0.6-0.3,1.2-0.2,1.7,0.3l2.6,2.6c0.6,0.6,1.6,0.6,2.2,0l2.2-2.2c0.6-0.6,0.6-1.6,0-2.2l-2.6-2.6c-0.4-0.4-0.5-1.1-0.3-1.7
			C19.1,7.2,18.3,0.8,14-3.5z"/>
		<path id="Shape_1_" class="st2" d="M4.5-1.5c4.3,0,7.8,3.5,7.8,7.8S8.8,14,4.5,14s-7.8-3.5-7.8-7.8S0.2-1.5,4.5-1.5z"/>
		<polygon id="XMLID_38_" class="st3" points="-1.3,6.5 0.8,4.8 3.1,7.2 8.6,2.1 10.4,4.1 3.1,10.7 		"/>
	</g>
	
		<radialGradient id="Oval-6-Copy-7_1_" cx="-267.8165" cy="460.0024" r="0.8336" gradientTransform="matrix(34.3643 -47.4967 -47.0972 -34.6558 30908.5762 3274.248)" gradientUnits="userSpaceOnUse">
		<stop  offset="0" style="stop-color:#FF9203;stop-opacity:0"/>
		<stop  offset="1" style="stop-color:#D48200;stop-opacity:0.84"/>
	</radialGradient>
	<path id="Oval-6-Copy-7_5_" class="st4" d="M32.5,64.8C50.4,64.8,65,50.3,65,32.4c0-1.3,0-1.9-0.1-2.6c-0.1-0.6-0.1-1.3-0.2-1.7
		c-0.9-2.2-3.4,1.1-14.5,4.3C34.3,37,34,47.3,29.2,50c-9.8,5.6-10.8,0-15.9-4.1c-5.6-4.6-11.8-2-9.1,2.7
		C9.9,58.3,20.5,64.8,32.5,64.8z"/>
	
		<radialGradient id="Oval-6-Copy-8_1_" cx="-267.9771" cy="460.2997" r="0.6495" gradientTransform="matrix(34.6002 -46.4016 -46.0113 -34.8937 30497.7266 3671.2566)" gradientUnits="userSpaceOnUse">
		<stop  offset="0" style="stop-color:#FFB703;stop-opacity:0"/>
		<stop  offset="1" style="stop-color:#FFDD6A;stop-opacity:0.84"/>
	</radialGradient>
	<path id="Oval-6-Copy-8_5_" class="st5" d="M32.5,65C50.4,65,65,50.5,65,32.5c0-1.3,0-1.9-0.1-2.6c-0.1-0.6-0.1-1.3-0.2-1.7
		c-0.9-2.2-1.3,11-8.3,11c-17.8,0-11.3,13.5-24.7,5c-9.3-5.9-8.5,16.2-19.8,5.1S1.6,44,4.3,48.7C9.9,58.5,20.5,65,32.5,65z"/>
</g>
</svg>
