<?xml version="1.0" encoding="utf-8"?>
<!-- Generator: Adobe Illustrator 22.1.0, SVG Export Plug-In . SVG Version: 6.00 Build 0)  -->
<svg version="1.1" id="图层_1" xmlns="http://www.w3.org/2000/svg" xmlns:xlink="http://www.w3.org/1999/xlink" x="0px" y="0px"
	 viewBox="0 0 65 65" style="enable-background:new 0 0 65 65;" xml:space="preserve">
<style type="text/css">
	.st0{fill:url(#Oval-6-Copy-6_1_);}
	.st1{fill:none;}
	.st2{fill:#FFFFFF;}
	.st3{fill:#0089FB;}
	.st4{fill:url(#Oval-6-Copy-7_1_);}
	.st5{fill:url(#Oval-6-Copy-8_1_);}
</style>
<g>
	
		<radialGradient id="Oval-6-Copy-6_1_" cx="-265.4492" cy="451.7957" r="0.6373" gradientTransform="matrix(6.000000e-15 101.8666 101.0097 -6.000000e-15 -45619.7461 27034.9688)" gradientUnits="userSpaceOnUse">
		<stop  offset="0" style="stop-color:#0776FF"/>
		<stop  offset="0.7634" style="stop-color:#0089FB"/>
		<stop  offset="1" style="stop-color:#3F81FF"/>
	</radialGradient>
	<ellipse id="Oval-6-Copy-6_23_" class="st0" cx="32.5" cy="32.5" rx="32.5" ry="32.5"/>
	<rect id="XMLID_210_" x="18.5" y="14.5" class="st1" width="31.4" height="35"/>
	<g id="XMLID_240_">
		<g id="XMLID_98_">
			<path id="XMLID_235_" class="st2" d="M44.7,20.3h-4.8v4.3H25.1v-4.3h-4.8c-1,0-1.8,0.8-1.8,1.8v23.4c0,1,0.8,1.8,1.8,1.8h24.3
				c1,0,1.8-0.8,1.8-1.8V22.1C46.4,21.1,45.6,20.3,44.7,20.3z"/>
			<path id="XMLID_229_" class="st2" d="M37.7,18.6h-2.2v-0.3c0-0.8-0.7-1.5-1.5-1.5h-3.1c-0.8,0-1.5,0.7-1.5,1.5v0.3h-2.2v4.3h10.4
				V18.6z M32.5,21.2c-0.7,0-1.3-0.6-1.3-1.3c0-0.7,0.6-1.3,1.3-1.3s1.3,0.6,1.3,1.3C33.8,20.6,33.2,21.2,32.5,21.2z"/>
		</g>
		<path id="XMLID_237_" class="st3" d="M24.7,35.2L24.7,35.2c0-0.5,0.4-0.9,0.9-0.9h9.2c0.5,0,0.9,0.4,0.9,0.9l0,0
			c0,0.5-0.4,0.9-0.9,0.9h-9.2C25.1,36.1,24.7,35.7,24.7,35.2z"/>
		<path id="XMLID_236_" class="st3" d="M24.7,30.3v-0.2c0-0.5,0.4-0.8,0.8-0.8h15.2c0.5,0,0.8,0.4,0.8,0.8v0.2
			c0,0.5-0.4,0.8-0.8,0.8H25.5C25.1,31.1,24.7,30.7,24.7,30.3z"/>
		<path id="XMLID_238_" class="st3" d="M24.7,40.2L24.7,40.2c0-0.5,0.4-0.9,0.9-0.9h14.5c0.5,0,0.9,0.4,0.9,0.9v0
			c0,0.5-0.4,0.9-0.9,0.9H25.6C25.1,41.1,24.7,40.7,24.7,40.2z"/>
	</g>
	
		<radialGradient id="Oval-6-Copy-7_1_" cx="-264.4196" cy="455.3469" r="0.8336" gradientTransform="matrix(34.3643 -47.4967 -47.0972 -34.6558 30572.5762 3274.2495)" gradientUnits="userSpaceOnUse">
		<stop  offset="0" style="stop-color:#94ADFF;stop-opacity:0"/>
		<stop  offset="1" style="stop-color:#002DFF;stop-opacity:0.84"/>
	</radialGradient>
	<path id="Oval-6-Copy-7_23_" class="st4" d="M32.5,64.8C50.4,64.8,65,50.3,65,32.4c0-1.3,0-1.9-0.1-2.6c-0.1-0.6-0.1-1.3-0.2-1.7
		c-0.9-2.2-3.4,1.1-14.5,4.3C34.3,37,34,47.3,29.2,50c-9.8,5.6-10.8,0-15.9-4.1c-5.6-4.6-11.8-2-9.1,2.7
		C9.9,58.3,20.5,64.8,32.5,64.8z"/>
	
		<radialGradient id="Oval-6-Copy-8_1_" cx="-264.4692" cy="455.635" r="0.6495" gradientTransform="matrix(34.6002 -46.4016 -46.0113 -34.8937 30161.7266 3671.2581)" gradientUnits="userSpaceOnUse">
		<stop  offset="0" style="stop-color:#032AFF;stop-opacity:0"/>
		<stop  offset="1" style="stop-color:#00BBFB;stop-opacity:0.84"/>
	</radialGradient>
	<path id="Oval-6-Copy-8_23_" class="st5" d="M32.5,65C50.4,65,65,50.5,65,32.5c0-1.3,0-1.9-0.1-2.6c-0.1-0.6-0.1-1.3-0.2-1.7
		c-0.9-2.2-1.3,11-8.3,11c-17.8,0-11.3,13.5-24.7,5c-9.3-5.9-8.5,16.2-19.8,5.1S1.6,44,4.3,48.7C9.9,58.5,20.5,65,32.5,65z"/>
</g>
</svg>
