<?xml version="1.0" encoding="utf-8"?>
<!-- Generator: Adobe Illustrator 22.1.0, SVG Export Plug-In . SVG Version: 6.00 Build 0)  -->
<svg version="1.1" id="图层_1" xmlns="http://www.w3.org/2000/svg" xmlns:xlink="http://www.w3.org/1999/xlink" x="0px" y="0px"
	 viewBox="0 0 65 65" style="enable-background:new 0 0 65 65;" xml:space="preserve">
<style type="text/css">
	.st0{fill:url(#Oval-6-Copy-6_1_);}
	.st1{fill:#FFFFFF;}
	.st2{fill:url(#Oval-6-Copy-7_1_);}
	.st3{fill:url(#Oval-6-Copy-8_1_);}
</style>
<g>
	<g>
		
			<radialGradient id="Oval-6-Copy-6_1_" cx="-267.4403" cy="454.5795" r="1" gradientTransform="matrix(4.000000e-15 64.915 64.3689 -4.000000e-15 -29244.793 17355.4473)" gradientUnits="userSpaceOnUse">
			<stop  offset="0" style="stop-color:#823FFF"/>
			<stop  offset="0.7634" style="stop-color:#586BE6"/>
			<stop  offset="1" style="stop-color:#3F71FF"/>
		</radialGradient>
		<ellipse id="Oval-6-Copy-6_24_" class="st0" cx="32.5" cy="32.5" rx="32.5" ry="32.5"/>
	</g>
	<g>
		<path class="st1" d="M46.1,36.6h-5.6l-4.2,3.1c-0.3,0.3-0.8,0.4-1.2,0.4h-5c-0.5,0-0.9-0.1-1.3-0.4L25.6,37
			c-0.4-0.3-0.8-0.4-1.3-0.4h-5.5c-1.1,0-2,0.9-2,2v6.5c0,1.1,0.9,2,2,2h27.3c1.1,0,2-0.9,2-2v-6.5c0-0.5-0.2-1-0.6-1.4
			C47.2,36.8,46.7,36.6,46.1,36.6L46.1,36.6z M46.1,36.6"/>
		<path class="st1" d="M20.9,33.8h3.5c0.3,0,0.6,0.1,0.9,0.3l3.7,3c0.2,0.2,0.5,0.3,0.9,0.3h5.4c0.3,0,0.6-0.1,0.8-0.3l3.9-3
			c0.2-0.2,0.5-0.3,0.8-0.3h2.9c0.4,0,0.7-0.1,1-0.4c0.3-0.3,0.4-0.6,0.4-1V18.6c0-0.4-0.1-0.7-0.4-1c-0.3-0.3-0.6-0.4-1-0.4H20.9
			c-0.8,0-1.4,0.6-1.4,1.4v13.8c0,0.4,0.1,0.7,0.4,1C20.2,33.7,20.6,33.8,20.9,33.8L20.9,33.8z M24.4,20.7h16.8
			c0.6,0,1.1,0.5,1.1,1.1c0,0.6-0.5,1.1-1.1,1.1H24.4c-0.6,0-1.1-0.5-1.1-1.1C23.3,21.2,23.8,20.7,24.4,20.7L24.4,20.7z M24.4,26.3
			h8.9c0.6,0,1.1,0.5,1.1,1.1c0,0.6-0.5,1.1-1.1,1.1h-8.9c-0.6,0-1.1-0.5-1.1-1.1C23.3,26.8,23.8,26.3,24.4,26.3L24.4,26.3z
			 M24.4,26.3"/>
	</g>
	
		<radialGradient id="Oval-6-Copy-7_1_" cx="-263.0881" cy="457.4879" r="1.8062" gradientTransform="matrix(35.8896 9.687 9.6055 -36.1941 5088.1548 19159.8047)" gradientUnits="userSpaceOnUse">
		<stop  offset="0" style="stop-color:#2D00BA;stop-opacity:0"/>
		<stop  offset="1" style="stop-color:#9F94FF;stop-opacity:0.84"/>
	</radialGradient>
	<path id="Oval-6-Copy-7_24_" class="st2" d="M32.5,64.8C50.4,64.8,65,50.3,65,32.4c0-1.3,0-1.9-0.1-2.6c-0.1-0.6-0.1-1.3-0.2-1.7
		c-0.9-2.2-3.4,1.1-14.5,4.3C34.3,37,34,47.3,29.2,50c-9.8,5.6-10.8,0-15.9-4.1c-5.6-4.6-11.8-2-9.1,2.7
		C9.9,58.3,20.5,64.8,32.5,64.8z"/>
	
		<radialGradient id="Oval-6-Copy-8_1_" cx="-258.9484" cy="453.2956" r="1.0192" gradientTransform="matrix(22.0491 -29.5696 -29.3209 -22.2362 19047.3223 2466.8083)" gradientUnits="userSpaceOnUse">
		<stop  offset="0" style="stop-color:#B794FF;stop-opacity:0"/>
		<stop  offset="1" style="stop-color:#9E6AFF;stop-opacity:0.84"/>
	</radialGradient>
	<path id="Oval-6-Copy-8_24_" class="st3" d="M32.5,65C50.4,65,65,50.5,65,32.5c0-1.3,0-1.9-0.1-2.6c-0.1-0.6-0.1-1.3-0.2-1.7
		c-0.9-2.2-1.3,11-8.3,11c-17.8,0-11.3,13.5-24.7,5c-9.3-5.9-8.5,16.2-19.8,5.1S1.6,44,4.3,48.7C9.9,58.5,20.5,65,32.5,65z"/>
</g>
</svg>
