<?xml version="1.0" encoding="utf-8"?>
<!-- Generator: Adobe Illustrator 22.1.0, SVG Export Plug-In . SVG Version: 6.00 Build 0)  -->
<svg version="1.1" id="图层_1" xmlns="http://www.w3.org/2000/svg" xmlns:xlink="http://www.w3.org/1999/xlink" x="0px" y="0px"
	 viewBox="0 0 65 65" style="enable-background:new 0 0 65 65;" xml:space="preserve">
<style type="text/css">
	.st0{fill:url(#Oval-6-Copy-6_1_);}
	.st1{fill:#FFFFFF;}
	.st2{fill:#E83828;}
	.st3{fill:none;stroke:#E83828;stroke-width:1.5;stroke-miterlimit:10;}
	.st4{fill:url(#Oval-6-Copy-7_1_);}
	.st5{fill:url(#Oval-6-Copy-8_1_);}
</style>
<g>
	
		<radialGradient id="Oval-6-Copy-6_1_" cx="-265.4492" cy="450.1325" r="0.6373" gradientTransform="matrix(6.000000e-15 101.8666 101.0097 -6.000000e-15 -45451.7461 27034.9668)" gradientUnits="userSpaceOnUse">
		<stop  offset="0" style="stop-color:#F95625"/>
		<stop  offset="0.7634" style="stop-color:#FB4A29"/>
		<stop  offset="1" style="stop-color:#E9005B"/>
	</radialGradient>
	<ellipse id="Oval-6-Copy-6_2_" class="st0" cx="32.5" cy="32.5" rx="32.5" ry="32.5"/>
	<g id="XMLID_8_">
		<path id="XMLID_2_" class="st1" d="M41.6,46.3H19.4c-1.1,0-2-0.9-2-2V20.7c0-1.1,0.9-2,2-2h22.2c1.1,0,2,0.9,2,2v23.6
			C43.6,45.4,42.7,46.3,41.6,46.3z"/>
		<path id="XMLID_19_" class="st1" d="M44.6,15.8H24.3c-1.2,0-2.2,0.7-2.7,1.7c0.1,0,0.2,0,0.3,0h20.2c1.6,0,3,1.3,3,3v21.7
			c0,0.4-0.1,0.9-0.3,1.2c1.5-0.1,2.7-1.4,2.7-2.9V18.8C47.5,17.2,46.2,15.8,44.6,15.8z"/>
		<path id="XMLID_7_" class="st2" d="M24.5,39.2L24.5,39.2c-0.5,0-1-0.4-1-1v-4.8c0-0.5,0.4-1,1-1h0c0.5,0,1,0.4,1,1v4.8
			C25.5,38.8,25,39.2,24.5,39.2z"/>
		<path id="XMLID_14_" class="st2" d="M30.6,39.2L30.6,39.2c-0.5,0-1-0.4-1-1v-2.5c0-0.5,0.4-1,1-1h0c0.5,0,1,0.4,1,1v2.5
			C31.6,38.8,31.1,39.2,30.6,39.2z"/>
		<path id="XMLID_15_" class="st2" d="M37.1,39.2L37.1,39.2c-0.5,0-1-0.4-1-1v-8c0-0.5,0.4-1,1-1h0c0.5,0,1,0.4,1,1v8
			C38.1,38.8,37.6,39.2,37.1,39.2z"/>
		<polyline id="XMLID_16_" class="st3" points="23,29.1 29.2,26 31.9,29.5 39.3,25.2 		"/>
	</g>
	
		<radialGradient id="Oval-6-Copy-7_1_" cx="-266.118" cy="457.6747" r="0.8336" gradientTransform="matrix(34.3643 -47.4967 -47.0972 -34.6558 30740.5762 3274.248)" gradientUnits="userSpaceOnUse">
		<stop  offset="0" style="stop-color:#BF2A00;stop-opacity:0"/>
		<stop  offset="1" style="stop-color:#FF5A3F;stop-opacity:0.84"/>
	</radialGradient>
	<path id="Oval-6-Copy-7_2_" class="st4" d="M32.5,64.8C50.4,64.8,65,50.3,65,32.4c0-1.3,0-1.9-0.1-2.6c-0.1-0.6-0.1-1.3-0.2-1.7
		c-0.9-2.2-3.4,1.1-14.5,4.3C34.3,37,34,47.3,29.2,50c-9.8,5.6-10.8,0-15.9-4.1c-5.6-4.6-11.8-2-9.1,2.7
		C9.9,58.3,20.5,64.8,32.5,64.8z"/>
	
		<radialGradient id="Oval-6-Copy-8_1_" cx="-270.0275" cy="452.8353" r="0.9127" gradientTransform="matrix(55.721 14.5928 14.4701 -56.1937 8540.3369 29431.1953)" gradientUnits="userSpaceOnUse">
		<stop  offset="0" style="stop-color:#FF8415;stop-opacity:0"/>
		<stop  offset="1" style="stop-color:#FF94A0;stop-opacity:0.84"/>
	</radialGradient>
	<path id="Oval-6-Copy-8_2_" class="st5" d="M32.5,65C50.4,65,65,50.5,65,32.5c0-1.3,0-1.9-0.1-2.6c-0.1-0.6-0.1-1.3-0.2-1.7
		c-0.9-2.2-1.3,11-8.3,11c-17.8,0-11.3,13.5-24.7,5c-9.3-5.9-8.5,16.2-19.8,5.1S1.6,44,4.3,48.7C9.9,58.5,20.5,65,32.5,65z"/>
</g>
</svg>
