<svg id="图层_1" xmlns="http://www.w3.org/2000/svg" viewBox="0 0 65 65"><style>.st1{fill:#fff}.st3{fill:#fb4a29}</style><radialGradient id="Oval-6-Copy-6_1_" cx="-727.865" cy="78.244" r=".637" gradientTransform="matrix(0 101.8666 -101.0097 0 7919.422 74139.672)" gradientUnits="userSpaceOnUse"><stop offset="0" stop-color="#f95625"/><stop offset=".763" stop-color="#fb4a29"/><stop offset="1" stop-color="#e9005b"/></radialGradient><ellipse id="Oval-6-Copy-6_17_" cx="32.5" cy="32.5" rx="32.5" ry="32.5" fill="url(#Oval-6-Copy-6_1_)"/><path class="st1" d="M37.7 18.5h-2.2v-.3c0-.8-.7-1.5-1.5-1.5h-3.1c-.8 0-1.5.7-1.5 1.5v.3h-2.2v4.3h10.4v-4.3h.1z"/><circle cx="32.5" cy="19.8" r="1.3" fill="#f95625"/><path id="XMLID_118_" class="st1" d="M44.1 39.5c.7 1.9.3 4.2-1.3 5.7s-3.9 1.8-5.8.9l2.6-2.4c.5-.5.6-1.3.1-1.8l-.9-1c-.5-.5-1.3-.6-1.8-.1l-2.6 2.4c-.7-1.9-.3-4.2 1.3-5.7s3.9-1.8 5.8-.9l5-4.6V22c0-1-.8-1.8-1.8-1.8h-4.8v4.3H25.1v-4.3h-4.8c-1 0-1.8.8-1.8 1.8v23.4c0 1 .8 1.8 1.8 1.8h24.3c1 0 1.8-.8 1.8-1.8v-8.1l-2.3 2.2z"/><path id="XMLID_120_" class="st3" d="M23.2 34.3c0-.5.4-.9.9-.9h9.2c.5 0 .9.4.9.9s-.4.9-.9.9h-9.2c-.5 0-.9-.4-.9-.9z"/><path id="XMLID_119_" class="st3" d="M23.2 29.3v-.2c0-.5.4-.8.8-.8h15.2c.5 0 .8.4.8.8v.2c0 .5-.4.8-.8.8H24c-.4.1-.8-.3-.8-.8z"/><radialGradient id="Oval-6-Copy-7_1_" cx="-734.813" cy="86.478" r=".834" gradientTransform="matrix(34.3643 -47.4967 47.0972 34.6558 21218.896 -37845.254)" gradientUnits="userSpaceOnUse"><stop offset="0" stop-color="#bf2a00" stop-opacity="0"/><stop offset="1" stop-color="#ff5a3f" stop-opacity=".84"/></radialGradient><path id="Oval-6-Copy-7_17_" d="M32.5 64.8C50.4 64.8 65 50.3 65 32.4c0-1.3 0-1.9-.1-2.6-.1-.6-.1-1.3-.2-1.7-.9-2.2-3.4 1.1-14.5 4.3C34.3 37 34 47.3 29.2 50c-9.8 5.6-10.8 0-15.9-4.1-5.6-4.6-11.8-2-9.1 2.7 5.7 9.7 16.3 16.2 28.3 16.2z" fill="url(#Oval-6-Copy-7_1_)"/><radialGradient id="Oval-6-Copy-8_1_" cx="-727.154" cy="85.911" r=".913" gradientTransform="matrix(55.721 14.5928 -14.4701 56.1937 41807.61 5827.792)" gradientUnits="userSpaceOnUse"><stop offset="0" stop-color="#ff8415" stop-opacity="0"/><stop offset="1" stop-color="#ff94a0" stop-opacity=".84"/></radialGradient><path id="Oval-6-Copy-8_17_" d="M32.5 65C50.4 65 65 50.5 65 32.5c0-1.3 0-1.9-.1-2.6-.1-.6-.1-1.3-.2-1.7-.9-2.2-1.3 11-8.3 11-17.8 0-11.3 13.5-24.7 5-9.3-5.9-8.5 16.2-19.8 5.1S1.6 44 4.3 48.7C9.9 58.5 20.5 65 32.5 65z" fill="url(#Oval-6-Copy-8_1_)"/></svg>