<svg id="图层_1" xmlns="http://www.w3.org/2000/svg" viewBox="0 0 65 65"><style>.st1{fill:#fff}.st2{fill:#00b46b}</style><radialGradient id="Oval-6-Copy-3_1_" cx="-1195.934" cy="464.369" r=".637" gradientTransform="matrix(0 101.8666 101.0097 0 -46889.746 121820.242)" gradientUnits="userSpaceOnUse"><stop offset="0" stop-color="#00dd8e"/><stop offset=".763" stop-color="#00b46b"/><stop offset="1" stop-color="#00bf47"/></radialGradient><ellipse id="Oval-6-Copy-3_21_" cx="32.5" cy="32.5" rx="32.5" ry="32.5" fill="url(#Oval-6-Copy-3_1_)"/><path id="XMLID_122_" class="st1" d="M44.6 21c1.3 1.1 2.1 2.7 2.1 4.5v15.3c0 3.2-2.6 5.8-5.9 5.8H27.7c-1.7 0-3.3-.7-4.3-1.9H26c.5.2 1 .3 1.6.3h13.1c2.4 0 4.3-1.9 4.3-4.2V25.5c0-.7-.2-1.4-.5-1.9l.1-2.6z"/><path id="XMLID_258_" class="st1" d="M40.7 42.8H20.5c-1.2 0-2.2-1-2.2-2.2V19.2c0-1.2 1-2.2 2.2-2.2h20.2c1.2 0 2.2 1 2.2 2.2v21.5c-.1 1.2-1.1 2.1-2.2 2.1z"/><path id="XMLID_252_" class="st2" d="M21.4 23.4c0-.4.3-.8.8-.8h4.7c.4 0 .8.3.8.8 0 .4-.3.8-.8.8h-4.7c-.4 0-.8-.3-.8-.8z"/><path id="XMLID_143_" class="st2" d="M21.3 34.8c0-.4.3-.8.8-.8h12.8c.4 0 .8.3.8.8 0 .4-.3.8-.8.8H22.1c-.4-.1-.8-.4-.8-.8z"/><path id="XMLID_142_" class="st2" d="M21.4 29.1c0-.4.3-.8.8-.8h9.2c.4 0 .8.3.8.8 0 .4-.3.8-.8.8h-9.2c-.4 0-.8-.4-.8-.8z"/><path id="XMLID_141_" class="st2" d="M33.8 17v6.7l2.9-.9 2.5 1V17z"/><radialGradient id="Oval-6-Copy-4_1_" cx="-1178.614" cy="453.14" r="1.151" gradientTransform="matrix(56.3191 15.2012 15.0733 -56.7969 59588.61 43706.207)" gradientUnits="userSpaceOnUse"><stop offset="0" stop-color="#00941a" stop-opacity="0"/><stop offset="1" stop-color="#00bf61" stop-opacity=".84"/></radialGradient><path id="Oval-6-Copy-4_21_" d="M32.5 64.8C50.4 64.8 65 50.3 65 32.4c0-1.3 0-1.9-.1-2.6-.1-.6-.1-1.3-.2-1.7-.9-2.2-3.4 1.1-14.5 4.3C34.3 37 34 47.3 29.2 50c-9.8 5.6-10.8 0-15.9-4.1-5.6-4.6-11.8-2-9.1 2.7 5.7 9.7 16.3 16.2 28.3 16.2z" fill="url(#Oval-6-Copy-4_1_)"/><radialGradient id="Oval-6-Copy-5_1_" cx="-1190.141" cy="434.296" r=".649" gradientTransform="matrix(34.6002 -46.4016 -46.0113 -34.8937 61208.313 -40025.973)" gradientUnits="userSpaceOnUse"><stop offset="0" stop-color="#00f142" stop-opacity="0"/><stop offset=".986" stop-color="#00e9b5" stop-opacity=".84"/></radialGradient><path id="Oval-6-Copy-5_21_" d="M32.5 65C50.4 65 65 50.5 65 32.5c0-1.3 0-1.9-.1-2.6-.1-.6-.1-1.3-.2-1.7-.9-2.2-1.3 11-8.3 11-17.8 0-11.3 13.5-24.7 5-9.3-5.9-8.5 16.2-19.8 5.1S1.6 44 4.3 48.7C9.9 58.5 20.5 65 32.5 65z" fill="url(#Oval-6-Copy-5_1_)"/></svg>