<svg id="图层_1" xmlns="http://www.w3.org/2000/svg" viewBox="0 0 65 65"><style>.st1{fill:#fff}.st2{fill:#6655e5}</style><radialGradient id="Oval-6-Copy-6_1_" cx="-727.246" cy="71.165" r="1" gradientTransform="matrix(0 64.915 -64.3689 0 4596.83 47203.754)" gradientUnits="userSpaceOnUse"><stop offset="0" stop-color="#823fff"/><stop offset=".763" stop-color="#586be6"/><stop offset="1" stop-color="#3f71ff"/></radialGradient><ellipse id="Oval-6-Copy-6_16_" cx="32.5" cy="32.5" rx="32.5" ry="32.5" fill="url(#Oval-6-Copy-6_1_)"/><path class="st1" d="M42.6 35.1c-3.4 0-6.2 2.8-6.2 6.2s2.8 6.2 6.2 6.2 6.2-2.8 6.2-6.2c-.1-3.4-2.8-6.2-6.2-6.2"/><path class="st1" d="M42.8 33.3c.9 0 1.9.2 2.8.4V19.9c0-1.6-1.3-3-3-3H20.1c-1.4 0-2.5 1.1-2.5 2.5v24.1c0 1.6 1.3 2.8 2.8 2.8H37c-1.4-.9-2.2-3.2-2.2-5.4 0-4.2 3.7-7.6 8-7.6"/><path class="st2" d="M23.3 24.9h15.1c.5 0 .9.4.9.9s-.4.9-.9.9H23.3c-.5 0-.9-.4-.9-.9 0-.6.4-.9.9-.9M23.1 30h12.6c.4 0 .8.4.8.9s-.3.9-.8.9H23.1c-.4 0-.8-.4-.8-.9.1-.5.4-.9.8-.9M32 36.8h-8.8c-.5 0-.9-.4-.9-.9s.4-.9.9-.9H32c.5 0 .9.4.9.9s-.4.9-.9.9zM46.7 40.6l-1.6 1.5c-.1.1-.1.2-.1.4l.4 2.2c.1.3-.3.6-.6.4l-2-1c-.1-.1-.3-.1-.4 0l-2 1c-.3.2-.6-.1-.6-.4l.4-2.2c0-.1 0-.3-.1-.3l-1.6-1.5c-.2-.2-.1-.6.2-.7l2.2-.3c.1 0 .2-.1.3-.2l1-2c.1-.3.6-.3.7 0l1 2c.1.1.2.2.3.2l2.2.3c.4 0 .5.4.3.6z"/><radialGradient id="Oval-6-Copy-7_1_" cx="-714.723" cy="84.302" r="1.806" gradientTransform="matrix(35.8896 9.687 -9.6055 36.1941 26501.328 3925.179)" gradientUnits="userSpaceOnUse"><stop offset="0" stop-color="#2d00ba" stop-opacity="0"/><stop offset="1" stop-color="#9f94ff" stop-opacity=".84"/></radialGradient><path id="Oval-6-Copy-7_18_" d="M32.5 64.8C50.4 64.8 65 50.3 65 32.4c0-1.3 0-1.9-.1-2.6-.1-.6-.1-1.3-.2-1.7-.9-2.2-3.4 1.1-14.5 4.3C34.3 37 34 47.3 29.2 50c-9.8 5.6-10.8 0-15.9-4.1-5.6-4.6-11.8-2-9.1 2.7 5.7 9.7 16.3 16.2 28.3 16.2z" fill="url(#Oval-6-Copy-7_1_)"/><radialGradient id="Oval-6-Copy-8_1_" cx="-728.386" cy="97.465" r="1.019" gradientTransform="matrix(22.0491 -29.5696 29.3209 22.2362 13249.213 -23661.09)" gradientUnits="userSpaceOnUse"><stop offset="0" stop-color="#b794ff" stop-opacity="0"/><stop offset="1" stop-color="#9e6aff" stop-opacity=".84"/></radialGradient><path id="Oval-6-Copy-8_18_" d="M32.5 65C50.4 65 65 50.5 65 32.5c0-1.3 0-1.9-.1-2.6-.1-.6-.1-1.3-.2-1.7-.9-2.2-1.3 11-8.3 11-17.8 0-11.3 13.5-24.7 5-9.3-5.9-8.5 16.2-19.8 5.1S1.6 44 4.3 48.7C9.9 58.5 20.5 65 32.5 65z" fill="url(#Oval-6-Copy-8_1_)"/></svg>