<svg id="图层_1" xmlns="http://www.w3.org/2000/svg" viewBox="0 0 65 65"><style>.st1{fill:#fff}.st2{fill:#0776ff}</style><radialGradient id="Oval-6-Copy-6_1_" cx="-727.865" cy="76.581" r=".637" gradientTransform="matrix(0 101.8666 -101.0097 0 7751.422 74139.672)" gradientUnits="userSpaceOnUse"><stop offset="0" stop-color="#0776ff"/><stop offset=".763" stop-color="#0089fb"/><stop offset="1" stop-color="#3f81ff"/></radialGradient><ellipse id="Oval-6-Copy-6_19_" cx="32.5" cy="32.5" rx="32.5" ry="32.5" fill="url(#Oval-6-Copy-6_1_)"/><path class="st1" d="M41.8 35.4c-3.4 0-6.1 2.7-6.1 6.1 0 3.4 2.7 6.1 6.1 6.1 3.4 0 6.1-2.7 6.1-6.1 0-3.3-2.7-6.1-6.1-6.1"/><path class="st1" d="M42.1 33.7c.9 0 1.9.1 2.7.4V20.4c0-1.6-1.3-3-2.9-3H19.6c-1.4 0-2.5 1.1-2.5 2.5v23.8c0 1.5 1.2 2.8 2.8 2.8h16.4c-1.4-.9-2.2-3.1-2.2-5.3 0-4.3 3.7-7.5 8-7.5"/><path class="st2" d="M22.8 25.3h14.9c.5 0 .9.4.9.9s-.4.9-.9.9H22.8c-.5 0-.9-.4-.9-.9s.4-.9.9-.9M31.4 32.3h-8.6c-.5 0-.9-.4-.9-.9s.4-.9.9-.9h8.6c.5 0 .9.4.9.9s-.4.9-.9.9M45.4 39.6l-4.1 4.9s-.4.5-.8 0l-2-2.7s-.2-.4.1-.6c.1-.1.3-.2.6.1l1.8 1.4 3.9-3.5s.3-.3.6-.1c0 .1.1.3-.1.5"/><radialGradient id="Oval-6-Copy-7_1_" cx="-733.115" cy="88.805" r=".834" gradientTransform="matrix(34.3643 -47.4967 47.0972 34.6558 21050.896 -37845.25)" gradientUnits="userSpaceOnUse"><stop offset="0" stop-color="#94adff" stop-opacity="0"/><stop offset="1" stop-color="#002dff" stop-opacity=".84"/></radialGradient><path id="Oval-6-Copy-7_19_" d="M32.5 64.8C50.4 64.8 65 50.3 65 32.4c0-1.3 0-1.9-.1-2.6-.1-.6-.1-1.3-.2-1.7-.9-2.2-3.4 1.1-14.5 4.3C34.3 37 34 47.3 29.2 50c-9.8 5.6-10.8 0-15.9-4.1-5.6-4.6-11.8-2-9.1 2.7 5.7 9.7 16.3 16.2 28.3 16.2z" fill="url(#Oval-6-Copy-7_1_)"/><radialGradient id="Oval-6-Copy-8_1_" cx="-733.023" cy="88.683" r=".649" gradientTransform="matrix(34.6002 -46.4016 46.0113 34.8937 21328.998 -37063.633)" gradientUnits="userSpaceOnUse"><stop offset="0" stop-color="#032aff" stop-opacity="0"/><stop offset="1" stop-color="#00bbfb" stop-opacity=".84"/></radialGradient><path id="Oval-6-Copy-8_19_" d="M32.5 65C50.4 65 65 50.5 65 32.5c0-1.3 0-1.9-.1-2.6-.1-.6-.1-1.3-.2-1.7-.9-2.2-1.3 11-8.3 11-17.8 0-11.3 13.5-24.7 5-9.3-5.9-8.5 16.2-19.8 5.1S1.6 44 4.3 48.7C9.9 58.5 20.5 65 32.5 65z" fill="url(#Oval-6-Copy-8_1_)"/></svg>