<svg id="图层_1" xmlns="http://www.w3.org/2000/svg" viewBox="0 0 65 65"><style>.st1{fill:#fff}.st2{fill:#fb9c00}</style><radialGradient id="Oval-6-Copy-6_1_" cx="-727.865" cy="79.907" r=".637" gradientTransform="matrix(0 101.8666 -101.0097 0 8087.422 74139.672)" gradientUnits="userSpaceOnUse"><stop offset="0" stop-color="#ff6907"/><stop offset=".763" stop-color="#fb9c00"/><stop offset="1" stop-color="#ffbd55"/></radialGradient><ellipse id="Oval-6-Copy-6_18_" cx="32.5" cy="32.5" rx="32.5" ry="32.5" fill="url(#Oval-6-Copy-6_1_)"/><path class="st1" d="M44.4 25.6h-7.2c-.5 0-.8-.4-.8-.8v-7.5l8 8.3z"/><path class="st1" d="M37.2 27.2h7.7v19.9H19.4V19.3c0-1.3 1.1-2.4 2.5-2.4h12.6v8c.1 1.3 1.3 2.3 2.7 2.3z"/><path class="st2" d="M38.5 37.8c.6 0 1-.4 1-.9s-.5-.9-1-.9H25.7c-.6 0-1 .4-1 .9s.5.9 1 .9h12.8zM38.5 32.1c.6 0 1-.4 1-.9s-.5-.9-1-.9H25.7c-.6 0-1 .4-1 .9s.5.9 1 .9h12.8z"/><radialGradient id="Oval-6-Copy-7_1_" cx="-736.511" cy="84.15" r=".834" gradientTransform="matrix(34.3643 -47.4967 47.0972 34.6558 21386.896 -37845.254)" gradientUnits="userSpaceOnUse"><stop offset="0" stop-color="#ff9203" stop-opacity="0"/><stop offset="1" stop-color="#d48200" stop-opacity=".84"/></radialGradient><path id="Oval-6-Copy-7_15_" d="M32.5 64.8C50.4 64.8 65 50.3 65 32.4c0-1.3 0-1.9-.1-2.6-.1-.6-.1-1.3-.2-1.7-.9-2.2-3.4 1.1-14.5 4.3C34.3 37 34 47.3 29.2 50c-9.8 5.6-10.8 0-15.9-4.1-5.6-4.6-11.8-2-9.1 2.7 5.7 9.7 16.3 16.2 28.3 16.2z" fill="url(#Oval-6-Copy-7_1_)"/><radialGradient id="Oval-6-Copy-8_1_" cx="-736.53" cy="84.018" r=".649" gradientTransform="matrix(34.6002 -46.4016 46.0113 34.8937 21664.998 -37063.633)" gradientUnits="userSpaceOnUse"><stop offset="0" stop-color="#ffb703" stop-opacity="0"/><stop offset="1" stop-color="#ffdd6a" stop-opacity=".84"/></radialGradient><path id="Oval-6-Copy-8_15_" d="M32.5 65C50.4 65 65 50.5 65 32.5c0-1.3 0-1.9-.1-2.6-.1-.6-.1-1.3-.2-1.7-.9-2.2-1.3 11-8.3 11-17.8 0-11.3 13.5-24.7 5-9.3-5.9-8.5 16.2-19.8 5.1S1.6 44 4.3 48.7C9.9 58.5 20.5 65 32.5 65z" fill="url(#Oval-6-Copy-8_1_)"/></svg>