<svg xmlns="http://www.w3.org/2000/svg" viewBox="0 0 65 65"><radialGradient id="a" cx="-265.449" cy="451.796" r=".637" gradientTransform="matrix(0 101.8666 101.0097 0 -45619.746 27034.969)" gradientUnits="userSpaceOnUse"><stop offset="0" stop-color="#0776ff"/><stop offset=".763" stop-color="#0089fb"/><stop offset="1" stop-color="#3f81ff"/></radialGradient><ellipse cx="32.5" cy="32.5" rx="32.5" ry="32.5" fill="url(#a)"/><path d="M43.8 16.9H21.2c-1.1 0-1.9.9-1.9 1.9v26.6c0 1.1.9 1.9 1.9 1.9h22.6c1.1 0 1.9-.9 1.9-1.9V18.8c0-1.1-.8-1.9-1.9-1.9zm-16.7 5.6h14.8c.5 0 .9.4.9.9s-.4.9-.9.9H27.1c-.5 0-.9-.4-.9-.9s.4-.9.9-.9zm-.9 7.5c0-.5.4-.9.9-.9h14.8c.5 0 .9.4.9.9s-.4.9-.9.9H27.1c-.5 0-.9-.4-.9-.9zm15.2 6.2c0 .8-.7 1.5-1.5 1.5s-1.5-.7-1.5-1.5.7-1.5 1.5-1.5 1.5.7 1.5 1.5zm-17.9 1.3c-.5 0-.9-.4-.9-.9s.4-.9.9-.9.9.4.9.9-.4.9-.9.9zm0-6.6c-.5 0-.9-.4-.9-.9s.4-.9.9-.9.9.4.9.9-.4.9-.9.9zm0-6.7c-.5 0-.9-.4-.9-.9s.4-.9.9-.9.9.4.9.9-.4.9-.9.9zM35 36.6c0 .5-.4.9-.9.9h-7c-.5 0-.9-.4-.9-.9s.4-.9.9-.9h7c.5.1.9.4.9.9zm6.7 6.3h-3.6c-.9 0-1.7-.8-1.7-1.7 0-1.5 1.2-2.6 2.6-2.6h1.7c1.5 0 2.6 1.2 2.6 2.6.1.9-.7 1.7-1.6 1.7z" fill="#fff"/><radialGradient id="b" cx="-264.42" cy="455.347" r=".834" gradientTransform="matrix(34.3643 -47.4967 -47.0972 -34.6558 30572.576 3274.25)" gradientUnits="userSpaceOnUse"><stop offset="0" stop-color="#94adff" stop-opacity="0"/><stop offset="1" stop-color="#002dff" stop-opacity=".84"/></radialGradient><path d="M32.5 64.8C50.4 64.8 65 50.3 65 32.4c0-1.3 0-1.9-.1-2.6-.1-.6-.1-1.3-.2-1.7-.9-2.2-3.4 1.1-14.5 4.3C34.3 37 34 47.3 29.2 50c-9.8 5.6-10.8 0-15.9-4.1-5.6-4.6-11.8-2-9.1 2.7 5.7 9.7 16.3 16.2 28.3 16.2z" fill="url(#b)"/><radialGradient id="c" cx="-264.469" cy="455.635" r=".649" gradientTransform="matrix(34.6002 -46.4016 -46.0113 -34.8937 30161.727 3671.258)" gradientUnits="userSpaceOnUse"><stop offset="0" stop-color="#032aff" stop-opacity="0"/><stop offset="1" stop-color="#00bbfb" stop-opacity=".84"/></radialGradient><path d="M32.5 65C50.4 65 65 50.5 65 32.5c0-1.3 0-1.9-.1-2.6-.1-.6-.1-1.3-.2-1.7-.9-2.2-1.3 11-8.3 11-17.8 0-11.3 13.5-24.7 5-9.3-5.9-8.5 16.2-19.8 5.1S1.6 44 4.3 48.7C9.9 58.5 20.5 65 32.5 65z" fill="url(#c)"/></svg>