<svg id="图层_1" xmlns="http://www.w3.org/2000/svg" viewBox="0 0 65 65"><style>.st1{fill:#fff}</style><radialGradient id="Oval-6-Copy-6_1_" cx="-265.449" cy="450.132" r=".637" gradientTransform="matrix(0 101.8666 101.0097 0 -45451.746 27034.967)" gradientUnits="userSpaceOnUse"><stop offset="0" stop-color="#f95625"/><stop offset=".763" stop-color="#fb4a29"/><stop offset="1" stop-color="#e9005b"/></radialGradient><ellipse id="Oval-6-Copy-6_35_" cx="32.5" cy="32.5" rx="32.5" ry="32.5" fill="url(#Oval-6-Copy-6_1_)"/><path class="st1" d="M31.8 23.9c-1-.3-1.8-1.2-1.8-2.3 0-1.3 1.1-2.4 2.4-2.4 1.3 0 2.4 1.1 2.4 2.4 0 1.1-.7 2-1.6 2.3v1.7h12.2V19c0-1.1-.9-2-2-2h-22c-1.1 0-2 .9-2 2v6.5h12.2v-1.6zM44 27H33.2v1.2c1 .3 1.6 1.2 1.6 2.3 0 1.3-1.1 2.4-2.4 2.4-1.3 0-2.4-1.1-2.4-2.4 0-1.1.8-2.1 1.8-2.3V27H21c-.8 0-1.4-.6-1.4-1.4v18.9c0 1.1.9 2 2 2h22c1.1 0 2-.9 2-2V25.6c-.2.7-.8 1.4-1.6 1.4z"/><radialGradient id="Oval-6-Copy-7_1_" cx="-266.118" cy="457.675" r=".834" gradientTransform="matrix(34.3643 -47.4967 -47.0972 -34.6558 30740.576 3274.248)" gradientUnits="userSpaceOnUse"><stop offset="0" stop-color="#bf2a00" stop-opacity="0"/><stop offset="1" stop-color="#ff5a3f" stop-opacity=".84"/></radialGradient><path id="Oval-6-Copy-7_35_" d="M32.5 64.8C50.4 64.8 65 50.3 65 32.4c0-1.3 0-1.9-.1-2.6-.1-.6-.1-1.3-.2-1.7-.9-2.2-3.4 1.1-14.5 4.3C34.3 37 34 47.3 29.2 50c-9.8 5.6-10.8 0-15.9-4.1-5.6-4.6-11.8-2-9.1 2.7 5.7 9.7 16.3 16.2 28.3 16.2z" fill="url(#Oval-6-Copy-7_1_)"/><radialGradient id="Oval-6-Copy-8_1_" cx="-270.027" cy="452.835" r=".913" gradientTransform="matrix(55.721 14.5928 14.4701 -56.1937 8540.337 29431.195)" gradientUnits="userSpaceOnUse"><stop offset="0" stop-color="#ff8415" stop-opacity="0"/><stop offset="1" stop-color="#ff94a0" stop-opacity=".84"/></radialGradient><path id="Oval-6-Copy-8_35_" d="M32.5 65C50.4 65 65 50.5 65 32.5c0-1.3 0-1.9-.1-2.6-.1-.6-.1-1.3-.2-1.7-.9-2.2-1.3 11-8.3 11-17.8 0-11.3 13.5-24.7 5-9.3-5.9-8.5 16.2-19.8 5.1S1.6 44 4.3 48.7C9.9 58.5 20.5 65 32.5 65z" fill="url(#Oval-6-Copy-8_1_)"/></svg>