<svg id="图层_1" xmlns="http://www.w3.org/2000/svg" viewBox="0 0 65 65"><style>.st1{fill:#fff}</style><radialGradient id="Oval-6-Copy-6_1_" cx="-267.44" cy="454.579" r="1" gradientTransform="matrix(0 64.915 64.3689 0 -29244.793 17355.447)" gradientUnits="userSpaceOnUse"><stop offset="0" stop-color="#823fff"/><stop offset=".763" stop-color="#586be6"/><stop offset="1" stop-color="#3f71ff"/></radialGradient><ellipse id="Oval-6-Copy-6_37_" cx="32.5" cy="32.5" rx="32.5" ry="32.5" fill="url(#Oval-6-Copy-6_1_)"/><path class="st1" d="M32.5 31c-2.2 0-3.9-1.7-4-3.8-3.3-.5-6.3-1.5-8.6-3V45c0 1.1.9 2 2 2h21.3c1.1 0 2-.9 2-2V24.2c-2.3 1.4-5.3 2.4-8.6 2.9-.2 2.2-1.9 3.9-4.1 3.9zm1.4 10.5c0 .5-.4.9-.9.9h-7.9c-.5 0-.9-.4-.9-.9s.4-.9.9-.9H33c.5.1.9.5.9.9zm2.4-3.3c0 .5-.4.9-.9.9H25.1c-.5 0-.9-.4-.9-.9s.4-.9.9-.9h10.3c.5 0 .9.4.9.9zm4.5-3.4c0 .5-.4.9-.9.9H25.1c-.5 0-.9-.4-.9-.9s.4-.9.9-.9H40c.5 0 .8.4.8.9z"/><path class="st1" d="M43.1 16.9H21.9c-1.1 0-2 .9-2 2V22c.3.2.5.4.8.6.7.5 1.5.9 2.4 1.2.9.4 1.8.7 2.8 1 .9.2 1.9.4 2.9.6.6-1.4 2-2.4 3.7-2.4 1.6 0 3 1 3.7 2.4 1-.1 2-.3 2.9-.6 1-.3 1.9-.6 2.8-1 .9-.4 1.7-.8 2.4-1.2.3-.2.5-.3.7-.5v-3.3c.1-1.1-.8-1.9-1.9-1.9z"/><radialGradient id="Oval-6-Copy-7_1_" cx="-263.088" cy="457.488" r="1.806" gradientTransform="matrix(35.8896 9.687 9.6055 -36.1941 5088.155 19159.805)" gradientUnits="userSpaceOnUse"><stop offset="0" stop-color="#2d00ba" stop-opacity="0"/><stop offset="1" stop-color="#9f94ff" stop-opacity=".84"/></radialGradient><path id="Oval-6-Copy-7_37_" d="M32.5 64.8C50.4 64.8 65 50.3 65 32.4c0-1.3 0-1.9-.1-2.6-.1-.6-.1-1.3-.2-1.7-.9-2.2-3.4 1.1-14.5 4.3C34.3 37 34 47.3 29.2 50c-9.8 5.6-10.8 0-15.9-4.1-5.6-4.6-11.8-2-9.1 2.7 5.7 9.7 16.3 16.2 28.3 16.2z" fill="url(#Oval-6-Copy-7_1_)"/><radialGradient id="Oval-6-Copy-8_1_" cx="-258.948" cy="453.296" r="1.019" gradientTransform="matrix(22.0491 -29.5696 -29.3209 -22.2362 19047.322 2466.808)" gradientUnits="userSpaceOnUse"><stop offset="0" stop-color="#b794ff" stop-opacity="0"/><stop offset="1" stop-color="#9e6aff" stop-opacity=".84"/></radialGradient><path id="Oval-6-Copy-8_37_" d="M32.5 65C50.4 65 65 50.5 65 32.5c0-1.3 0-1.9-.1-2.6-.1-.6-.1-1.3-.2-1.7-.9-2.2-1.3 11-8.3 11-17.8 0-11.3 13.5-24.7 5-9.3-5.9-8.5 16.2-19.8 5.1S1.6 44 4.3 48.7C9.9 58.5 20.5 65 32.5 65z" fill="url(#Oval-6-Copy-8_1_)"/></svg>