<svg xmlns="http://www.w3.org/2000/svg" viewBox="0 0 65 65"><radialGradient id="a" cx="-265.449" cy="448.469" r=".637" gradientTransform="matrix(0 101.8666 101.0097 0 -45283.746 27034.967)" gradientUnits="userSpaceOnUse"><stop offset="0" stop-color="#ff6907"/><stop offset=".763" stop-color="#fb9c00"/><stop offset="1" stop-color="#ffbd55"/></radialGradient><ellipse cx="32.5" cy="32.5" rx="32.5" ry="32.5" fill="url(#a)"/><path d="M41.3 38.6v-3.2c0-.4-.3-.7-.7-.7h-.3c-.4 0-.7.3-.7.7v3.2h-3.2c-.4 0-.7.3-.7.7v.3c0 .3.3.7.7.7h3.2v3.2c0 .4.3.7.7.7h.3c.4 0 .7-.3.7-.7v-3.2h3.2c.4 0 .7-.3.7-.7v-.3c0-.4-.3-.7-.7-.7h-3.2zm-6.8 8.9H20.3c-.9 0-1.6-.7-1.6-1.6V22.4c0-.9.7-1.6 1.6-1.6h2.3v6.5h17.1v-6.5H42c.9 0 1.6.7 1.6 1.6v7.9c-5.1-1.8-10.8.9-12.5 6.1-1.4 4.1-.1 8.6 3.4 11.1zm3.7-21.8h-14v-5.2c0-1.1.8-2 1.8-2h1.8c.6-1.5 2-2.4 3.4-2.4 1.5 0 2.8 1 3.4 2.4h1.8c1 0 1.7.9 1.7 2l.1 5.2zM22.6 33c0 .4.4.8.8.8h7c.4 0 .8-.4.8-.8s-.4-.8-.8-.8h-7c-.5 0-.8.3-.8.8zm0 6.4c0 .4.4.8.8.8h5.4c.4 0 .8-.4.8-.8s-.4-.8-.8-.8h-5.4c-.4 0-.8.4-.8.8zm5.1-16.1c.7 0 1.2-.6 1.2-1.2 0-.7-.5-1.2-1.2-1.2s-1.2.6-1.2 1.2.5 1.2 1.2 1.2zm7 0c.7 0 1.2-.6 1.2-1.2 0-.7-.5-1.2-1.2-1.2s-1.2.6-1.2 1.2.5 1.2 1.2 1.2zm5.7 24.2c-4.4 0-7.9-3.5-7.9-7.9s3.5-7.9 7.9-7.9 7.9 3.5 7.9 7.9-3.6 7.9-7.9 7.9z" fill="#fff"/><radialGradient id="b" cx="-267.817" cy="460.002" r=".834" gradientTransform="matrix(34.3643 -47.4967 -47.0972 -34.6558 30908.576 3274.248)" gradientUnits="userSpaceOnUse"><stop offset="0" stop-color="#ff9203" stop-opacity="0"/><stop offset="1" stop-color="#d48200" stop-opacity=".84"/></radialGradient><path d="M32.5 64.8C50.4 64.8 65 50.3 65 32.4c0-1.3 0-1.9-.1-2.6-.1-.6-.1-1.3-.2-1.7-.9-2.2-3.4 1.1-14.5 4.3C34.3 37 34 47.3 29.2 50c-9.8 5.6-10.8 0-15.9-4.1-5.6-4.6-11.8-2-9.1 2.7 5.7 9.7 16.3 16.2 28.3 16.2z" fill="url(#b)"/><radialGradient id="c" cx="-267.977" cy="460.3" r=".649" gradientTransform="matrix(34.6002 -46.4016 -46.0113 -34.8937 30497.727 3671.257)" gradientUnits="userSpaceOnUse"><stop offset="0" stop-color="#ffb703" stop-opacity="0"/><stop offset="1" stop-color="#ffdd6a" stop-opacity=".84"/></radialGradient><path d="M32.5 65C50.4 65 65 50.5 65 32.5c0-1.3 0-1.9-.1-2.6-.1-.6-.1-1.3-.2-1.7-.9-2.2-1.3 11-8.3 11-17.8 0-11.3 13.5-24.7 5-9.3-5.9-8.5 16.2-19.8 5.1S1.6 44 4.3 48.7C9.9 58.5 20.5 65 32.5 65z" fill="url(#c)"/></svg>