<svg xmlns="http://www.w3.org/2000/svg" viewBox="0 0 65 65"><radialGradient id="a" cx="-271.102" cy="455.122" r=".637" gradientTransform="matrix(0 101.8666 101.0097 0 -45955.746 27610.836)" gradientUnits="userSpaceOnUse"><stop offset="0" stop-color="#00dd8e"/><stop offset=".763" stop-color="#00b46b"/><stop offset="1" stop-color="#00bf47"/></radialGradient><ellipse cx="32.5" cy="32.5" rx="32.5" ry="32.5" fill="url(#a)"/><path d="M44 16.7H21.7c-1.2 0-2.1.9-2.1 2.1v26.6c0 1.2.9 2.1 2.1 2.1H44c1.2 0 2.1-.9 2.1-2.1V18.8c0-1.1-.9-2.1-2.1-2.1zm-20.9 5.6c.4 0 .7.3.7.7 0 .4-.3.7-.7.7-.4 0-.7-.3-.7-.7 0-.4.3-.7.7-.7zm4.2 19.6h-4.2c-.4 0-.7-.3-.7-.7 0-.4.3-.7.7-.7h4.2c.4 0 .7.3.7.7 0 .4-.4.7-.7.7zm-4.9-3.5c0-.4.3-.7.7-.7h2.8c.4 0 .7.3.7.7 0 .4-.3.7-.7.7h-2.8c-.4 0-.7-.3-.7-.7zm12.8 5.1h-2.3v-4c0-.4.3-.7.7-.7h.9c.4 0 .7.3.7.7v4zm3 0h-2.3v-5.1c0-.4.3-.7.7-.7h.9c.4 0 .7.3.7.7v5.1zm3.1 0H39v-3.4c0-.4.3-.7.7-.7h.9c.4 0 .7.3.7.7v3.4zm2-7.2h-21V25.1h21v11.2zm-.7-12.6H25.9c-.4 0-.7-.3-.7-.7 0-.4.3-.7.7-.7h16.8c.4 0 .7.3.7.7-.1.4-.4.7-.8.7z" fill-rule="evenodd" clip-rule="evenodd" fill="#fff"/><radialGradient id="b" cx="-264.197" cy="464.344" r="1.151" gradientTransform="matrix(56.3191 15.2012 15.0733 -56.7969 7920.573 30442.287)" gradientUnits="userSpaceOnUse"><stop offset="0" stop-color="#00941a" stop-opacity="0"/><stop offset="1" stop-color="#00bf61" stop-opacity=".84"/></radialGradient><path d="M32.5 64.8C50.4 64.8 65 50.3 65 32.4c0-1.3 0-1.9-.1-2.6-.1-.6-.1-1.3-.2-1.7-.9-2.2-3.4 1.1-14.5 4.3C34.3 37 34 47.3 29.2 50c-9.8 5.6-10.8 0-15.9-4.1-5.6-4.6-11.8-2-9.1 2.7 5.7 9.7 16.3 16.2 28.3 16.2z" fill="url(#b)"/><radialGradient id="c" cx="-253.034" cy="456.932" r=".649" gradientTransform="matrix(34.6002 -46.4016 -46.0113 -34.8937 29825.727 4247.124)" gradientUnits="userSpaceOnUse"><stop offset="0" stop-color="#00f142" stop-opacity="0"/><stop offset=".986" stop-color="#00e9b5" stop-opacity=".84"/></radialGradient><path d="M32.5 65C50.4 65 65 50.5 65 32.5c0-1.3 0-1.9-.1-2.6-.1-.6-.1-1.3-.2-1.7-.9-2.2-1.3 11-8.3 11-17.8 0-11.3 13.5-24.7 5-9.3-5.9-8.5 16.2-19.8 5.1S1.6 44 4.3 48.7C9.9 58.5 20.5 65 32.5 65z" fill="url(#c)"/></svg>