<svg id="图层_1" xmlns="http://www.w3.org/2000/svg" viewBox="0 0 65 65"><style>.st1{fill:#fff}</style><radialGradient id="Oval-6-Copy-3_1_" cx="-271.102" cy="455.122" r=".637" gradientTransform="matrix(0 101.8666 101.0097 0 -45955.746 27610.836)" gradientUnits="userSpaceOnUse"><stop offset="0" stop-color="#00dd8e"/><stop offset=".763" stop-color="#00b46b"/><stop offset="1" stop-color="#00bf47"/></radialGradient><ellipse id="Oval-6-Copy-3_3_" cx="32.5" cy="32.5" rx="32.5" ry="32.5" fill="url(#Oval-6-Copy-3_1_)"/><g id="XMLID_168_"><path id="XMLID_172_" class="st1" d="M47.4 37.4c-.9 0-1.7-.5-2.1-1.3-.4-.8-.4-1.7 0-2.5-1-1-2.2-1.7-3.5-2-.5.8-1.3 1.2-2.2 1.2-.9 0-1.7-.5-2.2-1.2a9.4 9.4 0 0 0-3.5 2c.4.8.4 1.8-.1 2.5-.5.8-1.3 1.2-2.2 1.2-.3 1.3-.3 2.7 0 4.1.9 0 1.7.5 2.1 1.3.4.8.5 1.7 0 2.5 1 1 2.2 1.7 3.5 2 .5-.8 1.3-1.2 2.2-1.2.9 0 1.7.5 2.2 1.2a9.4 9.4 0 0 0 3.5-2c-.4-.8-.4-1.7 0-2.5s1.3-1.3 2.1-1.3c.3-1.3.3-2.7 0-4.1h.2zm-7.9 5.3c-1.3 0-2.5-.8-3-2s-.2-2.6.7-3.6c.9-.9 2.3-1.2 3.6-.7 1.2.5 2 1.7 2 3 0 .9-.3 1.7-.9 2.3-.7.7-1.5 1-2.4 1zm7.6-25H32.5c-.4 0-.7.2-1 .4-.3.3-.4.6-.4 1 0 .3 0 .4.1.5l.4 1.2c.2.5.7.8 1.2.8H47c.8 0 1.5-.7 1.5-1.5v-1c0-.4-.1-.8-.3-1-.3-.3-.7-.4-1.1-.4zm0 0"/><path id="XMLID_169_" class="st1" d="M39.2 28.4c3.9 0 7.5 2.1 9.4 5.5v-9.3c0-.4-.1-.8-.4-1.1-.3-.3-.7-.5-1.1-.5H32.5c-.6 0-1.2-.4-1.3-.9l-.4-.8-1.1-2.5s0-.1-.1-.1c-.2-.5-.7-.8-1.2-.8H17.9c-.8 0-1.5.7-1.5 1.5v22.5c0 .4.1.8.4 1.1.3.3.7.5 1.1.5h11.4c-.5-1.3-.8-2.6-.8-4 0-2.9 1.1-5.6 3.1-7.7 2-2.2 4.7-3.4 7.6-3.4zm0 0"/></g><radialGradient id="Oval-6-Copy-4_1_" cx="-264.196" cy="464.341" r="1.151" gradientTransform="matrix(56.3191 15.2012 15.0733 -56.7969 7920.573 30442.287)" gradientUnits="userSpaceOnUse"><stop offset="0" stop-color="#00941a" stop-opacity="0"/><stop offset="1" stop-color="#00bf61" stop-opacity=".84"/></radialGradient><path id="Oval-6-Copy-4_3_" d="M32.5 65C50.4 65 65 50.5 65 32.5c0-1.3 0-1.9-.1-2.6-.1-.6-.1-1.3-.2-1.7-.9-2.2-3.4 1.1-14.5 4.3-15.9 4.6-16.2 14.9-21 17.6-9.8 5.6-10.8 0-15.9-4.1-5.6-4.6-11.8-2-9.1 2.7C9.9 58.5 20.5 65 32.5 65z" fill="url(#Oval-6-Copy-4_1_)"/><radialGradient id="Oval-6-Copy-5_1_" cx="-253.034" cy="456.932" r=".649" gradientTransform="matrix(34.6002 -46.4016 -46.0113 -34.8937 29825.727 4247.124)" gradientUnits="userSpaceOnUse"><stop offset="0" stop-color="#00f142" stop-opacity="0"/><stop offset=".986" stop-color="#00e9b5" stop-opacity=".84"/></radialGradient><path id="Oval-6-Copy-5_3_" d="M32.5 65C50.4 65 65 50.5 65 32.5c0-1.3 0-1.9-.1-2.6-.1-.6-.1-1.3-.2-1.7-.9-2.2-1.3 11-8.3 11-17.8 0-11.3 13.5-24.7 5-9.3-5.9-8.5 16.2-19.8 5.1S1.6 44 4.3 48.7C9.9 58.5 20.5 65 32.5 65z" fill="url(#Oval-6-Copy-5_1_)"/></svg>