<svg id="图层_1" xmlns="http://www.w3.org/2000/svg" viewBox="0 0 65 65"><style>.st1{fill:#fff}.st2{fill:#0776ff}</style><radialGradient id="Oval-6-Copy-6_1_" cx="-265.449" cy="451.796" r=".637" gradientTransform="matrix(0 101.8666 101.0097 0 -45619.746 27034.969)" gradientUnits="userSpaceOnUse"><stop offset="0" stop-color="#0776ff"/><stop offset=".763" stop-color="#0089fb"/><stop offset="1" stop-color="#3f81ff"/></radialGradient><ellipse id="Oval-6-Copy-6_7_" cx="32.5" cy="32.5" rx="32.5" ry="32.5" fill="url(#Oval-6-Copy-6_1_)"/><g id="XMLID_44_"><path id="XMLID_56_" class="st1" d="M49.3 40.6c0-.3 0-.5-.1-.8l1.2-1.5c-.3-.8-.7-1.5-1.2-2.2l-1.9.2c-.4-.4-1-.7-1.5-.9l-.8-1.8c-.4-.1-.9-.1-1.4-.1-.4 0-.8 0-1.1.1l-.8 1.7c-.6.2-1.1.5-1.5.9l-1.9-.2c-.5.6-1 1.4-1.3 2.2l1.1 1.6c-.1.3-.1.6-.1 1 0 .3 0 .5.1.8l-1.2 1.5c.3.8.7 1.5 1.2 2.2l1.9-.2c.4.4 1 .7 1.5.9l.7 1.8c.4.1.9.1 1.4.1.4 0 .8 0 1.1-.1l.8-1.7c.6-.2 1.1-.5 1.5-.9l1.9.2c.5-.6 1-1.4 1.3-2.2l-1.1-1.6c.2-.4.2-.7.2-1zm-2.1 0c0 1.9-1.6 3.5-3.5 3.5s-3.5-1.6-3.5-3.5 1.6-3.5 3.5-3.5 3.5 1.5 3.5 3.5zm0 0"/><path id="XMLID_60_" class="st1" d="M34.4 40.8c0-5.1 4.3-9.2 9.6-9.2h.1V20c0-1.5-1.3-2.8-2.9-2.8H19.6c-1.6 0-2.9 1.3-2.9 2.8v24.3c0 1.5 1.3 2.8 2.9 2.8l11.1-4.8c1.5.7 3 1.4 4.4 2-.5-1.1-.7-2.3-.7-3.5z"/><path id="XMLID_42_" class="st2" d="M21.3 25.1c0-.5.4-.9.9-.9h10.3c.5 0 .9.4.9.9s-.4.9-.9.9H22.2c-.5 0-.9-.4-.9-.9z"/><path id="XMLID_41_" class="st2" d="M21.3 30.8c0-.5.4-.9.9-.9h13.9c.5 0 .9.4.9.9s-.4.9-.9.9H22.2c-.5 0-.9-.4-.9-.9z"/></g><radialGradient id="Oval-6-Copy-7_1_" cx="-264.42" cy="455.347" r=".834" gradientTransform="matrix(34.3643 -47.4967 -47.0972 -34.6558 30572.576 3274.25)" gradientUnits="userSpaceOnUse"><stop offset="0" stop-color="#94adff" stop-opacity="0"/><stop offset="1" stop-color="#002dff" stop-opacity=".84"/></radialGradient><path id="Oval-6-Copy-7_7_" d="M32.5 64.8C50.4 64.8 65 50.3 65 32.4c0-1.3 0-1.9-.1-2.6-.1-.6-.1-1.3-.2-1.7-.9-2.2-3.4 1.1-14.5 4.3C34.3 37 34 47.3 29.2 50c-9.8 5.6-10.8 0-15.9-4.1-5.6-4.6-11.8-2-9.1 2.7 5.7 9.7 16.3 16.2 28.3 16.2z" fill="url(#Oval-6-Copy-7_1_)"/><radialGradient id="Oval-6-Copy-8_1_" cx="-264.469" cy="455.635" r=".649" gradientTransform="matrix(34.6002 -46.4016 -46.0113 -34.8937 30161.727 3671.258)" gradientUnits="userSpaceOnUse"><stop offset="0" stop-color="#032aff" stop-opacity="0"/><stop offset="1" stop-color="#00bbfb" stop-opacity=".84"/></radialGradient><path id="Oval-6-Copy-8_7_" d="M32.5 65C50.4 65 65 50.5 65 32.5c0-1.3 0-1.9-.1-2.6-.1-.6-.1-1.3-.2-1.7-.9-2.2-1.3 11-8.3 11-17.8 0-11.3 13.5-24.7 5-9.3-5.9-8.5 16.2-19.8 5.1S1.6 44 4.3 48.7C9.9 58.5 20.5 65 32.5 65z" fill="url(#Oval-6-Copy-8_1_)"/></svg>