<svg id="图层_1" xmlns="http://www.w3.org/2000/svg" viewBox="0 0 65 65"><style>.st1{fill:#fff}.st2{fill:#f95625}</style><radialGradient id="Oval-6-Copy-6_1_" cx="-265.449" cy="450.132" r=".637" gradientTransform="matrix(0 101.8666 101.0097 0 -45451.746 27034.967)" gradientUnits="userSpaceOnUse"><stop offset="0" stop-color="#f95625"/><stop offset=".763" stop-color="#fb4a29"/><stop offset="1" stop-color="#e9005b"/></radialGradient><ellipse id="Oval-6-Copy-6_6_" cx="32.5" cy="32.5" rx="32.5" ry="32.5" fill="url(#Oval-6-Copy-6_1_)"/><g id="XMLID_93_"><path id="XMLID_39_" class="st1" d="M44.7 40.4h-25c-1.3 0-2.3-1-2.3-2.3V18.8c0-1.3 1-2.3 2.3-2.3h25c1.3 0 2.3 1 2.3 2.3v19.3c0 1.3-1 2.3-2.3 2.3z"/><path id="XMLID_45_" class="st1" d="M42.1 45.8H22.4c-.3 0-.5-.2-.5-.5v-1c0-.3.2-.5.5-.5h19.7c.3 0 .5.2.5.5v1c0 .2-.3.5-.5.5z"/><path id="XMLID_63_" class="st2" d="M33.4 27.9c0-.2 0-.5-.1-.7l1-1.4c-.2-.7-.6-1.4-1.1-1.9l-1.7.2c-.4-.3-.9-.6-1.3-.8l-.7-1.6c-.4-.1-.8-.1-1.2-.1-.3 0-.7 0-1 .1l-.7 1.6c-.5.2-1 .4-1.4.8l-1.7-.2c-.5.6-.9 1.2-1.1 1.9l1 1.4c0 .3-.1.6-.1.9 0 .2 0 .5.1.7l-1 1.4c.2.7.6 1.4 1.1 1.9l1.7-.2c.4.3.9.6 1.3.8l.7 1.6c.4.1.8.1 1.2.1.3 0 .7 0 1-.1l.7-1.6c.5-.2 1-.4 1.4-.8l1.7.2c.5-.6.9-1.2 1.1-1.9l-1-1.4c.1-.3.1-.6.1-.9zm-1.9 0c0 1.9-1.7 3.4-3.7 3.1-1.3-.2-2.3-1.3-2.5-2.5-.3-2 1.2-3.7 3.1-3.7 1.7 0 3.1 1.4 3.1 3.1zm0 0"/><path id="XMLID_54_" class="st2" d="M41.3 31.6v-.4l.6-.8c-.1-.4-.4-.8-.6-1.1l-1 .1c-.2-.2-.5-.3-.8-.5l-.4-.9c-.2 0-.5-.1-.7-.1h-.6l-.4.9c-.3.1-.5.3-.8.4l-1-.1c-.3.3-.5.7-.7 1.1l.6.8v.9l-.5.9c.1.4.4.8.6 1.1l1-.1c.2.2.5.3.8.5l.4.9c.2 0 .5.1.7.1h.6l.4-.9c.3-.1.5-.3.8-.4l1 .1c.3-.3.5-.7.7-1.1l-.6-.8c-.1-.3-.1-.5-.1-.6zm-1.1 0c0 1.1-1 2-2.1 1.8-.7-.1-1.3-.7-1.4-1.4-.2-1.1.7-2.1 1.8-2.1.9-.1 1.7.7 1.7 1.7zm0 0"/></g><radialGradient id="Oval-6-Copy-7_1_" cx="-266.118" cy="457.675" r=".834" gradientTransform="matrix(34.3643 -47.4967 -47.0972 -34.6558 30740.576 3274.248)" gradientUnits="userSpaceOnUse"><stop offset="0" stop-color="#bf2a00" stop-opacity="0"/><stop offset="1" stop-color="#ff5a3f" stop-opacity=".84"/></radialGradient><path id="Oval-6-Copy-7_6_" d="M32.5 64.8C50.4 64.8 65 50.3 65 32.4c0-1.3 0-1.9-.1-2.6-.1-.6-.1-1.3-.2-1.7-.9-2.2-3.4 1.1-14.5 4.3C34.3 37 34 47.3 29.2 50c-9.8 5.6-10.8 0-15.9-4.1-5.6-4.6-11.8-2-9.1 2.7 5.7 9.7 16.3 16.2 28.3 16.2z" fill="url(#Oval-6-Copy-7_1_)"/><radialGradient id="Oval-6-Copy-8_1_" cx="-270.027" cy="452.835" r=".913" gradientTransform="matrix(55.721 14.5928 14.4701 -56.1937 8540.337 29431.195)" gradientUnits="userSpaceOnUse"><stop offset="0" stop-color="#ff8415" stop-opacity="0"/><stop offset="1" stop-color="#ff94a0" stop-opacity=".84"/></radialGradient><path id="Oval-6-Copy-8_6_" d="M32.5 65C50.4 65 65 50.5 65 32.5c0-1.3 0-1.9-.1-2.6-.1-.6-.1-1.3-.2-1.7-.9-2.2-1.3 11-8.3 11-17.8 0-11.3 13.5-24.7 5-9.3-5.9-8.5 16.2-19.8 5.1S1.6 44 4.3 48.7C9.9 58.5 20.5 65 32.5 65z" fill="url(#Oval-6-Copy-8_1_)"/></svg>