<svg id="图层_1" xmlns="http://www.w3.org/2000/svg" viewBox="0 0 65 65"><style>.st4{fill:#fb4a29}</style><radialGradient id="Oval-6-Copy-6_1_" cx="-265.449" cy="450.132" r=".637" gradientTransform="matrix(0 101.8666 101.0097 0 -45451.746 27034.967)" gradientUnits="userSpaceOnUse"><stop offset="0" stop-color="#f95625"/><stop offset=".763" stop-color="#fb4a29"/><stop offset="1" stop-color="#e9005b"/></radialGradient><ellipse id="Oval-6-Copy-6_58_" cx="32.5" cy="32.5" rx="32.5" ry="32.5" fill="url(#Oval-6-Copy-6_1_)"/><path id="XMLID_94_" d="M43.8 17.5H20.2c-1.2 0-2.2 1-2.2 2.1v25.6c0 1.2 1 2.1 2.2 2.1h23.5c1.2 0 2.2-1 2.2-2.1V19.6c0-1.2-.9-2.1-2.1-2.1M36 38.2c0-.2.1-.4.1-.6 0-.2 0-.4-.1-.6l.8-.7c.1-.1.2-.3.1-.4l-.8-1.3c-.1-.1-.3-.2-.4-.2l-1.1.3c-.4-.3-.8-.5-1.2-.6l-.2-1c0-.2-.2-.3-.4-.3h-1.6c-.2 0-.3.1-.4.3l-.2 1-1.2.6-1.1-.3c-.2 0-.3 0-.4.2l-.8 1.3c-.1.1-.1.3.1.4l.8.7c0 .2-.1.4-.1.6 0 .2 0 .4.1.6l-.8.7c-.2.1-.2.3-.1.4l.8 1.3c.1.1.3.2.4.2l1.1-.3c.4.3.8.5 1.2.6l.2 1c0 .2.2.3.4.3h1.6c.2 0 .3-.1.4-.3l.2-1 1.2-.6 1.1.3c.2 0 .3 0 .4-.2l.8-1.3c.1-.1.1-.3-.1-.4l-.8-.7zm-3.8-2.3c1 0 1.9.8 1.9 1.8s-.8 1.8-1.9 1.8c-1 0-1.9-.8-1.9-1.8s.9-1.8 1.9-1.8z" fill-rule="evenodd" clip-rule="evenodd" fill="#fff"/><radialGradient id="Oval-6-Copy-7_1_" cx="-266.118" cy="457.675" r=".834" gradientTransform="matrix(34.3643 -47.4967 -47.0972 -34.6558 30740.576 3274.248)" gradientUnits="userSpaceOnUse"><stop offset="0" stop-color="#bf2a00" stop-opacity="0"/><stop offset="1" stop-color="#ff5a3f" stop-opacity=".84"/></radialGradient><path id="Oval-6-Copy-7_58_" d="M32.5 64.8C50.4 64.8 65 50.3 65 32.4c0-1.3 0-1.9-.1-2.6-.1-.6-.1-1.3-.2-1.7-.9-2.2-3.4 1.1-14.5 4.3C34.3 37 34 47.3 29.2 50c-9.8 5.6-10.8 0-15.9-4.1-5.6-4.6-11.8-2-9.1 2.7 5.7 9.7 16.3 16.2 28.3 16.2z" fill="url(#Oval-6-Copy-7_1_)"/><radialGradient id="Oval-6-Copy-8_1_" cx="-270.027" cy="452.835" r=".913" gradientTransform="matrix(55.721 14.5928 14.4701 -56.1937 8540.337 29431.195)" gradientUnits="userSpaceOnUse"><stop offset="0" stop-color="#ff8415" stop-opacity="0"/><stop offset="1" stop-color="#ff94a0" stop-opacity=".84"/></radialGradient><path id="Oval-6-Copy-8_58_" d="M32.5 65C50.4 65 65 50.5 65 32.5c0-1.3 0-1.9-.1-2.6-.1-.6-.1-1.3-.2-1.7-.9-2.2-1.3 11-8.3 11-17.8 0-11.3 13.5-24.7 5-9.3-5.9-8.5 16.2-19.8 5.1S1.6 44 4.3 48.7C9.9 58.5 20.5 65 32.5 65z" fill="url(#Oval-6-Copy-8_1_)"/><path id="XMLID_95_" class="st4" d="M23.1 28.8c0-.5.4-.9.9-.9h5.6c.5 0 .9.4.9.9s-.4.9-.9.9H24c-.5 0-.9-.4-.9-.9z"/><path id="XMLID_35_" class="st4" d="M23.3 23.8c0-.5.4-.9.9-.9h15.1c.5 0 .9.4.9.9s-.4.9-.9.9H24.2c-.5 0-.9-.4-.9-.9z"/></svg>