<svg id="图层_1" xmlns="http://www.w3.org/2000/svg" viewBox="0 0 65 65"><style>.st1{fill-rule:evenodd;clip-rule:evenodd;fill:#fff}</style><radialGradient id="Oval-6-Copy-6_1_" cx="-265.449" cy="448.469" r=".637" gradientTransform="matrix(0 101.8666 101.0097 0 -45283.746 27034.967)" gradientUnits="userSpaceOnUse"><stop offset="0" stop-color="#ff6907"/><stop offset=".763" stop-color="#fb9c00"/><stop offset="1" stop-color="#ffbd55"/></radialGradient><ellipse id="Oval-6-Copy-6_9_" cx="32.5" cy="32.5" rx="32.5" ry="32.5" fill="url(#Oval-6-Copy-6_1_)"/><g id="XMLID_147_"><path id="XMLID_148_" class="st1" d="M36.4 33.6c-2 0-3.5 1.6-3.5 3.5 0 2 1.6 3.5 3.5 3.5s3.5-1.6 3.5-3.5c.1-2-1.5-3.5-3.5-3.5z"/><path id="XMLID_149_" class="st1" d="M44.5 17.8h-24c-1.5 0-2.7 1.2-2.7 2.7v23.9c0 1.5 1.2 2.7 2.7 2.7h23.9c1.5 0 2.7-1.2 2.7-2.7v-24c0-1.4-1.2-2.6-2.6-2.6zM25.3 29.4c-.7 0-1.3-.6-1.3-1.3 0-.6.5-1.1 1.1-1.2v-1.3h-3.4v1.3c.6.1 1.1.6 1.1 1.2 0 .7-.6 1.3-1.3 1.3-.7 0-1.3-.6-1.3-1.3 0-.6.4-1.1 1-1.2V25.2H25v-1.6c-.9-.1-1.7-.9-1.7-1.9 0-1 .8-1.9 1.9-1.9 1 0 1.9.8 1.9 1.9 0 1-.7 1.8-1.7 1.9v1.6h4.2v1.6c.6.1 1.1.6 1.1 1.3 0 .7-.6 1.3-1.3 1.3-.7 0-1.3-.6-1.3-1.3 0-.6.4-1.1 1-1.2v-1.3h-3.8v1.3c.6.1 1 .6 1 1.2.2.8-.3 1.3-1 1.3zm19.9 8.9c-.1.4-.4.8-.8.9l-.3.1c-.7.2-1.3.7-1.7 1.3-.4.7-.5 1.4-.3 2.1l.1.3c.1.4 0 .9-.3 1.1 0 0-.3.2-1 .7-.8.4-1.1.6-1.1.6-.4.1-.9 0-1.2-.3l-.2-.2c-.5-.5-1.2-.8-2-.8s-1.5.3-2 .8l-.1.1c-.3.3-.8.4-1.2.3 0 0-.3-.1-1.1-.6-.8-.4-1-.7-1-.7-.3-.3-.5-.8-.3-1.1l.1-.3c.2-.7.1-1.4-.3-2.1-.4-.7-1-1.1-1.7-1.3l-.3-.1c-.4-.1-.8-.5-.8-.9 0 0-.1-.3-.1-1.2 0-.9.1-1.2.1-1.2.1-.4.4-.8.8-.9l.3-.1c.7-.2 1.3-.7 1.7-1.3.4-.7.5-1.4.3-2.1l-.1-.3c-.1-.4 0-.9.3-1.1 0 0 .3-.2 1-.7.8-.4 1.1-.6 1.1-.6.4-.1.9 0 1.2.3l.2.2c.5.5 1.2.8 2 .8s1.5-.3 2-.8l.2-.2c.3-.3.8-.4 1.2-.3 0 0 .3.1 1.1.6.8.4 1 .7 1 .7.3.3.5.8.3 1.1l-.1.3c-.2.7-.1 1.4.3 2.1.4.7 1 1.1 1.7 1.3l.3.1c.4.1.8.5.8.9 0 0 .1.3.1 1.2-.1 1-.2 1.3-.2 1.3z"/></g><radialGradient id="Oval-6-Copy-7_1_" cx="-267.817" cy="460.002" r=".834" gradientTransform="matrix(34.3643 -47.4967 -47.0972 -34.6558 30908.576 3274.248)" gradientUnits="userSpaceOnUse"><stop offset="0" stop-color="#ff9203" stop-opacity="0"/><stop offset="1" stop-color="#d48200" stop-opacity=".84"/></radialGradient><path id="Oval-6-Copy-7_10_" d="M32.5 64.8C50.4 64.8 65 50.3 65 32.4c0-1.3 0-1.9-.1-2.6-.1-.6-.1-1.3-.2-1.7-.9-2.2-3.4 1.1-14.5 4.3C34.3 37 34 47.3 29.2 50c-9.8 5.6-10.8 0-15.9-4.1-5.6-4.6-11.8-2-9.1 2.7 5.7 9.7 16.3 16.2 28.3 16.2z" fill="url(#Oval-6-Copy-7_1_)"/><radialGradient id="Oval-6-Copy-8_1_" cx="-267.977" cy="460.3" r=".649" gradientTransform="matrix(34.6002 -46.4016 -46.0113 -34.8937 30497.727 3671.257)" gradientUnits="userSpaceOnUse"><stop offset="0" stop-color="#ffb703" stop-opacity="0"/><stop offset="1" stop-color="#ffdd6a" stop-opacity=".84"/></radialGradient><path id="Oval-6-Copy-8_10_" d="M32.5 65C50.4 65 65 50.5 65 32.5c0-1.3 0-1.9-.1-2.6-.1-.6-.1-1.3-.2-1.7-.9-2.2-1.3 11-8.3 11-17.8 0-11.3 13.5-24.7 5-9.3-5.9-8.5 16.2-19.8 5.1S1.6 44 4.3 48.7C9.9 58.5 20.5 65 32.5 65z" fill="url(#Oval-6-Copy-8_1_)"/></svg>