<?xml version="1.0" encoding="UTF-8"?>
<svg width="21px" height="21px" viewBox="0 0 21 21" version="1.1" xmlns="http://www.w3.org/2000/svg" xmlns:xlink="http://www.w3.org/1999/xlink">
    <!-- Generator: Sketch 53.2 (72643) - https://sketchapp.com -->
    <title>菜单_iuap色</title>
    <desc>Created with Sketch.</desc>
    <g id="for-NCC" stroke="none" stroke-width="1" fill="none" fill-rule="evenodd">
        <g id="单表查询-copy-5" transform="translate(-14.000000, -10.000000)">
            <g id="导航/topbar/NCstyle" transform="translate(0.000000, 1.000000)">
                <g id="菜单_iuap色" transform="translate(14.000000, 9.000000)">
                    <path d="M9.62303665,9.61256545 L4.83769634,9.61256545 C2.19895288,9.61256545 0.0523560209,7.46596859 0.0523560209,4.82722513 C0.0523560209,2.18848168 2.19895288,0.0418848168 4.83769634,0.0418848168 C7.47643979,0.0418848168 9.62303665,2.18848168 9.62303665,4.82722513 C9.62303665,4.82722513 9.62303665,9.61256545 9.62303665,9.61256545 Z" id="Path" fill="#69CD00"></path>
                    <path d="M16.1623037,9.61256545 L11.3769634,9.61256545 L11.3769634,4.90052356 L11.3769634,4.82722513 C11.3769634,2.18848168 13.5235602,0.0418848168 16.1623037,0.0418848168 C18.8010471,0.0418848168 20.947644,2.18848168 20.947644,4.82722513 C20.947644,7.46596859 18.8010471,9.61256545 16.1623037,9.61256545 Z" id="Path" fill="#0096FF"></path>
                    <path d="M16.1099476,20.8743455 C13.4712042,20.8743455 11.3246073,18.7277487 11.3246073,16.0890052 L11.3246073,11.3036649 L16.1099476,11.3036649 C18.7486911,11.3036649 20.895288,13.4502618 20.895288,16.0890052 C20.895288,18.7277487 18.7486911,20.8743455 16.1099476,20.8743455 L16.1099476,20.8743455 Z" id="Path" fill="#FFB400"></path>
                    <path d="M4.78534031,20.8743455 C2.14659686,20.8743455 0,18.7277487 0,16.0890052 C0,13.4502618 2.14659686,11.3036649 4.78534031,11.3036649 L9.57068063,11.3036649 L9.57068063,16.0890052 C9.57068063,18.7277487 7.42408377,20.8743455 4.78534031,20.8743455 Z" id="Path" fill="#E60014"></path>
                </g>
            </g>
        </g>
    </g>
</svg>