<?xml version="1.0" encoding="UTF-8"?>
<svg width="260px" height="57px" viewBox="0 0 260 57" version="1.1" xmlns="http://www.w3.org/2000/svg" xmlns:xlink="http://www.w3.org/1999/xlink">
    <!-- Generator: Sketch 52.4 (67378) - http://www.bohemiancoding.com/sketch -->
    <title>iuap应用平台logo copy</title>
    <desc>Created with Sketch.</desc>
    <g id="Page-1" stroke="none" stroke-width="1" fill="none" fill-rule="evenodd">
        <g id="iuap应用平台logo-copy">
            <g id="XMLID_599_" fill-rule="nonzero">
                <g id="XMLID_600_">
                    <g id="XMLID_644_" transform="translate(66.000000, 0.000000)" fill="#717071">
                        <path d="M3.1,5.3 C3.1,5.3 2,7.4 2,7.5 C1.9,7.7 2,7.9 2.2,7.9 L3.8,7.9 C3.8,7.9 7.5,0.6 7.6,0.5 C7.6,0.4 7.6,0.3 7.5,0.3 L6,0.3 C5.7,0.3 5.6,0.4 5.5,0.6 C5.5,0.7 4.3,2.9 4.3,2.9 C4.2,3.1 4,3.1 4,2.9 C4,2.9 3,0.8 3,0.7 C2.9,0.5 2.7,0.4 2.4,0.4 L1,0.4 C0.9,0.4 0.9,0.5 0.9,0.5 C0.9,0.5 3.1,5.3 3.1,5.3" id="XMLID_654_"></path>
                        <path d="M8.1,4.6 C8.7,5.1 9.5,5.3 10.4,5.3 C11.4,5.3 12.2,5 12.7,4.5 C13.2,4 13.5,3.3 13.5,2.7 C13.5,1.9 13.2,1.3 12.7,0.9 C12.1,0.4 11.3,0.2 10.3,0.2 C9.3,0.2 8.5,0.5 8,1 C7.5,1.5 7.2,2.2 7.2,2.8 C7.3,3.5 7.6,4.2 8.1,4.6 M9.4,2.3 C9.9,1.4 10.5,1 11.2,1.3 C11.9,1.6 12,2.3 11.4,3.3 C10.9,4.2 10.3,4.6 9.6,4.3 C9,3.9 8.9,3.2 9.4,2.3" id="XMLID_651_"></path>
                        <path d="M22.3,5.3 C22.3,5.3 21.2,7.4 21.2,7.5 C21.1,7.7 21.2,7.9 21.4,7.9 L23,7.9 C23,7.9 26.7,0.6 26.8,0.5 C26.8,0.4 26.8,0.3 26.7,0.3 L25.2,0.3 C24.9,0.3 24.8,0.4 24.7,0.6 C24.7,0.7 23.5,2.9 23.5,2.9 C23.4,3.1 23.2,3.1 23.2,2.9 C23.2,2.9 22.2,0.8 22.2,0.7 C22.1,0.5 21.9,0.4 21.6,0.4 L20.2,0.4 C20.1,0.4 20.1,0.5 20.1,0.5 C20.1,0.5 22.3,5.3 22.3,5.3" id="XMLID_650_"></path>
                        <path d="M27.3,4.6 C27.9,5.1 28.7,5.3 29.7,5.3 C30.7,5.3 31.5,5 32,4.5 C32.5,4 32.8,3.3 32.8,2.7 C32.8,1.9 32.5,1.3 32,0.9 C31.4,0.4 30.6,0.2 29.6,0.2 C28.6,0.2 27.8,0.5 27.3,1 C26.8,1.5 26.5,2.2 26.5,2.8 C26.5,3.5 26.8,4.2 27.3,4.6 M28.6,2.3 C29.1,1.4 29.7,1 30.4,1.3 C31.1,1.6 31.2,2.3 30.6,3.3 C30.1,4.2 29.5,4.6 28.8,4.3 C28.2,3.9 28.1,3.2 28.6,2.3" id="XMLID_647_"></path>
                        <path d="M14.1,5.2 L15.8,5.2 C16,5.2 16.1,5.1 16.1,4.9 L16.1,1.4 C17.3,1.1 18,1.4 18,1.9 L18,4.9 C18,5.1 18.1,5.2 18.3,5.2 L20,5.2 L20,2 C20,0.4 17.9,-0.4 14.4,0.6 C14.2,0.7 14.1,0.8 14.1,1.1 L14.1,5.2 Z" id="XMLID_646_"></path>
                        <path d="M38.9,5 C39.1,4.9 39.2,4.8 39.2,4.5 L39.2,0.4 L37.5,0.4 C37.3,0.4 37.2,0.5 37.2,0.7 L37.2,4.2 C36,4.5 35.3,4.2 35.3,3.7 L35.3,0.7 C35.3,0.5 35.2,0.4 35,0.4 L33.3,0.4 L33.3,3.6 C33.3,5.2 35.3,6 38.9,5" id="XMLID_645_"></path>
                    </g>
                    <g id="XMLID_601_" transform="translate(0.000000, 7.000000)">
                        <g id="XMLID_634_" transform="translate(79.000000, 6.000000)">
                            <g id="XMLID_640_" transform="translate(0.000000, 17.000000)">
                                <path d="M26.2,0.7 L19.1,0.7 L19.1,1.5 C19.1,7.7 17,10.7 12.7,10.6 C11.4,10.6 9.6,10.2 7.4,9.5 L7.4,0.7 L0.1,0.7 L0.1,27 L1.1,27 C1.2,27 1.3,27 1.4,27 L1.5,27 C2.4,27 3.8,26.9 4.8,26.4 C7,25.3 7.5,24.2 7.5,19.7 L7.5,15.6 C9.6,16.2 11.3,16.5 12.8,16.5 C22,16.6 26.5,11.6 26.3,1.4 L26.3,0.7 L26.2,0.7 Z" id="XMLID_643_" fill="#D61519"></path>
                                <path d="M12.7,10.6 C11.4,10.6 9.6,10.2 7.4,9.5 L7.4,4 C5.1,5.3 2.6,5.9 0.1,6.5 L0.1,15.6 C2.6,17.4 5.1,19.2 7.4,21.2 L7.4,15.7 C9.5,16.3 11.2,16.6 12.7,16.6 C16.5,16.7 19.5,15.8 21.7,14.1 C20.1,12.5 18.6,10.8 17,9.1 C15.9,10.2 14.5,10.7 12.7,10.6 Z" id="XMLID_642_" fill="#E60014"></path>
                                <path d="M26.2,0.7 L19.1,0.7 L19.1,1.5 C19.1,2.6 19,3.7 18.9,4.6 C21.3,4.5 23.7,4.5 26.1,4.5 C26.2,3.6 26.2,2.6 26.2,1.5 L26.2,0.7 Z" id="XMLID_641_" fill="#E60014"></path>
                            </g>
                            <g id="XMLID_638_" fill="#0096FF">
                                <path d="M14.5,0.8 C11.8,0.8 9.4,1.5 7.2,2.8 L7.2,2.6 L7.2,0.9 L5.7,0.9 C4.8,0.9 3.7,1.1 2.8,1.5 C0.7,2.6 0.2,3.6 0.1,7.8 L0.1,9.6 L0.1,10.6 L0.1,17 L7.4,17 L7.4,9.4 C9.6,8.1 11.8,7.4 13.8,7.4 C16.6,7.3 18.3,8.9 18.9,12.4 L24.4,6.2 C22.5,2.7 19.2,0.9 14.5,0.8 Z" id="XMLID_639_"></path>
                            </g>
                            <g id="XMLID_636_" transform="translate(18.000000, 6.000000)" fill="#69CD00">
                                <path d="M6.3,0.2 L0.8,6.4 C1,7.3 1,8.4 1,9.6 L1,11 L8.1,11 L8.1,9.6 C8.2,5.7 7.6,2.6 6.3,0.2 Z" id="XMLID_637_"></path>
                            </g>
                            <path d="M5.6,0.9 C4.7,0.9 3.6,1.1 2.7,1.5 C0.6,2.6 0.1,3.6 0,7.8 L0,10.6 L7.1,2.6 L7.1,0.9 L5.6,0.9 Z" id="XMLID_635_" fill="#FFB400"></path>
                        </g>
                        <path d="M64.9,7.3 C64.6,7.2 64.4,7.2 64.1,7.1 L63.2,6.9 C62.9,6.9 61.3,6.7 61.2,6.7 C61,6.7 59.6,6.7 59.3,6.7 C57.5,6.7 55.8,6.8 54.3,6.9 C53.3,7.1 52,7.3 51.2,7.6 C49.7,8.3 48.7,9.5 48.6,14 C49,13.9 49.9,13.8 50,13.8 C50.7,13.7 51.4,13.6 52,13.5 C52.6,13.4 53.3,13.4 53.9,13.3 C55.6,13.2 57.2,13.1 58.8,13.1 C59.1,13.1 60.2,13.1 60.2,13.1 C60.6,13.1 61,13.2 61.4,13.3 C63.7,13.8 64.8,15.5 64.6,18.3 L64.6,19.2 L61.5,19.2 C55.1,18.9 50.8,20.2 48.6,23 L72,23 L72,18.3 C72.3,12.3 70,8.6 64.9,7.3 Z" id="XMLID_633_" fill="#FFB400"></path>
                        <g id="XMLID_631_" transform="translate(0.000000, 23.000000)" fill="#D61519">
                            <path d="M0.5,0.7 L0.5,16.7 C0.5,16.7 3.2,17 4.9,16.1 C7.2,15 7.6,13.8 7.6,9 L7.6,0.7 L0.5,0.7 Z" id="XMLID_632_"></path>
                        </g>
                        <path d="M3.4,1.5 C1.4,2.5 0.6,4.3 0.6,9.3 C0.6,9.3 1.6,8.3 3.2,7.7 C4.3,7.3 5.2,6.7 5.8,6.3 C7.5,5 7.8,3.5 7.8,0.8 C7.6,0.8 4.9,0.6 3.4,1.5 Z" id="XMLID_630_" fill="#69CD00"></path>
                        <path d="M59.3,6.8 C57.5,6.8 55.8,6.9 54.3,7 C53.3,7.2 52,7.4 51.2,7.7 C49.7,8.4 48.7,9.6 48.6,14.1 C52.3,13.5 55.7,13.2 58.8,13.2 C59.8,13.1 60.7,13.2 61.4,13.3 L66.3,7.7 C64.6,7 62.2,6.7 59.3,6.8 Z" id="XMLID_629_" fill="#69CD00"></path>
                        <path d="M20.9,6.8 C20.8,6.8 20.7,6.8 20.6,6.8 L20.5,6.8 C19.6,6.8 18.2,6.9 17.3,7.4 C15,8.5 14.6,9.7 14.6,14.5 L14.6,15.2 L14.6,20.3 L21.7,12.3 L21.7,6.8 L20.9,6.8 Z" id="XMLID_628_" fill="#FFB400"></path>
                        <polygon id="XMLID_627_" fill="#FFFFFF" points="98.2 23 105.3 23 105.3 23.7 98.2 23.7"></polygon>
                        <polygon id="XMLID_626_" fill="#FFFFFF" points="79.1 23 86.4 23 86.4 23.7 79.1 23.7"></polygon>
                        <g id="XMLID_624_" transform="translate(48.000000, 19.000000)" fill="#69CD00">
                            <path d="M4.9,4 L8.1,0.4 C4.6,0.9 2.1,2.1 0.6,4 L4.9,4 Z" id="XMLID_625_"></path>
                        </g>
                        <polygon id="XMLID_623_" fill="#FFFFFF" points="33.4 23 40.7 23 40.7 23.7 33.4 23.7"></polygon>
                        <g id="XMLID_621_" transform="translate(33.000000, 11.000000)" fill="#69CD00">
                            <polygon id="XMLID_622_" points="7.7 12 7.7 0.5 0.4 5.6 0.4 12"></polygon>
                        </g>
                        <polygon id="XMLID_620_" fill="#FFFFFF" points="14.5 23 21.6 23 21.6 23.7 14.5 23.7"></polygon>
                        <path d="M0.5,23.7 L0.5,29.4 C2.9,29.6 5.2,29.7 7.6,29.6 L7.6,23.7 L0.5,23.7 Z" id="XMLID_619_" fill="#E60014"></path>
                        <polygon id="XMLID_618_" fill="#FFFFFF" points="0.5 23 7.6 23 7.6 23.7 0.5 23.7"></polygon>
                        <g id="XMLID_612_" transform="translate(46.000000, 23.000000)">
                            <path d="M0.7,6.4 L0.7,7.5 C0.9,13.6 4.1,16.6 10.9,16.6 C13.6,16.6 16.2,16 18.9,14.8 L18.9,16.6 L26,16.6 L26,0.6 L2.2,0.6 C1.2,2.2 0.7,4.1 0.7,6.4 Z M15.5,2.2 L18.6,2.2 L18.6,9.1 C16.8,10.3 14.5,10.9 11.7,10.9 C9.2,10.9 8,9.9 7.8,8 L7.8,6.5 C7.8,3.4 10.2,2.1 15.5,2.2 Z" id="XMLID_615_" fill="#D61519"></path>
                            <path d="M8.1,9 C5.9,6.7 3.5,4.7 1.2,2.8 C0.9,3.9 0.7,5.1 0.7,6.4 L0.7,7.5 C0.9,13.6 4.1,16.6 10.9,16.6 C11.9,16.6 13,16.5 14,16.3 C12.6,14.2 11.1,12.2 9.4,10.4 C8.8,10.1 8.4,9.7 8.1,9 Z" id="XMLID_614_" fill="#E60014"></path>
                            <path d="M23.8,0.7 C22.1,5.5 20.3,10.4 18.3,15.1 C18.5,15 18.7,14.9 18.9,14.8 L18.9,16.6 L20.4,16.6 C21.3,16.6 22.4,16.4 23.3,16 C25.4,15 25.9,13.9 26,10.1 L26,0.6 L23.8,0.6 L23.8,0.7 Z" id="XMLID_613_" fill="#E60014"></path>
                        </g>
                        <path d="M7.6,23 L7.6,8.2 L7.6,6.6 C7.6,6.6 6.9,7.6 5.5,8.4 C4.5,9 3.7,9.3 2.7,9.8 C1,10.7 0.6,11.5 0.6,12.8 L0.6,13.2 L0.6,15.3 L0.6,15.7 L0.6,22.9 L7.6,22.9 L7.6,23 Z" id="XMLID_611_" fill="#FFB400"></path>
                        <g id="XMLID_609_" transform="translate(14.000000, 10.000000)" fill="#69CD00">
                            <polygon id="XMLID_610_" points="7.6 13 7.6 0.7 0.5 6.8 0.5 13"></polygon>
                        </g>
                        <path d="M38.9,6.8 C38,6.8 36.9,7 36.1,7.4 C33.8,8.5 33.4,9.7 33.4,14.5 L33.4,15.2 L33.4,22.1 L40.7,13.8 L40.7,6.8 L38.9,6.8 Z" id="XMLID_608_" fill="#0096FF"></path>
                        <path d="M20.9,6.8 C20.8,6.8 20.7,6.8 20.6,6.8 L20.5,6.8 C19.6,6.8 18.2,6.9 17.3,7.4 C15,8.5 14.6,9.7 14.6,14.5 L14.6,15.2 L14.6,20.3 L21.7,12.3 L21.7,6.8 L20.9,6.8 Z" id="XMLID_607_" fill="#FFB400"></path>
                        <g id="XMLID_603_" transform="translate(14.000000, 23.000000)">
                            <path d="M19.4,0.7 L19.4,8 C16.7,9.6 14.2,10.4 11.9,10.4 C9.1,10.4 7.7,8.4 7.7,4.4 L7.7,0.7 L0.6,0.7 L0.6,4.4 C0.5,12.7 3.9,16.7 10.8,16.6 C13.9,16.6 16.8,15.9 19.5,14.6 L19.5,16.6 L20.5,16.6 C21.4,16.6 23,16.6 24.2,16 C26.5,14.9 26.9,13.7 26.9,8.9 L26.9,8.2 L26.9,0.6 L19.4,0.6 L19.4,0.7 Z" id="XMLID_606_" fill="#D61519"></path>
                            <path d="M0.5,0.7 L0.5,4.4 C0.5,4.9 0.5,5.4 0.5,5.9 C2.9,5.5 5.3,4.9 7.6,4.2 L7.6,0.7 L0.5,0.7 Z" id="XMLID_605_" fill="#E60014"></path>
                            <path d="M19.4,0.7 L19.4,8 C16.7,9.6 14.2,10.4 11.9,10.4 C10.6,10.4 9.7,10 9,9.2 C7.6,11.2 6,13.1 4.5,15 C6.1,16.2 8.2,16.7 10.9,16.6 C12.6,16.6 14.2,16.4 15.8,16 C18.7,12 22.4,8.4 26.2,5.4 C26.4,5.3 26.6,5.2 26.9,5.1 L26.9,0.6 L19.4,0.6 L19.4,0.7 Z" id="XMLID_604_" fill="#E60014"></path>
                        </g>
                        <path d="M72,23 L48.7,23 C48.5,23.2 48.4,23.5 48.2,23.7 L72,23.7 L72,23 Z" id="XMLID_602_" fill="#FFFFFF"></path>
                    </g>
                </g>
            </g>
            <g id="XMLID_536_" transform="translate(121.000000, 13.000000)" fill="#63696B">
                <path d="M9.485,33.45 L6.3,31.455 C8.015,30.02 9.24,27.675 9.87,25.435 L13.23,26.66 C12.495,29.145 11.41,31.77 9.485,33.45 Z M13.265,7.2 L15.715,7.97 C15.12,9.09 14.49,10.28 13.72,11.365 L13.72,13.465 C15.4,11.715 16.905,9.475 17.885,7.2 L13.265,7.2 Z M7.35,7.2 L7.35,13.57 C9.275,11.785 11.095,9.51 12.215,7.2 L7.35,7.2 Z M20.37,10 L24.22,10 C23.87,9.3 23.38,8.565 22.925,7.935 L24.955,7.2 L19.425,7.2 L21.455,7.76 C21.14,8.53 20.755,9.23 20.37,10 Z M23.765,13.64 L23.765,12.415 L19.6,12.415 L19.6,13.64 L23.765,13.64 Z M23.765,17 L23.765,15.67 L19.6,15.67 L19.6,17 L23.765,17 Z M23.765,20.395 L23.765,18.995 L19.6,18.995 L19.6,20.395 L23.765,20.395 Z M16.17,23.93 L16.17,15.985 C15.96,16.23 15.715,16.475 15.505,16.685 C15.12,16.23 14.42,15.565 13.72,15.04 L13.72,23.93 L10.255,23.93 L10.255,15.705 C9.73,16.23 9.17,16.755 8.68,17.21 C8.4,16.86 7.875,16.3 7.35,15.74 C7.245,21.375 6.58,29.075 3.955,34.08 C3.29,33.345 1.645,32.085 0.805,31.665 C3.36,26.625 3.535,19.24 3.535,14.06 L3.535,3.805 L16.87,3.805 C16.555,3.105 16.17,2.405 15.785,1.845 L19.495,0.795 C20.16,1.67 20.79,2.79 21.28,3.805 L33.425,3.805 L33.425,7.2 L26.145,7.2 C26.775,8.005 27.37,8.915 27.685,9.615 L26.775,10 L32.515,10 L32.515,12.415 L27.23,12.415 L27.23,13.64 L31.605,13.64 L31.605,15.67 L27.23,15.67 L27.23,17 L31.64,17 L31.64,18.995 L27.23,18.995 L27.23,20.395 L32.935,20.395 L32.935,22.915 L20.23,22.915 C22.085,23.79 24.255,25.085 25.445,26.17 L22.855,28.585 C21.77,27.465 19.425,25.89 17.5,24.945 L18.55,23.93 L16.17,23.93 Z M19.6,30.58 L23.135,30.58 C24.08,30.58 24.255,30.265 24.395,28.025 C25.13,28.55 26.705,29.11 27.685,29.355 C27.3,32.925 26.285,33.835 23.52,33.835 L19.075,33.835 C15.295,33.835 14.42,32.82 14.42,29.67 L14.42,25.855 L18.2,25.855 L18.2,29.6 C18.2,30.475 18.41,30.58 19.6,30.58 Z M26.145,26.555 L29.19,25.05 C31.01,27.08 33.005,29.775 33.81,31.735 L30.485,33.345 C29.82,31.455 27.895,28.585 26.145,26.555 Z M54.95,19.905 L62.335,19.905 L62.335,15.6 L54.95,15.6 L54.95,19.905 Z M44.065,19.905 L50.75,19.905 L50.75,15.6 L44.17,15.6 L44.17,16.23 C44.17,17.35 44.135,18.61 44.065,19.905 Z M50.75,7.655 L44.17,7.655 L44.17,11.715 L50.75,11.715 L50.75,7.655 Z M62.335,11.715 L62.335,7.655 L54.95,7.655 L54.95,11.715 L62.335,11.715 Z M66.465,3.7 L66.465,29.11 C66.465,31.35 65.975,32.47 64.575,33.1 C63.14,33.8 61.005,33.87 57.855,33.835 C57.715,32.715 57.05,30.93 56.525,29.845 C58.485,29.95 60.795,29.915 61.425,29.915 C62.09,29.915 62.335,29.705 62.335,29.075 L62.335,23.825 L54.95,23.825 L54.95,33.59 L50.75,33.59 L50.75,23.825 L43.61,23.825 C42.98,27.64 41.72,31.49 39.2,34.22 C38.535,33.45 36.855,32.015 35.91,31.525 C39.725,27.325 40.04,21.095 40.04,16.195 L40.04,3.7 L66.465,3.7 Z M103.425,18.26 L103.425,22.495 L89.67,22.495 L89.67,34.045 L85.33,34.045 L85.33,22.495 L71.715,22.495 L71.715,18.26 L85.33,18.26 L85.33,7.655 L73.535,7.655 L73.535,3.525 L101.395,3.525 L101.395,7.655 L89.67,7.655 L89.67,18.26 L103.425,18.26 Z M75.67,9.895 L79.485,8.775 C80.64,11.015 81.9,13.955 82.285,15.915 L78.225,17.175 C77.875,15.32 76.79,12.24 75.67,9.895 Z M96.11,17.105 L92.47,16.055 C93.59,14.025 94.85,10.945 95.515,8.67 L99.96,9.79 C98.7,12.485 97.265,15.32 96.11,17.105 Z M124.495,25.82 L124.495,26.94 L132.335,26.94 C131.915,26.555 131.355,26.1 130.76,25.645 L124.495,25.82 Z M125.895,22.355 L120.365,22.355 C119.56,22.845 118.79,23.3 118.02,23.685 L127.61,23.545 C126.945,23.16 126.28,22.81 125.72,22.495 L125.895,22.355 Z M124.495,29.39 L124.495,30.51 L137.83,30.51 L137.83,33.31 L107.31,33.31 L107.31,30.51 L120.295,30.51 L120.295,29.39 L110.705,29.39 L110.705,26.94 L120.295,26.94 L120.295,25.925 C114.31,26.065 113.26,26.17 112.49,26.415 C112.35,25.855 111.93,24.56 111.65,23.825 C112.175,23.755 112.84,23.615 113.47,23.37 C113.89,23.23 114.8,22.88 115.85,22.355 L111.09,22.355 L111.09,21.76 L107.45,21.76 L107.45,16.545 L137.62,16.545 L137.62,21.76 L133.7,21.76 L133.7,19.135 L111.16,19.135 L111.16,20.15 L133.56,20.15 L133.56,22.355 L131.075,22.355 C132.615,23.265 134.015,24.28 134.96,25.05 L132.685,26.94 L134.75,26.94 L134.75,29.39 L124.495,29.39 Z M130.025,13.5 L130.025,12.275 L114.975,12.275 L114.975,13.5 L130.025,13.5 Z M111.16,10.245 L134.12,10.245 L134.12,15.53 L111.16,15.53 L111.16,10.245 Z M124.495,3.105 L138.04,3.105 L138.04,5.66 L124.495,5.66 L124.495,6.815 L135.205,6.815 L135.205,9.23 L109.9,9.23 L109.9,6.815 L120.295,6.815 L120.295,5.66 L107.065,5.66 L107.065,3.105 L120.295,3.105 L120.295,1.355 L124.495,1.355 L124.495,3.105 Z" id="應用平臺"></path>
            </g>
        </g>
    </g>
</svg>