<?xml version="1.0" encoding="utf-8"?>
<!-- Generator: Adobe Illustrator 19.0.0, SVG Export Plug-In . SVG Version: 6.00 Build 0)  -->
<svg version="1.1" id="图层_1" xmlns="http://www.w3.org/2000/svg" xmlns:xlink="http://www.w3.org/1999/xlink" x="0px" y="0px"
	 viewBox="106 385.9 277 70" style="enable-background:new 106 385.9 277 70;" xml:space="preserve">
<style type="text/css">
	.st0{fill:#717071;}
	.st1{fill:#D61519;}
	.st2{fill:#E60014;}
	.st3{fill:#0096FF;}
	.st4{fill:#69CD00;}
	.st5{fill:#FFB400;}
	.st6{fill:#FFFFFF;}
	.st7{fill:#63696B;}
</style>
<g id="XMLID_538_">
	<g id="XMLID_599_">
		<g id="XMLID_600_">
			<g id="XMLID_644_">
				<path id="XMLID_654_" class="st0" d="M183.1,398.3c0,0-1.1,2.1-1.1,2.2c-0.1,0.2,0,0.4,0.2,0.4h1.6c0,0,3.7-7.3,3.8-7.4
					c0-0.1,0-0.2-0.1-0.2H186c-0.3,0-0.4,0.1-0.5,0.3c0,0.1-1.2,2.3-1.2,2.3c-0.1,0.2-0.3,0.2-0.3,0c0,0-1-2.1-1-2.2
					c-0.1-0.2-0.3-0.3-0.6-0.3H181c-0.1,0-0.1,0.1-0.1,0.1C180.9,393.5,183.1,398.3,183.1,398.3"/>
				<path id="XMLID_651_" class="st0" d="M188.1,397.6c0.6,0.5,1.4,0.7,2.3,0.7c1,0,1.8-0.3,2.3-0.8s0.8-1.2,0.8-1.8
					c0-0.8-0.3-1.4-0.8-1.8c-0.6-0.5-1.4-0.7-2.4-0.7s-1.8,0.3-2.3,0.8s-0.8,1.2-0.8,1.8C187.3,396.5,187.6,397.2,188.1,397.6
					 M189.4,395.3c0.5-0.9,1.1-1.3,1.8-1s0.8,1,0.2,2c-0.5,0.9-1.1,1.3-1.8,1C189,396.9,188.9,396.2,189.4,395.3"/>
				<path id="XMLID_650_" class="st0" d="M202.3,398.3c0,0-1.1,2.1-1.1,2.2c-0.1,0.2,0,0.4,0.2,0.4h1.6c0,0,3.7-7.3,3.8-7.4
					c0-0.1,0-0.2-0.1-0.2h-1.5c-0.3,0-0.4,0.1-0.5,0.3c0,0.1-1.2,2.3-1.2,2.3c-0.1,0.2-0.3,0.2-0.3,0c0,0-1-2.1-1-2.2
					c-0.1-0.2-0.3-0.3-0.6-0.3h-1.4c-0.1,0-0.1,0.1-0.1,0.1C200.1,393.5,202.3,398.3,202.3,398.3"/>
				<path id="XMLID_647_" class="st0" d="M207.3,397.6c0.6,0.5,1.4,0.7,2.4,0.7s1.8-0.3,2.3-0.8s0.8-1.2,0.8-1.8
					c0-0.8-0.3-1.4-0.8-1.8c-0.6-0.5-1.4-0.7-2.4-0.7s-1.8,0.3-2.3,0.8s-0.8,1.2-0.8,1.8C206.5,396.5,206.8,397.2,207.3,397.6
					 M208.6,395.3c0.5-0.9,1.1-1.3,1.8-1s0.8,1,0.2,2c-0.5,0.9-1.1,1.3-1.8,1C208.2,396.9,208.1,396.2,208.6,395.3"/>
				<path id="XMLID_646_" class="st0" d="M194.1,398.2h1.7c0.2,0,0.3-0.1,0.3-0.3v-3.5c1.2-0.3,1.9,0,1.9,0.5v3
					c0,0.2,0.1,0.3,0.3,0.3h1.7V395c0-1.6-2.1-2.4-5.6-1.4c-0.2,0.1-0.3,0.2-0.3,0.5L194.1,398.2L194.1,398.2L194.1,398.2z"/>
				<path id="XMLID_645_" class="st0" d="M218.9,398c0.2-0.1,0.3-0.2,0.3-0.5v-4.1l0,0h-1.7c-0.2,0-0.3,0.1-0.3,0.3v3.5
					c-1.2,0.3-1.9,0-1.9-0.5v-3c0-0.2-0.1-0.3-0.3-0.3h-1.7v3.2C213.3,398.2,215.3,399,218.9,398"/>
			</g>
			<g id="XMLID_601_">
				<g id="XMLID_634_">
					<g id="XMLID_640_">
						<path id="XMLID_643_" class="st1" d="M219.2,423.7h-7.1v0.8c0,6.2-2.1,9.2-6.4,9.1c-1.3,0-3.1-0.4-5.3-1.1v-8.8h-7.3V450h1
							l0,0c0.1,0,0.2,0,0.3,0h0.1c0.9,0,2.3-0.1,3.3-0.6c2.2-1.1,2.7-2.2,2.7-6.7v-4.1c2.1,0.6,3.8,0.9,5.3,0.9
							c9.2,0.1,13.7-4.9,13.5-15.1v-0.7L219.2,423.7L219.2,423.7z"/>
						<path id="XMLID_642_" class="st2" d="M205.7,433.6c-1.3,0-3.1-0.4-5.3-1.1V427c-2.3,1.3-4.8,1.9-7.3,2.5v9.1
							c2.5,1.8,5,3.6,7.3,5.6v-5.5c2.1,0.6,3.8,0.9,5.3,0.9c3.8,0.1,6.8-0.8,9-2.5c-1.6-1.6-3.1-3.3-4.7-5
							C208.9,433.2,207.5,433.7,205.7,433.6z"/>
						<path id="XMLID_641_" class="st2" d="M219.2,423.7h-7.1v0.8c0,1.1-0.1,2.2-0.2,3.1c2.4-0.1,4.8-0.1,7.2-0.1
							c0.1-0.9,0.1-1.9,0.1-3V423.7z"/>
					</g>
					<g id="XMLID_638_">
						<path id="XMLID_639_" class="st3" d="M207.5,406.8c-2.7,0-5.1,0.7-7.3,2v-0.2v-1.7h-1.5c-0.9,0-2,0.2-2.9,0.6
							c-2.1,1.1-2.6,2.1-2.7,6.3v1.8v1v6.4h7.3v-7.6c2.2-1.3,4.4-2,6.4-2c2.8-0.1,4.5,1.5,5.1,5l5.5-6.2
							C215.5,408.7,212.2,406.9,207.5,406.8z"/>
					</g>
					<g id="XMLID_636_">
						<path id="XMLID_637_" class="st4" d="M217.3,412.2l-5.5,6.2c0.2,0.9,0.2,2,0.2,3.2v1.4h7.1v-1.4
							C219.2,417.7,218.6,414.6,217.3,412.2z"/>
					</g>
					<path id="XMLID_635_" class="st5" d="M198.6,406.9c-0.9,0-2,0.2-2.9,0.6c-2.1,1.1-2.6,2.1-2.7,6.3v2.8l7.1-8v-1.7L198.6,406.9
						L198.6,406.9z"/>
				</g>
				<path id="XMLID_633_" class="st5" d="M178.9,407.3L178.9,407.3c-0.3-0.1-0.5-0.1-0.8-0.2l-0.9-0.2c-0.3,0-1.9-0.2-2-0.2
					c-0.2,0-1.6,0-1.9,0l0,0c-1.8,0-3.5,0.1-5,0.2c-1,0.2-2.3,0.4-3.1,0.7c-1.5,0.7-2.5,1.9-2.6,6.4l0,0c0.4-0.1,1.3-0.2,1.4-0.2
					c0.7-0.1,1.4-0.2,2-0.3c0.6-0.1,1.3-0.1,1.9-0.2c1.7-0.1,3.3-0.2,4.9-0.2c0.3,0,1.4,0,1.4,0c0.4,0,0.8,0.1,1.2,0.2l0,0
					c2.3,0.5,3.4,2.2,3.2,5v0.9h-3.1c-6.4-0.3-10.7,1-12.9,3.8H186v-4.7C186.3,412.3,184,408.6,178.9,407.3z"/>
				<g id="XMLID_631_">
					<path id="XMLID_632_" class="st1" d="M114.5,423.7v16c0,0,2.7,0.3,4.4-0.6c2.3-1.1,2.7-2.3,2.7-7.1v-8.3H114.5z"/>
				</g>
				<path id="XMLID_630_" class="st4" d="M117.4,401.5c-2,1-2.8,2.8-2.8,7.8c0,0,1-1,2.6-1.6c1.1-0.4,2-1,2.6-1.4
					c1.7-1.3,2-2.8,2-5.5C121.6,400.8,118.9,400.6,117.4,401.5z"/>
				<path id="XMLID_629_" class="st4" d="M173.3,406.8c-1.8,0-3.5,0.1-5,0.2c-1,0.2-2.3,0.4-3.1,0.7c-1.5,0.7-2.5,1.9-2.6,6.4
					c3.7-0.6,7.1-0.9,10.2-0.9c1-0.1,1.9,0,2.6,0.1l4.9-5.6C178.6,407,176.2,406.7,173.3,406.8z"/>
				<path id="XMLID_628_" class="st5" d="M134.9,406.8L134.9,406.8c-0.1,0-0.2,0-0.3,0h-0.1c-0.9,0-2.3,0.1-3.2,0.6
					c-2.3,1.1-2.7,2.3-2.7,7.1v0.7l0,0v5.1l7.1-8v-5.5L134.9,406.8L134.9,406.8z"/>
				<rect id="XMLID_627_" x="212.2" y="423" class="st6" width="7.1" height="0.7"/>
				<rect id="XMLID_626_" x="193.1" y="423" class="st6" width="7.3" height="0.7"/>
				<g id="XMLID_624_">
					<path id="XMLID_625_" class="st4" d="M166.9,423l3.2-3.6c-3.5,0.5-6,1.7-7.5,3.6H166.9z"/>
				</g>
				<rect id="XMLID_623_" x="147.4" y="423" class="st6" width="7.3" height="0.7"/>
				<g id="XMLID_621_">
					<polygon id="XMLID_622_" class="st4" points="154.7,423 154.7,411.5 147.4,416.6 147.4,423 					"/>
				</g>
				<rect id="XMLID_620_" x="128.5" y="423" class="st6" width="7.1" height="0.7"/>
				<path id="XMLID_619_" class="st2" d="M114.5,423.7v5.7c2.4,0.2,4.7,0.3,7.1,0.2v-5.9L114.5,423.7L114.5,423.7z"/>
				<rect id="XMLID_618_" x="114.5" y="423" class="st6" width="7.1" height="0.7"/>
				<g id="XMLID_612_">
					<path id="XMLID_615_" class="st1" d="M160.7,429.4v1.1c0.2,6.1,3.4,9.1,10.2,9.1c2.7,0,5.3-0.6,8-1.8v1.8h7.1v-16h-23.8
						C161.2,425.2,160.7,427.1,160.7,429.4z M175.5,425.2h3.1v6.9c-1.8,1.2-4.1,1.8-6.9,1.8c-2.5,0-3.7-1-3.9-2.9v-1.5
						C167.8,426.4,170.2,425.1,175.5,425.2z"/>
					<path id="XMLID_614_" class="st2" d="M168.1,432c-2.2-2.3-4.6-4.3-6.9-6.2c-0.3,1.1-0.5,2.3-0.5,3.6v1.1
						c0.2,6.1,3.4,9.1,10.2,9.1c1,0,2.1-0.1,3.1-0.3c-1.4-2.1-2.9-4.1-4.6-5.9C168.8,433.1,168.4,432.7,168.1,432z"/>
					<path id="XMLID_613_" class="st2" d="M183.8,423.7c-1.7,4.8-3.5,9.7-5.5,14.4c0.2-0.1,0.4-0.2,0.6-0.3v1.8h1.5
						c0.9,0,2-0.2,2.9-0.6c2.1-1,2.6-2.1,2.7-5.9v-9.5h-2.2V423.7z"/>
				</g>
				<path id="XMLID_611_" class="st5" d="M121.6,423v-14.8v-1.6c0,0-0.7,1-2.1,1.8c-1,0.6-1.8,0.9-2.8,1.4c-1.7,0.9-2.1,1.7-2.1,3
					v0.4v2.1v0.4v7.2h7L121.6,423L121.6,423z"/>
				<g id="XMLID_609_">
					<polygon id="XMLID_610_" class="st4" points="135.6,423 135.6,410.7 128.5,416.8 128.5,423 					"/>
				</g>
				<path id="XMLID_608_" class="st3" d="M152.9,406.8c-0.9,0-2,0.2-2.8,0.6c-2.3,1.1-2.7,2.3-2.7,7.1v0.7l0,0v6.9l7.3-8.3v-7
					L152.9,406.8L152.9,406.8z"/>
				<path id="XMLID_607_" class="st5" d="M134.9,406.8L134.9,406.8c-0.1,0-0.2,0-0.3,0h-0.1c-0.9,0-2.3,0.1-3.2,0.6
					c-2.3,1.1-2.7,2.3-2.7,7.1v0.7l0,0v5.1l7.1-8v-5.5L134.9,406.8L134.9,406.8z"/>
				<g id="XMLID_603_">
					<path id="XMLID_606_" class="st1" d="M147.4,423.7v7.3c-2.7,1.6-5.2,2.4-7.5,2.4c-2.8,0-4.2-2-4.2-6v-3.7h-7.1v3.7
						c-0.1,8.3,3.3,12.3,10.2,12.2c3.1,0,6-0.7,8.7-2v2h1l0,0c0.9,0,2.5,0,3.7-0.6c2.3-1.1,2.7-2.3,2.7-7.1v-0.7l0,0v-7.6h-7.5
						L147.4,423.7L147.4,423.7z"/>
					<path id="XMLID_605_" class="st2" d="M128.5,423.7v3.7c0,0.5,0,1,0,1.5c2.4-0.4,4.8-1,7.1-1.7v-3.5H128.5z"/>
					<path id="XMLID_604_" class="st2" d="M147.4,423.7v7.3c-2.7,1.6-5.2,2.4-7.5,2.4c-1.3,0-2.2-0.4-2.9-1.2c-1.4,2-3,3.9-4.5,5.8
						c1.6,1.2,3.7,1.7,6.4,1.6c1.7,0,3.3-0.2,4.9-0.6c2.9-4,6.6-7.6,10.4-10.6c0.2-0.1,0.4-0.2,0.7-0.3v-4.5h-7.5L147.4,423.7
						L147.4,423.7z"/>
				</g>
				<path id="XMLID_602_" class="st6" d="M186,423h-23.3c-0.2,0.2-0.3,0.5-0.5,0.7H186V423z"/>
			</g>
		</g>
	</g>
	<g id="XMLID_536_">
		<path id="XMLID_561_" class="st7" d="M268,408.4v2.4h-25.3l-1.6,29.1h-5.8l1.8-31.5h14.5l0.5-2.2l4.9-0.1v2.4L268,408.4L268,408.4
			z M268,437.5v2.4h-25v-2.4h16.2l2.7-23.6h5.4l-2.7,23.6H268z M244.4,418l4.5-4.1l2.4,20.7h-5.1L244.4,418z M258.4,434.7h-5.2
			l-1.8-16.7l4.5-4.1L258.4,434.7z"/>
		<path id="XMLID_566_" class="st7" d="M303.3,407.7v32h-6.1l0.3-3.8V429h-6.8v10.7h-5.9V429h-6.9l-0.6,10.7h-5.8l1.6-32H303.3z
			 M284.8,426.5v-6.9h-6.5l-0.4,6.9H284.8z M284.8,417v-6.8h-6.1l-0.4,6.8H284.8z M297.5,417v-6.8h-6.8v6.8H297.5z M297.5,426.5
			v-6.9h-6.8v6.9H297.5z"/>
		<path id="XMLID_579_" class="st7" d="M319.2,439.7V427h-13.3v-2.7h13.3V410h-12.4v-2.7h31.3v2.7h-12.6v14.3h13.3v2.7h-13.3v12.7
			H319.2z M313.4,411.8l3.5,10h-5.8l-2.6-7.3L313.4,411.8z M333.7,421.8h-5.8l3.5-10l4.7,2L333.7,421.8z"/>
		<path id="XMLID_583_" class="st7" d="M342.9,419.6l6.9-12.3h6.1l-5.5,9.7H366l-4.4-8.2h4.9l7.9,10.7L342.9,419.6L342.9,419.6z
			 M344,421.5h28.7v18.3H344V421.5z M366.6,424.1h-16.5v13.1h16.5V424.1z"/>
	</g>
</g>
</svg>
