<?xml version="1.0" encoding="UTF-8"?>
<svg width="1514px" height="302px" viewBox="0 0 1514 302" version="1.1" xmlns="http://www.w3.org/2000/svg" xmlns:xlink="http://www.w3.org/1999/xlink">
    <!-- Generator: Sketch 50.2 (55047) - http://www.bohemiancoding.com/sketch -->
    <title>英文logo</title>
    <desc>Created with Sketch.</desc>
    <defs>
        <polygon id="path-1" points="0.818725535 0.058 27.7395123 0.058 27.7395123 22.1914772 0.818725535 22.1914772"></polygon>
    </defs>
    <g id="英文logo" stroke="none" stroke-width="1" fill="none" fill-rule="evenodd">
        <g transform="translate(114.000000, 29.000000)" id="Group">
            <g>
                <path d="M293.9251,22.716 C293.9251,22.716 284.6501,2.214 284.5651,1.995 C284.4811,1.777 284.5571,1.54 284.8881,1.542 L291.0541,1.591 C292.2751,1.601 293.0521,2.11 293.5301,3.076 C293.7531,3.518 297.8941,12.423 297.8941,12.423 C298.1981,13.148 298.9481,13.233 299.3161,12.434 C299.3161,12.434 304.1631,3.124 304.3261,2.825 C304.7151,2.092 305.2271,1.704 306.3351,1.713 L312.7291,1.764 C313.2211,1.768 313.3321,2.169 313.1601,2.482 C312.9991,2.797 296.7941,33.775 296.7941,33.775 L290.0491,33.722 C289.1211,33.714 288.5261,33.028 289.0051,32.081 C289.1261,31.842 293.9251,22.716 293.9251,22.716" id="Fill-1" fill="#717071"></path>
                <g id="Group-5" transform="translate(311.000000, 0.942000)">
                    <mask id="mask-2" fill="white">
                        <use xlink:href="#path-1"></use>
                    </mask>
                    <g id="Clip-4"></g>
                    <path d="M4.1631,18.9367 C6.5251,21.0737 10.1681,22.1587 14.1641,22.1907 C18.4631,22.2247 21.7311,21.1427 24.1771,19.0477 C26.4551,17.0567 27.7181,13.7747 27.7391,11.2287 C27.7641,7.9777 26.6521,5.3387 24.4011,3.3127 C21.9891,1.1757 18.6391,0.0927 14.3401,0.0587 C10.0411,0.0247 6.8231,1.1027 4.4221,3.1977 C2.1381,5.1857 0.8401,8.3757 0.8191,11.0147 C0.7931,14.2657 2.1231,17.0907 4.1631,18.9367 M9.9691,9.0277 C12.0961,5.1237 14.6831,3.6127 17.5611,4.8907 C20.4711,6.1847 20.7681,9.0717 18.5401,13.2217 C16.5021,17.0087 13.9081,18.5887 10.9431,17.3547 C8.0011,16.1277 7.7131,13.1567 9.9691,9.0277" id="Fill-3" fill="#717071" mask="url(#mask-2)"></path>
                </g>
                <path d="M376.0391,23.3685 C376.0391,23.3685 371.2401,32.4945 371.1231,32.7335 C370.6461,33.6805 371.2351,34.3665 372.1631,34.3745 L378.9041,34.4275 C378.9041,34.4275 395.1131,3.4495 395.2771,3.1345 C395.4411,2.8215 395.3331,2.4205 394.8431,2.4165 L388.4491,2.3655 C387.3411,2.3565 386.8311,2.7445 386.4401,3.4775 C386.2771,3.7765 381.4301,13.0865 381.4301,13.0865 C381.0621,13.8855 380.3071,13.8005 380.0121,13.0755 C380.0121,13.0755 375.8671,4.1705 375.6491,3.7285 C375.1751,2.7625 374.3871,2.2535 373.1651,2.2435 L367.0021,2.1945 C366.6761,2.1925 366.5921,2.4295 366.6811,2.6475 C366.7681,2.8665 376.0391,23.3685 376.0391,23.3685" id="Fill-6" fill="#717071"></path>
                <path d="M397.2137,20.5308 C399.5757,22.6678 403.2187,23.7528 407.2197,23.7848 C411.5137,23.8188 414.7837,22.7368 417.2277,20.6418 C419.5057,18.6508 420.7687,15.3688 420.7897,12.8228 C420.8147,9.5718 419.7007,6.9328 417.4517,4.9068 C415.0427,2.7698 411.6897,1.6868 407.3957,1.6528 C403.0917,1.6188 399.8787,2.6968 397.4707,4.7918 C395.1917,6.7798 393.8907,9.9698 393.8697,12.6088 C393.8437,15.8598 395.1757,18.6848 397.2137,20.5308 M403.0197,10.6218 C405.1467,6.7178 407.7377,5.2068 410.6117,6.4848 C413.5217,7.7788 413.8187,10.6658 411.5907,14.8158 C409.5527,18.6028 406.9617,20.1828 403.9967,18.9488 C401.0547,17.7218 400.7637,14.7508 403.0197,10.6218" id="Fill-8" fill="#717071"></path>
                <path d="M340.7125,22.6989 L348.1085,22.7579 C348.8685,22.7639 349.3095,22.2899 349.3155,21.5899 L349.4355,6.4869 C354.4625,5.2089 357.6725,6.6039 357.6555,8.7499 L357.5525,21.7109 C357.5475,22.4059 357.9225,22.8359 358.7155,22.8419 L366.1485,22.9009 L366.2575,9.1719 C366.3125,2.2489 357.4895,-1.1071 342.2745,3.0579 C341.4205,3.3289 340.8055,4.0989 340.7965,5.1739 L340.6575,22.6989 L340.7125,22.7409 L340.7125,22.6989 Z" id="Fill-10" fill="#717071"></path>
                <path d="M446.7401,22.4884 C447.5941,22.2104 448.2181,21.4404 448.2271,20.3704 L448.3661,2.8414 L448.3081,2.8404 L440.9131,2.7814 C440.1511,2.7754 439.7091,3.2494 439.7031,3.9554 L439.5831,19.0564 C434.5541,20.3344 431.3421,18.9324 431.3591,16.7914 L431.4621,3.8264 C431.4681,3.1424 431.1011,2.7034 430.3041,2.6974 L422.8691,2.6384 L422.7601,16.3714 C422.7051,23.2934 431.5341,26.6504 446.7401,22.4884" id="Fill-12" fill="#717071"></path>
                <path d="M547.1685,54.9156 L532.2525,54.9156 L532.2525,54.9256 C517.9595,54.9256 518.6215,66.8866 518.6215,66.8866 L518.3645,66.8026 L518.3645,193.7636 L524.7335,193.7636 C533.1585,192.6306 534.9755,186.6216 535.3515,183.6546 L535.3515,68.9486 L550.1225,68.9486 C580.1495,67.9676 594.4355,77.8106 592.9585,98.4906 C594.4355,117.2086 580.1495,126.0706 550.1225,125.0786 L543.6315,125.0786 L543.6315,140.5886 L546.4295,140.5886 C590.7435,141.5806 611.9075,127.5476 609.9455,98.4906 C611.9075,67.9676 590.9855,53.4386 547.1685,54.9156" id="Fill-14" fill="#646A6C"></path>
                <path d="M632.2765,194.901 C645.6155,194.901 644.9975,183.738 644.9975,183.738 L645.0305,183.749 L645.0305,59.835 L640.7025,59.835 C632.0795,60.555 630.2435,66.439 629.8665,69.329 L629.8665,194.928 L632.2765,194.928 L632.2765,194.901 Z" id="Fill-16" fill="#646A6C"></path>
                <path d="M704.8353,90.8089 C697.4193,90.8089 690.4683,91.2739 683.9793,92.1989 C671.3973,94.9069 673.0363,106.3639 673.0363,106.3639 L672.7443,106.2959 L672.7443,106.4979 C681.7703,104.6039 691.9993,103.6459 703.4093,103.6459 C720.5243,102.6989 728.6033,110.0639 727.6563,125.7539 L727.6563,176.3869 C718.1403,181.6229 708.4013,184.2309 698.4173,184.2309 C687.4753,183.7629 681.7703,178.7709 681.3013,169.2549 L681.3013,164.2629 C679.8753,150.4789 690.0933,144.0609 711.9673,145.0079 L719.8453,145.0079 L719.8453,133.5979 L711.9673,133.5979 C679.6303,132.1709 664.1863,142.4009 665.6123,164.2629 L665.6123,167.8279 C665.6123,185.9019 675.5963,194.9279 695.5643,194.9279 C706.0163,194.9279 716.9593,192.0749 728.3693,186.3699 L728.3693,192.0749 L743.3453,192.0749 L743.3453,125.7539 C744.7713,101.5069 731.9353,89.8619 704.8353,90.8089" id="Fill-18" fill="#646A6C"></path>
                <path d="M921.244,136.3584 L921.244,152.7614 C920.765,173.6904 929.558,183.9084 947.633,183.4294 C966.176,184.3884 975.203,174.1584 974.734,152.7614 L974.734,136.3584 C975.203,115.4414 966.176,105.2224 947.633,105.6904 C929.558,105.2224 920.765,115.4414 921.244,136.3584 M905.554,152.7614 L905.554,136.3584 C906.022,107.3624 920.052,92.6194 947.633,92.1394 C976.161,92.1394 990.425,106.8824 990.425,136.3584 L990.425,152.7614 C990.425,181.7694 976.161,196.2674 947.633,196.2674 C918.625,197.2144 904.595,182.7164 905.554,152.7614" id="Fill-20" fill="#646A6C"></path>
                <path d="M1026.3191,106.0781 L1026.3191,94.3401 L1022.9131,94.3401 C1012.1341,94.6841 1010.4311,102.1501 1010.1801,105.0571 L1010.1801,196.3111 L1017.4731,196.3111 C1023.7481,194.8851 1025.7141,190.4601 1026.3191,187.5541 L1026.3191,117.0821 C1038.0571,110.2391 1050.2751,106.5701 1062.9991,106.0781 L1062.9991,92.1391 C1051.7431,92.1391 1039.5231,96.7931 1026.3191,106.0781" id="Fill-22" fill="#646A6C"></path>
                <path d="M794.4734,110.7052 L819.5994,110.7052 L819.5994,97.8022 L794.4734,97.8022 L794.4734,73.3572 C778.1924,73.3572 778.9474,86.9832 778.9474,86.9832 L778.8554,86.9532 L778.8554,97.8022 L759.8414,97.8022 L759.8414,110.7052 L778.8554,110.7052 L778.8554,171.8212 C778.3984,187.6732 786.3254,195.3552 802.6224,194.9092 C805.0574,194.9092 807.4564,194.7532 809.8164,194.4412 C815.3984,193.7042 819.5994,188.9962 819.5994,183.3652 C814.6124,183.8222 809.4134,184.0442 803.9814,184.0442 C797.1904,184.5012 794.0184,180.2032 794.4734,171.1422 L794.4734,110.7052 Z" id="Fill-24" fill="#646A6C"></path>
                <path d="M872.7455,72.7205 C880.4375,72.7205 885.8705,72.9535 889.0435,73.3995 L889.0435,73.3975 L889.0415,73.3985 C889.0415,73.3985 889.0425,73.3845 889.0435,73.3585 L889.0435,72.8675 C888.9955,70.9465 887.8325,64.3855 880.7805,61.9375 C877.7495,60.8855 874.7505,60.4975 870.7085,60.4975 C854.8565,60.0515 846.9405,70.0045 846.9405,90.3765 L846.9405,101.9205 L827.9265,101.9205 L827.9265,114.8225 L846.9405,114.8225 L846.9405,196.3115 L853.3425,196.3115 C862.3515,193.0885 861.8565,183.7915 861.8565,183.7915 L861.8805,183.7995 L861.8805,114.8225 L888.3645,114.8225 L888.3645,101.9205 L861.8805,101.9205 L861.8805,90.3765 C861.4245,78.1525 865.0425,72.2745 872.7455,72.7205" id="Fill-26" fill="#646A6C"></path>
                <path d="M1165.9769,112.1066 C1175.9309,112.1066 1180.9169,119.3536 1180.9169,133.8366 L1180.9169,196.3056 L1187.1989,196.3056 C1193.5179,194.8696 1195.3419,190.3056 1195.8569,187.4956 L1195.8569,133.8366 C1195.8569,110.7486 1186.5729,99.4376 1168.0149,99.8836 C1159.8649,99.8836 1150.1259,103.9576 1138.8159,112.1066 C1134.2849,103.9576 1127.2699,99.8836 1117.7639,99.8836 C1108.2569,99.8836 1098.5159,103.7346 1088.5629,111.4276 L1088.5629,101.9206 L1088.1659,101.9206 C1078.1789,102.0666 1074.7729,107.4266 1073.6239,111.3796 L1073.6239,178.1216 L1073.6239,196.3106 L1079.9109,196.3106 C1086.2099,194.8796 1088.0409,190.3406 1088.5629,187.5286 L1088.5629,122.9716 C1098.0709,115.7356 1106.4419,112.1066 1113.6889,112.1066 C1123.1949,111.6606 1127.7159,118.8966 1127.2699,133.8366 L1127.2699,178.1796 L1127.2889,178.1606 L1127.2889,196.3106 L1133.7169,196.3106 C1139.8359,194.8576 1141.6719,190.4476 1142.2109,187.6526 L1142.2109,133.8366 C1142.2109,130.2186 1141.9759,126.3666 1141.5299,122.2926 C1151.0389,115.5016 1159.1869,112.1066 1165.9769,112.1066" id="Fill-28" fill="#646A6C"></path>
                <path d="M447.3223,132.3793 L417.0273,132.1383 L416.9993,135.6723 C416.7893,162.1803 407.5303,175.0503 389.2373,174.2683 C383.5573,174.2233 375.9963,172.5963 366.5563,169.3553 L366.8553,131.7403 L335.6123,131.4913 L334.7193,243.8943 L338.8193,243.9273 L338.8193,243.9033 C339.2743,243.9203 339.7753,243.9323 340.3063,243.9383 L340.5503,243.9403 C344.5343,243.9693 350.2523,243.5723 354.5393,241.4703 C363.9273,236.8013 365.9473,232.2033 366.2073,213.1733 L366.3453,195.8633 C375.1543,198.4473 382.7183,199.7803 389.0343,199.8303 C428.1553,200.7623 447.5693,179.4663 447.2943,135.9133 L447.3223,132.3793 Z" id="Fill-30" fill="#D61519"></path>
                <path d="M389.2379,174.2692 C383.5579,174.2242 375.9969,172.5952 366.5549,169.3542 L366.7399,145.9872 C356.9989,151.3392 346.2059,153.8302 335.4149,156.3742 L335.1049,195.4182 C345.8689,203.1332 356.3389,211.0042 366.1559,219.5342 L366.3439,195.8622 C375.1549,198.4472 382.7179,199.7792 389.0349,199.8292 C405.1729,200.2142 417.9469,196.8062 427.3799,189.6232 C420.6169,182.5882 414.0599,175.2462 407.4069,168.1122 C402.9219,172.5362 396.8699,174.5942 389.2379,174.2692" id="Fill-32" fill="#E60014"></path>
                <path d="M447.322,132.3793 L417.027,132.1383 L416.999,135.6723 C416.961,140.4903 416.623,144.8563 415.986,148.7703 C426.243,148.3013 436.493,148.4413 446.743,148.5993 C447.129,144.6013 447.322,140.3823 447.294,135.9133 L447.322,132.3793 Z" id="Fill-34" fill="#E60014"></path>
                <path d="M397.7217,59.7803 C386.3617,59.6903 375.9237,62.4463 366.4137,68.0513 L366.4207,67.1253 L366.4787,59.8213 L359.9167,59.7693 C356.1087,59.8633 351.3127,60.4043 347.5947,62.2263 C338.4287,66.7843 336.2877,71.2843 335.9487,89.2113 L335.8897,96.7213 L335.8537,101.1453 L335.6367,128.4833 L366.8777,128.7323 L367.1337,96.4603 C376.6457,90.8553 385.8107,88.0883 394.6547,88.1593 C406.5287,87.7663 413.6897,94.8843 416.1407,109.5223 L439.6457,83.3603 C431.7337,68.1853 417.7627,60.3213 397.7217,59.7803" id="Fill-36" fill="#0096FF"></path>
                <path d="M439.6327,83.3333 L416.1447,109.5403 C416.8207,113.5773 417.1387,118.1843 417.0977,123.3653 L417.0517,129.1313 L447.3467,129.3713 L447.3927,123.6063 C447.5247,106.9023 444.9327,93.4823 439.6327,83.3333" id="Fill-38" fill="#69CD00"></path>
                <path d="M359.9158,59.7697 C356.1078,59.8637 351.3118,60.4047 347.5938,62.2267 C338.4288,66.7847 336.2868,71.2827 335.9478,89.2107 L335.8538,101.1457 L366.4198,67.1257 L366.4778,59.8217 L359.9158,59.7697 Z" id="Fill-40" fill="#FFB400"></path>
                <path d="M275.847,60.8793 C275.787,60.8633 275.725,60.8483 275.665,60.8323 C274.649,60.5663 273.606,60.3243 272.54,60.1033 C272.384,60.0703 268.606,59.3973 268.568,59.3913 C267.344,59.2113 260.36,58.6033 259.989,58.5853 C259.043,58.5413 253.284,58.4613 251.91,58.4963 C251.9,58.4953 251.89,58.4953 251.88,58.4953 C244.133,58.4343 236.957,58.7203 230.337,59.3443 C226.13,60.0353 220.317,61.0673 217.229,62.4023 C210.771,65.1953 206.289,70.3083 206.114,89.4283 L206.109,89.4313 C207.646,89.1993 211.551,88.6493 211.983,88.5923 C214.952,88.1923 217.861,87.8523 220.736,87.5453 C223.492,87.2493 226.219,86.9823 228.889,86.7713 C236.166,86.1943 243.126,85.9313 249.764,85.9843 C250.845,85.9163 255.698,85.9513 255.782,85.9573 C257.641,86.0723 259.362,86.3123 260.944,86.6723 C270.854,88.9313 275.3,96.0333 274.25,107.9943 L274.22,111.7873 L260.941,111.6823 C233.447,110.2683 215.437,115.6383 205.746,127.4533 L305.387,128.2453 L305.546,108.2423 C307.192,82.3553 297.284,66.5763 275.847,60.8793" id="Fill-42" fill="#FFB400"></path>
                <path d="M0.5414,128.8078 L0.0004,196.9308 C0.0004,196.9308 11.4764,198.2828 18.7894,194.6988 C28.4944,189.8728 30.3514,185.1238 30.5154,164.5338 L30.7974,129.0478 L0.5414,128.8078 Z" id="Fill-44" fill="#D61519"></path>
                <path d="M13.3826,34.1087 C4.9736,38.2307 1.2826,46.0187 1.1136,67.2397 C1.1136,67.2397 5.3336,63.0837 12.0556,60.6247 C16.9566,58.8487 20.4636,56.5027 22.9916,54.7077 C30.2936,49.3207 31.4636,42.7687 31.5546,31.3217 C31.4146,31.3207 19.9726,30.5317 13.3826,34.1087" id="Fill-46" fill="#69CD00"></path>
                <path d="M252.0152,58.497 C244.2692,58.435 237.0932,58.722 230.4732,59.345 C226.2632,60.035 220.4512,61.069 217.3652,62.404 C210.9052,65.197 206.4232,70.31 206.2472,89.431 C222.0632,87.039 236.6242,85.88 249.9002,85.986 C254.1912,85.714 257.9092,85.951 261.0802,86.674 L282.3442,63.006 C274.2982,59.699 264.1962,58.189 252.0152,58.497" id="Fill-48" fill="#69CD00"></path>
                <path d="M87.8385,57.3569 L87.8385,57.3799 C87.4115,57.3639 86.9445,57.3529 86.4545,57.3459 L85.9655,57.3419 C81.9875,57.3239 76.3555,57.7359 72.1185,59.8139 C62.4465,64.6219 60.5945,69.3559 60.4315,89.8769 L60.4085,92.7709 L60.3985,92.7709 L60.2235,114.6969 L90.7885,80.6769 L90.9745,57.3819 L87.8385,57.3569 Z" id="Fill-50" fill="#FFB400"></path>
                <polygon id="Fill-52" fill="#FFFFFF" points="417.1115 132.1382 447.3225 132.3782 447.3465 129.3712 417.1355 129.1312"></polygon>
                <polygon id="Fill-54" fill="#FFFFFF" points="335.6127 131.4906 366.8527 131.7386 366.8767 128.7326 335.6367 128.4836"></polygon>
                <path d="M224.1645,127.5985 L237.8665,112.3485 C222.9845,114.2705 212.4055,119.3435 205.7465,127.4525 L224.1645,127.5985 Z" id="Fill-56" fill="#69CD00"></path>
                <polygon id="Fill-58" fill="#FFFFFF" points="140.6381 129.9411 171.8371 130.1891 171.8611 127.1821 140.6621 126.9341"></polygon>
                <polygon id="Fill-60" fill="#69CD00" points="171.8601 127.1828 172.2511 77.9728 140.8371 99.5918 140.6201 126.9348"></polygon>
                <polygon id="Fill-62" fill="#FFFFFF" points="60.107 129.3011 90.402 129.5421 90.425 126.5351 60.131 126.2941"></polygon>
                <path d="M0.5414,128.8078 L0.3474,153.2718 C10.3864,154.2468 20.4974,154.5598 30.5894,154.2218 L30.7894,129.0478 L0.5414,128.8078 Z" id="Fill-64" fill="#E60014"></path>
                <polygon id="Fill-66" fill="#FFFFFF" points="0.5141 128.8074 30.7941 129.0484 30.8171 126.0414 0.5381 125.8004"></polygon>
                <path d="M197.2025,154.7542 L197.1645,159.4882 C197.7225,185.3962 211.3675,198.4182 240.4045,198.6492 C251.7635,198.7392 263.1445,196.3002 274.5445,191.3462 L274.4825,199.1602 L304.7775,199.4012 L305.3185,131.2502 L203.7125,130.4432 C199.4955,136.9272 197.3635,145.0352 197.2025,154.7542 M260.7735,137.2712 L274.0275,137.3772 L273.7945,166.7242 C266.1805,171.7232 256.3685,174.1602 244.3875,174.0642 C233.6475,173.9792 228.5405,169.8552 227.8545,161.5812 L227.7815,155.0642 C227.6335,142.2842 238.0575,136.4702 260.7735,137.2712" id="Fill-68" fill="#D61519"></path>
                <path d="M228.8645,166.1578 C219.6015,156.4628 209.5885,147.5668 199.4645,139.5718 C198.0455,144.0998 197.2955,149.1578 197.2025,154.7538 L197.1645,159.4888 C197.7215,185.3968 211.3685,198.4178 240.4045,198.6488 C244.8645,198.6838 249.3285,198.3228 253.7945,197.5798 C248.1035,188.6378 241.5275,180.1398 234.3885,172.1368 C231.7185,170.8228 229.9065,168.8318 228.8645,166.1578" id="Fill-70" fill="#E60014"></path>
                <path d="M296.1738,131.1572 C288.5598,151.7552 281.0488,172.2792 272.0338,192.3952 C272.8708,192.0592 273.7088,191.7092 274.5448,191.3452 L274.4828,199.1602 L280.9958,199.2122 C284.8168,199.1252 289.6528,198.5892 293.3978,196.7542 C302.2118,192.3712 304.5318,188.0462 304.9968,171.7872 L305.3198,131.2302 L296.1738,131.1572 Z" id="Fill-72" fill="#E60014"></path>
                <path d="M30.829,126.0304 L31.332,62.7024 L31.386,55.9644 C31.386,55.9644 28.264,60.1514 22.199,63.7534 C17.968,66.1054 14.309,67.3404 10.08,69.6924 C2.75,73.2854 0.896,76.9204 0.852,82.3954 L0.838,84.2194 L0.765,93.3434 L0.751,95.1684 L0.508,125.7894 L30.829,126.0304 Z" id="Fill-74" fill="#FFB400"></path>
                <polygon id="Fill-76" fill="#69CD00" points="90.425 126.5357 90.841 74.1867 60.34 99.9127 60.13 126.2947"></polygon>
                <path d="M164.6444,57.9672 C160.8814,58.0792 156.2274,58.6352 152.5974,60.4142 C142.9254,65.2252 141.0734,69.9562 140.9104,90.4792 L140.8874,93.3742 L140.8854,93.3742 L140.6504,122.9372 L172.1714,87.8552 L172.4084,58.0292 L164.6444,57.9672 Z" id="Fill-78" fill="#0096FF"></path>
                <path d="M87.8386,57.3569 L87.8386,57.3799 C87.4116,57.3639 86.9446,57.3529 86.4546,57.3459 L85.9656,57.3419 C81.9876,57.3239 76.3556,57.7359 72.1186,59.8139 C62.4466,64.6219 60.5946,69.3559 60.4316,89.8769 L60.4086,92.7709 L60.3986,92.7709 L60.2236,114.6969 L90.7886,80.6769 L90.9746,57.3819 L87.8386,57.3569 Z" id="Fill-80" fill="#FFB400"></path>
                <path d="M140.5954,129.9418 L140.3494,160.9308 C128.9334,167.7918 118.1684,171.1688 108.0784,171.0878 C96.0834,170.9928 90.1594,162.4258 90.2954,145.3848 L90.4204,129.5428 L60.1274,129.3028 L60.0024,145.1448 C59.0854,180.4918 73.4584,197.9438 103.1354,197.5588 C116.3894,197.6638 128.7174,194.9208 140.1234,189.3308 L140.0554,197.8418 L144.1354,197.8738 L144.1364,197.8258 C148.0274,197.9758 154.8994,197.8228 159.8564,195.3928 C169.5274,190.5838 171.3804,185.8518 171.5434,165.3298 L171.5664,162.4348 L171.5794,162.4348 L171.8354,130.1898 L140.5954,129.9418 Z" id="Fill-82" fill="#D61519"></path>
                <path d="M60.1269,129.3023 L60.0009,145.1443 C59.9449,147.3183 59.9619,149.4053 60.0229,151.4443 C70.2789,149.7983 80.4079,147.4793 90.3029,144.4913 L90.4219,129.5433 L60.1269,129.3023 Z" id="Fill-84" fill="#E60014"></path>
                <path d="M140.5954,129.9418 L140.3494,160.9308 C128.9334,167.7918 118.1684,171.1688 108.0784,171.0878 C102.6964,171.0458 98.5464,169.2818 95.6074,165.8258 C89.3704,174.1068 82.6974,182.1888 76.0284,190.3298 C82.8764,195.2908 91.9084,197.7038 103.1354,197.5588 C110.3534,197.6158 117.2944,196.8208 123.9664,195.1888 C136.5304,178.2438 152.4624,163.0218 168.7134,150.4598 C169.5894,149.9428 170.5934,149.5558 171.6844,149.2578 L171.8354,130.1898 L140.5954,129.9418 Z" id="Fill-86" fill="#E60014"></path>
                <path d="M305.3738,128.2439 L205.7918,127.4529 C205.0518,128.4189 204.3598,129.4219 203.6898,130.4429 L305.3498,131.2509 L305.3738,128.2439 Z" id="Fill-88" fill="#FFFFFF"></path>
            </g>
        </g>
    </g>
</svg>