<?xml version="1.0" standalone="no"?>
<!DOCTYPE svg PUBLIC "-//W3C//DTD SVG 1.1//EN" "http://www.w3.org/Graphics/SVG/1.1/DTD/svg11.dtd" >
<!--
2013-9-30: Created.
-->
<svg>
<metadata>
Created by iconfont
</metadata>
<defs>

<font id="iconfont" horiz-adv-x="1024" >
  <font-face
    font-family="iconfont"
    font-weight="500"
    font-stretch="normal"
    units-per-em="1024"
    ascent="896"
    descent="-128"
  />
    <missing-glyph />
    
    <glyph glyph-name="liebiaoshitu" unicode="&#58899;" d="M534.547456-57.663744l0 47.050752 423.474176 0 0-47.050752L534.547456-57.663744zM534.547456 177.600256l423.474176 0 0-47.0528L534.547456 130.547456 534.547456 177.600256zM534.547456 459.915008l423.474176 0 0-47.051776L534.547456 412.863232 534.547456 459.915008zM534.547456 671.652608l423.474176 0 0-47.053824L534.547456 624.598784 534.547456 671.652608zM338.502656-104.716544 118.907904-104.716544c-30.268416 0-54.8864 24.629248-54.8864 54.862848L64.021504 169.78816c0 30.281728 24.617984 54.864896 54.8864 54.864896l219.594752 0c30.280704 0 54.8864-24.583168 54.8864-54.864896l0-219.640832C393.389056-80.087296 368.78336-104.716544 338.502656-104.716544zM346.33728 169.78816c0 4.320256-3.516416 7.812096-7.834624 7.812096L118.907904 177.600256c-4.318208 0-7.832576-3.49184-7.832576-7.812096l0-219.640832c0-4.272128 3.514368-7.810048 7.832576-7.810048l219.594752 0c4.318208 0 7.834624 3.53792 7.834624 7.810048L346.33728 169.78816zM338.502656 365.809408 118.907904 365.809408c-30.268416 0-54.8864 24.629248-54.8864 54.864896L64.021504 640.314112c0 30.280704 24.617984 54.864896 54.8864 54.864896l219.594752 0c30.280704 0 54.8864-24.583168 54.8864-54.864896l0-219.640832C393.389056 390.438656 368.78336 365.809408 338.502656 365.809408zM346.33728 640.314112c0 4.319232-3.516416 7.811072-7.834624 7.811072L118.907904 648.125184c-4.318208 0-7.832576-3.49184-7.832576-7.811072l0-219.640832c0-4.273152 3.514368-7.811072 7.832576-7.811072l219.594752 0c4.318208 0 7.834624 3.53792 7.834624 7.811072L346.33728 640.314112z"  horiz-adv-x="1024" />

    
    <glyph glyph-name="danxuan-xuanzhong" unicode="&#59271;" d="M512 810.667A426.667 426.667 0 1 1 938.667 384 426.667 426.667 0 0 1 512 810.667z m0-768A341.333 341.333 0 1 0 853.333 384 341.333 341.333 0 0 0 512 42.667zM341.333 384a170.667 170.667 0 1 1 341.334 0 170.667 170.667 0 1 1-341.334 0z"  horiz-adv-x="1024" />

    
    <glyph glyph-name="jiantouzuo" unicode="&#59275;" d="M661.333 600.32l-32.853 32.853a23.893 23.893 0 0 1-33.707 0L412.16 450.56l-49.493-49.707a23.893 23.893 0 0 1 0-33.706l49.706-49.707 182.614-182.613a23.893 23.893 0 0 1 33.706 0l32.64 32.853a23.893 23.893 0 0 1 0 33.707L478.72 384l182.613 182.613a23.893 23.893 0 0 1 0 33.707z"  horiz-adv-x="1024" />

    
    <glyph glyph-name="_kuaiguan-kai" unicode="&#59276;" d="M102.4 383.18c0 113.255 91.75 205.006 205.107 205.006h410.01c113.254 0 205.107-91.75 205.107-205.005 0-113.152-91.75-205.005-205.107-205.005h-410.01c-113.254 0-205.107 91.75-205.107 205.005zM698.719 252.73a130.458 130.458 0 1 1 0.519 260.914 130.458 130.458 0 1 1-0.52-260.915zM433.971 455.987c-2.457 2.355-6.451 2.355-8.909 0l-86.528-83.149-36.761 35.328c-2.458 2.356-6.451 2.356-8.909 0l-20.787-19.968c-2.458-2.355-2.458-6.144 0-8.601L334.13 320c1.229-1.229 2.867-1.74 4.403-1.74 1.639 0 3.175 0.614 4.404 1.74l111.82 107.418c1.23 1.126 1.844 2.662 1.844 4.3s-0.615 3.175-1.844 4.301l-20.787 19.968z"  horiz-adv-x="1024" />

    
    <glyph glyph-name="hangcaozuoxiangshang" unicode="&#59280;" d="M728.32 234.667l32.853 32.853a23.893 23.893 0 0 1 0 33.707L578.56 483.84l-49.707 49.493a23.893 23.893 0 0 1-33.706 0l-49.707-49.706-182.613-182.614a23.893 23.893 0 0 1 0-33.706l32.853-32.64a23.893 23.893 0 0 1 33.707 0L512 417.28l182.613-182.613a23.893 23.893 0 0 1 33.707 0z"  horiz-adv-x="1024" />

    
    <glyph glyph-name="xiayiye" unicode="&#59281;" d="M674.347 725.333h45.013q23.04 0 23.04-23.04v-636.586q0-23.04-23.04-23.04h-45.013q-23.04 0-23.04 23.04V702.293q0 23.04 23.04 23.04zM288.427 174.507L320 142.933a23.04 23.04 0 0 1 32.64 0L529.493 320l48 48a23.04 23.04 0 0 1 0 32.64l-48 47.36-176.64 177.067a23.04 23.04 0 0 1-32.64 0l-31.786-31.787a23.04 23.04 0 0 1 0-32.64L465.28 384 288.427 207.147a23.04 23.04 0 0 1 0-32.64z"  horiz-adv-x="1024" />

    
    <glyph glyph-name="danjufanhui" unicode="&#59286;" d="M366.933 384L742.4 0c17.067-17.067 17.067-51.2 0-76.8-17.067-17.067-51.2-17.067-76.8 0L264.533 341.333 256 349.867c-17.067 17.066-17.067 42.666-8.533 59.733l8.533 8.533L665.6 836.267c17.067 17.066 51.2 17.066 76.8 0 17.067-17.067 17.067-51.2 0-76.8L366.933 384z"  horiz-adv-x="1024" />

    
    <glyph glyph-name="qingkong" unicode="&#59287;" d="M673.382 246.784c-4.812-4.813-12.083-7.27-16.896-7.27-7.27 0-12.083 2.457-16.896 7.27L512 372.019 386.662 244.326c-4.812-4.812-12.083-7.27-16.896-7.27-7.27 0-12.083 2.458-16.896 7.27-9.625 9.626-9.625 24.064 0 33.69l125.338 127.693-127.59 125.337c-9.626 9.626-9.626 24.064 0 33.69 9.625 9.626 24.064 9.626 33.69 0L512 439.501l125.338 127.693c9.625 9.625 24.064 9.625 33.69 0 9.625-9.626 9.625-24.064 0-33.69L545.69 405.811l127.692-125.337c9.728-9.626 9.728-24.064 0-33.69zM512 815.411c-226.509 0-409.6-183.091-409.6-409.6s183.091-409.6 409.6-409.6 409.6 183.091 409.6 409.6-183.091 409.6-409.6 409.6z"  horiz-adv-x="1024" />

    
    <glyph glyph-name="kaiguan-kai-jinyong" unicode="&#59312;" d="M102.4 383.18c0 113.255 91.75 205.006 205.107 205.006h410.01c113.254 0 205.107-91.75 205.107-205.005 0-113.152-91.75-205.005-205.107-205.005h-410.01c-113.254 0-205.107 91.75-205.107 205.005zM698.719 252.73a130.458 130.458 0 1 1 0.519 260.914 130.458 130.458 0 1 1-0.52-260.915zM433.971 455.987c-2.457 2.355-6.451 2.355-8.909 0l-86.528-83.149-36.761 35.328c-2.458 2.356-6.451 2.356-8.909 0l-20.787-19.968c-2.458-2.355-2.458-6.144 0-8.601L334.13 320c1.229-1.229 2.867-1.74 4.403-1.74 1.639 0 3.175 0.614 4.404 1.74l111.82 107.418c1.23 1.126 1.844 2.662 1.844 4.3s-0.615 3.175-1.844 4.301l-20.787 19.968z"  horiz-adv-x="1024" />

    
    <glyph glyph-name="jiantouyou" unicode="&#59313;" d="M362.667 167.68l32.853-32.853a23.893 23.893 0 0 1 33.707 0L611.84 317.44l49.493 49.707a23.893 23.893 0 0 1 0 33.706l-49.706 49.707-182.614 182.613a23.893 23.893 0 0 1-33.706 0l-32.64-32.853a23.893 23.893 0 0 1 0-33.707L545.28 384 362.667 201.387a23.893 23.893 0 0 1 0-33.707z"  horiz-adv-x="1024" />

    
    <glyph glyph-name="kaiguan-guan-jinyong" unicode="&#59314;" d="M103.424 390.349c0 113.05 91.443 204.595 204.595 204.595h408.986c112.947 0 204.595-91.546 204.595-204.595 0-112.947-91.443-204.595-204.595-204.595H308.019c-112.947 0.102-204.595 91.648-204.595 204.595zM196.404 390.349a130.15 130.15 0 1 1 260.3 0 130.15 130.15 0 1 1-260.3 0zM679.834 411.853l44.236 44.237c5.94 5.939 15.565 5.939 21.504 0 5.94-5.94 5.94-15.565 0-21.504l-44.236-44.237 44.236-44.237c5.94-5.94 5.94-15.565 0-21.504-5.939-5.94-15.564-5.94-21.504 0l-44.236 44.237-44.237-44.237c-5.94-5.94-15.565-5.94-21.504 0-5.94 5.94-5.94 15.565 0 21.504l44.237 44.237-44.237 44.237c-5.94 5.939-5.94 15.564 0 21.504 5.939 5.939 15.565 5.939 21.504 0l44.237-44.237z"  horiz-adv-x="1024" />

    
    <glyph glyph-name="shanchu3" unicode="&#59315;" d="M992 768l-96 96-384-384L128 864l-96-96 384-384L32 0l96-96 384 384 384-384 96 96-384 384z"  horiz-adv-x="1024" />

    
    <glyph glyph-name="danxuan-weixuan" unicode="&#59352;" d="M512 810.667A426.667 426.667 0 1 1 938.667 384 426.667 426.667 0 0 1 512 810.667z m0-768A341.333 341.333 0 1 0 853.333 384 341.333 341.333 0 0 0 512 42.667z"  horiz-adv-x="1024" />

    
    <glyph glyph-name="shuwenjianzhankai" unicode="&#59353;" d="M866.304 494.182H302.797c-23.552 0-44.544-16.384-52.224-40.755L126.669 60.110000000000014h641.024c23.552 0 44.544 16.384 52.224 40.755l98.611 313.242c12.39 39.219-14.234 80.076-52.224 80.076zM289.28 526.029h546.509v31.437c0 33.996-27.136 61.542-60.621 61.542H624.026v35.02c0 33.895-27.136 61.44-60.519 61.44H102.4V100.65999999999997l128.307 382.874c8.602 25.395 32.154 42.496 58.573 42.496z"  horiz-adv-x="1024" />

    
    <glyph glyph-name="zuidahua1" unicode="&#59357;" d="M406.4 314.453l-176-176V211.84a36.907 36.907 0 0 1-36.907 36.907h-11.306a36.907 36.907 0 0 1-36.907-36.907v-181.12a36.907 36.907 0 0 1 11.093-26.24 36.48 36.48 0 0 1 26.24-11.093h181.12a36.907 36.907 0 0 1 36.907 36.906v12.374a36.907 36.907 0 0 1-36.907 36.906h-73.386L466.56 255.36a42.667 42.667 0 0 1-59.947 60.16z m496.427 436.054a36.48 36.48 0 0 1-26.24 11.093H695.68a36.907 36.907 0 0 1-36.907-36.267v-11.306a36.907 36.907 0 0 1 36.907-36.907H768L591.787 501.333a42.667 42.667 0 0 1 59.946-60.16l176 176v-73.386a36.907 36.907 0 0 1 36.907-36.907h11.307a36.907 36.907 0 0 1 36.906 36.907V725.333a36.907 36.907 0 0 1-10.026 25.174z m-32-544.214a42.667 42.667 0 0 1-42.667-42.666v-85.334h-85.333a42.667 42.667 0 1 1 0-85.333h128a42.667 42.667 0 0 1 42.666 42.667v128a42.667 42.667 0 0 1-42.666 42.666zM188.373 548.267a42.667 42.667 0 0 1 42.667 42.666v85.334h85.333a42.667 42.667 0 1 1 0 85.333h-128a42.667 42.667 0 0 1-42.666-42.667v-128a42.667 42.667 0 0 1 42.666-42.666z"  horiz-adv-x="1024" />

    
    <glyph glyph-name="rilizuixin" unicode="&#59358;" d="M808.4-53.9H210.2c-82.8 0-150.1 67.3-150.1 150.1V619.1c0 82.8 67.4 150.1 150.1 150.1h35.5c19.3 0 35-15.7 35-35s-15.7-35-35-35h-35.5c-44.2 0-80.1-35.9-80.1-80.1v-522.9c0-44.2 35.9-80.1 80.1-80.1h598.2c44.2 0 80.1 35.9 80.1 80.1V619.1c0 21.4-8.3 41.5-23.5 56.7-15.1 15.1-35.3 23.5-56.7 23.5h-35.5c-19.3 0-35 15.7-35 35s15.7 35 35 35h35.5c40.1 0 77.8-15.6 106.2-44 28.4-28.4 44-66.1 44-106.2v-522.9c0-82.7-67.3-150.1-150.1-150.1zM925.1 473.3H96.6c-19.3 0-35 15.7-35 35s15.7 35 35 35h828.5c19.3 0 35-15.7 35-35s-15.7-35-35-35zM716.4 134.4H565.8c-19.3 0-35 15.7-35 35s15.7 35 35 35h150.6c19.3 0 35-15.7 35-35s-15.6-35-35-35z m0 150.6H565.8c-19.3 0-35 15.7-35 35s15.7 35 35 35h150.6c19.3 0 35-15.7 35-35s-15.6-35-35-35zM452.8 134.4H302.2c-19.3 0-35 15.7-35 35s15.7 35 35 35h150.6c19.3 0 35-15.7 35-35s-15.6-35-35-35z m0 150.6H302.2c-19.3 0-35 15.7-35 35s15.7 35 35 35h150.6c19.3 0 35-15.7 35-35s-15.6-35-35-35z m226.9 320.1c-19.3 0-35 15.7-35 35V790.7c0 19.3 15.7 35 35 35s35-15.7 35-35v-150.6c0-19.3-15.7-35-35-35z m-93.5 94.1H435.6c-19.3 0-35 15.7-35 35s15.7 35 35 35h150.6c19.3 0 35-15.7 35-35s-15.7-35-35-35z m-245.4-94.1c-19.3 0-35 15.7-35 35V790.7c0 19.3 15.7 35 35 35s35-15.7 35-35v-150.6c0-19.3-15.7-35-35-35z"  horiz-adv-x="1024" />

    
    <glyph glyph-name="canzhaozuixin" unicode="&#59359;" d="M104 384a72 72 0 1 1 144 0 72 72 0 1 1-144 0z m288 240h480c26.5 0 48 21.5 48 48s-21.5 48-48 48H392c-26.5 0-48-21.5-48-48s21.5-48 48-48zM104 96a72 72 0 1 1 144 0 72 72 0 1 1-144 0z m0 576a72 72 0 1 1 144 0 72 72 0 1 1-144 0z m768-240H392c-26.5 0-48-21.5-48-48s21.5-48 48-48h480c26.5 0 48 21.5 48 48s-21.5 48-48 48z m0-288H392c-26.5 0-48-21.5-48-48s21.5-48 48-48h480c26.5 0 48 21.5 48 48s-21.5 48-48 48z"  horiz-adv-x="1024" />

    
    <glyph glyph-name="shuaxin1" unicode="&#59360;" d="M874.667 545.067a42.667 42.667 0 0 1-58.24-15.787l-25.6-44.8a338.987 338.987 0 1 1-57.387-308.053 10.453 10.453 0 0 1-2.56 13.866l-51.84 37.974a10.453 10.453 0 0 1-14.08-1.494 253.44 253.44 0 1 0 42.667 234.667l-46.294 27.307a42.667 42.667 0 0 1-42.666-73.814L791.893 314.88l98.56 172.16a42.667 42.667 0 0 1-15.786 58.027z"  horiz-adv-x="1024" />

    
    <glyph glyph-name="gear" unicode="&#59361;" d="M156.587 303.573l58.453-8.32a307.413 307.413 0 0 1 21.333-53.333l-36.266-48a29.44 29.44 0 0 1 0-35.84 488.533 488.533 0 0 1 36.906-41.6l3.2-3.2a488.32 488.32 0 0 1 42.667-36.907 29.653 29.653 0 0 1 35.84 0l47.147 35.414a307.627 307.627 0 0 1 52.906-22.4l8.32-59.734a29.44 29.44 0 0 1 25.6-25.173 488.107 488.107 0 0 1 55.467-3.413H512a518.827 518.827 0 0 1 55.467 3.413 29.653 29.653 0 0 1 25.386 25.173l8.32 58.88a307.84 307.84 0 0 1 53.12 21.334l48.214-36.694a29.653 29.653 0 0 1 35.84 0 484.907 484.907 0 0 1 42.666 36.907l3.2 3.2a500.693 500.693 0 0 1 36.907 41.6 29.44 29.44 0 0 1 0 35.84l-36.053 47.147a306.56 306.56 0 0 1 22.4 52.906l59.733 8.107a29.653 29.653 0 0 1 25.387 25.387A486.827 486.827 0 0 1 896 379.733V384a503.467 503.467 0 0 1-3.413 55.253 29.44 29.44 0 0 1-25.174 25.387l-58.666 8.32a306.56 306.56 0 0 1-21.334 53.12l36.48 49.92a29.44 29.44 0 0 1 0 35.84 476.587 476.587 0 0 1-36.906 41.6l-3.2 3.2a490.667 490.667 0 0 1-42.667 36.907 29.653 29.653 0 0 1-35.84 0l-47.36-35.627a305.92 305.92 0 0 1-52.907 21.333l-7.68 60.16a29.653 29.653 0 0 1-25.6 25.174S550.4 768 525.227 768h-21.334c-25.173 0-46.08-3.2-46.933-3.2a29.653 29.653 0 0 1-25.6-25.173l-8.32-58.667a307.84 307.84 0 0 1-53.12-21.333l-48.64 36.266a29.653 29.653 0 0 1-35.84 0 483.84 483.84 0 0 1-42.667-36.906l-3.2-3.2a490.667 490.667 0 0 1-36.906-41.6 29.44 29.44 0 0 1 0-35.84l35.626-47.36a305.28 305.28 0 0 1-21.333-52.694l-60.373-8.96a29.44 29.44 0 0 1-25.174-25.386A486.827 486.827 0 0 1 128 389.12V384a517.547 517.547 0 0 1 3.413-55.467 29.653 29.653 0 0 1 25.174-24.96z m53.973 85.334V412.8l51.84 7.04a27.307 27.307 0 0 1 22.827 21.333 230.613 230.613 0 0 0 27.52 65.494 27.307 27.307 0 0 1 0 32.853l-30.934 41.173q7.894 8.96 16.427 17.494l2.987 2.986q8.533 8.534 17.493 16.427l40.533-30.72a27.307 27.307 0 0 1 32-2.56 229.547 229.547 0 0 0 66.134 27.093 27.52 27.52 0 0 1 23.04 23.254l7.253 50.986h52.267l7.04-51.84a27.52 27.52 0 0 1 21.333-22.826 231.253 231.253 0 0 0 65.92-27.52 27.52 27.52 0 0 1 32.64 0l41.173 30.933q8.96-7.893 17.494-16.427l2.986-2.986q8.534-8.534 16.214-17.494l-31.574-42.666a27.307 27.307 0 0 1-1.066-31.574 230.613 230.613 0 0 0 27.306-67.2 27.307 27.307 0 0 1 22.827-21.333l50.987-7.253v-52.054l-51.84-7.04a27.307 27.307 0 0 1-23.254-22.4 229.973 229.973 0 0 0-28.16-65.706 27.307 27.307 0 0 1 1.28-30.934l30.934-41.173c-4.694-5.333-10.24-11.52-16.427-17.493l-2.987-2.987c-5.973-5.973-12.16-11.733-17.493-16.213L664.533 182.4a27.52 27.52 0 0 1-31.786 2.347 231.68 231.68 0 0 0-68.054-27.52A27.52 27.52 0 0 1 543.36 134.4l-7.253-50.987h-52.054l-7.04 51.627a27.307 27.307 0 0 1-21.333 22.827 231.253 231.253 0 0 0-64 26.666 27.52 27.52 0 0 1-34.133 0L316.373 153.6c-5.333 4.693-11.52 10.24-17.493 16.427l-2.987 2.986a387.191 387.191 0 0 0-16.426 17.494l30.72 40.32a27.307 27.307 0 0 1 2.56 31.786 230.613 230.613 0 0 0-26.88 64 27.307 27.307 0 0 1-23.254 23.254L211.2 360.533v23.894zM512 544.64A160 160 0 1 1 672 384a160 160 0 0 1-160 160.64z m0-256A96 96 0 1 0 608 384a96 96 0 0 0-96-95.36z"  horiz-adv-x="1024" />

    
    <glyph glyph-name="sousuo1" unicode="&#59362;" d="M927.573 67.84L755.627 209.707a345.173 345.173 0 1 1-66.347-76.8l173.653-143.36a37.973 37.973 0 0 1 53.334 5.12l16.426 19.84a37.973 37.973 0 0 1-5.12 53.333z m-462.72 62.293A263.467 263.467 0 1 0 728.32 393.6a263.68 263.68 0 0 0-263.467-263.467z"  horiz-adv-x="1024" />

    
    <glyph glyph-name="kaiguan-guan" unicode="&#59363;" d="M102.4 383.18c0 113.05 91.443 204.596 204.595 204.596h408.986c112.947 0 204.595-91.546 204.595-204.595 0-112.947-91.443-204.595-204.595-204.595H306.995C194.048 178.688 102.4 270.234 102.4 383.18zM195.38 383.18a130.15 130.15 0 1 1 260.3 0 130.15 130.15 0 1 1-260.3 0zM678.81 404.685l44.236 44.237c5.94 5.939 15.565 5.939 21.504 0 5.94-5.94 5.94-15.565 0-21.504l-44.236-44.237 44.236-44.237c5.94-5.94 5.94-15.565 0-21.504-5.939-5.94-15.564-5.94-21.504 0l-44.236 44.237-44.237-44.237c-5.94-5.94-15.565-5.94-21.504 0-5.94 5.94-5.94 15.565 0 21.504l44.237 44.237-44.237 44.237c-5.94 5.939-5.94 15.564 0 21.504 5.939 5.939 15.565 5.939 21.504 0l44.237-44.237z"  horiz-adv-x="1024" />

    
    <glyph glyph-name="shuwenjianshouqi" unicode="&#59364;" d="M103.629 103.322c0-24.986 20.275-45.261 45.26-45.261h724.48c27.649 0 50.074 22.425 50.074 50.073v437.35H103.63v-442.162zM880.947 618.7h-252.62v34.612c0 33.485-27.239 60.723-60.826 60.723H103.629v-187.29h819.814v49.562c0 23.347-19.046 42.394-42.496 42.394z"  horiz-adv-x="1024" />

    
    <glyph glyph-name="zuixiaohua2" unicode="&#59365;" d="M829.867 465.067v11.306a36.907 36.907 0 0 1-36.907 36.907h-73.387L896 688.853a42.667 42.667 0 0 1-59.947 60.16l-176-176V646.4a36.907 36.907 0 0 1-37.12 36.267h-11.306a36.907 36.907 0 0 1-36.907-36.907v-181.12a36.907 36.907 0 0 1 11.093-26.24 36.48 36.48 0 0 1 26.24-11.093h181.12a36.907 36.907 0 0 1 36.694 37.76z m-393.174-138.24H256a36.907 36.907 0 0 1-36.907-36.907v-11.307A36.907 36.907 0 0 1 256 241.92h73.387l-176.427-176a42.667 42.667 0 0 1 60.373-59.947l176 176v-73.386a36.907 36.907 0 0 1 37.334-36.907h11.306a36.907 36.907 0 0 1 36.907 36.907v181.12a36.907 36.907 0 0 1-11.093 26.24 36.48 36.48 0 0 1-27.094 10.88z m428.8-120.32a42.667 42.667 0 0 1-42.666-42.667v-85.333h-85.334a42.667 42.667 0 1 1 0-85.334h128a42.667 42.667 0 0 1 42.667 42.667v128a42.667 42.667 0 0 1-42.667 42.667z m-682.24 341.76a42.667 42.667 0 0 1 42.667 42.666v85.334h85.333a42.667 42.667 0 1 1 0 85.333h-128a42.667 42.667 0 0 1-42.666-42.667v-128a42.667 42.667 0 0 1 42.666-42.666z"  horiz-adv-x="1024" />

    
    <glyph glyph-name="shangyiye" unicode="&#59366;" d="M304.64 725.333h45.013q23.04 0 23.04-23.04v-636.586q0-23.04-23.04-23.04H304.64q-23.04 0-23.04 23.04V702.293q0 23.04 23.04 23.04zM735.573 593.493L704 625.067a23.04 23.04 0 0 1-32.64 0L494.293 448l-48-48a23.04 23.04 0 0 1 0-32.64l48-47.36 176.854-176.853a23.04 23.04 0 0 1 32.64 0l31.786 31.786a23.04 23.04 0 0 1 0 32.64L558.72 384l176.853 176.853a23.04 23.04 0 0 1 0 32.64z"  horiz-adv-x="1024" />

    
    <glyph glyph-name="hangcaozuoxiala" unicode="&#59367;" d="M295.68 533.333l-32.853-32.853a23.893 23.893 0 0 1 0-33.707L445.44 284.16l49.707-49.493a23.893 23.893 0 0 1 33.706 0l49.707 49.706 182.613 182.614a23.893 23.893 0 0 1 0 33.706l-32.853 32.64a23.893 23.893 0 0 1-33.707 0L512 350.72 329.387 533.333a23.893 23.893 0 0 1-33.707 0z"  horiz-adv-x="1024" />

    
    <glyph glyph-name="shouqi2" unicode="&#59368;" d="M182.857 859.429h658.286c80.457 0 146.286-65.829 146.286-146.286v-658.286c0-80.457-65.829-146.286-146.286-146.286H182.857c-80.457 0-146.286 65.829-146.286 146.286V713.143c0 80.457 65.829 146.286 146.286 146.286zM841.143-128H182.857C80.457-128 0-47.543 0 54.857V713.143C0 815.543 80.457 896 182.857 896h658.286C943.543 896 1024 815.543 1024 713.143v-658.286c0-102.4-80.457-182.857-182.857-182.857zM182.857 822.857c-58.514 0-109.714-51.2-109.714-109.714v-658.286c0-58.514 51.2-109.714 109.714-109.714h658.286c58.514 0 109.714 51.2 109.714 109.714V713.143c0 58.514-51.2 109.714-109.714 109.714H182.857zM365.714 457.143h292.572c43.885 0 73.143-29.257 73.143-73.143s-29.258-73.143-73.143-73.143H365.714c-43.885 0-73.143 29.257-73.143 73.143s29.258 73.143 73.143 73.143z"  horiz-adv-x="1053" />

    
    <glyph glyph-name="shuzhankai" unicode="&#59369;" d="M648.602 452.198h-68.199v68.199c0 37.478-30.72 68.198-68.403 68.403-37.478 0-68.198-30.72-68.198-68.198v-68.199h-68.199c-37.478 0-68.198-30.72-68.198-68.198s30.72-68.199 68.198-68.199h68.199v-68.198c0-37.478 30.72-68.198 68.198-68.198 37.683 0 68.403 30.72 68.403 68.198v68.198h68.199c37.683 0 68.198 30.72 68.403 68.199-0.205 37.273-30.925 67.993-68.403 67.993zM784.18 793.6H240.025c-75.776 0-137.626-61.645-137.626-137.626v-544.153c0-75.776 61.645-137.421 137.626-137.421h544.153c75.776 0 137.421 61.645 137.421 137.42V655.975c0 75.981-61.645 137.626-137.42 137.626z m69.222-681.78c0-38.092-31.13-69.222-69.223-69.222H240.026c-38.093 0-69.223 31.13-69.223 69.223V655.974c0 38.093 31.13 69.223 69.223 69.223h544.153c38.093 0 69.223-31.13 69.223-69.223v-544.153z"  horiz-adv-x="1024" />

    
    <glyph glyph-name="zhengbiaobianji" unicode="&#59370;" d="M457.626 42.803l28.774 29.799 459.162 475.852c19.865 20.583 18.739 54.068-2.56 74.65L730.624 828.314c-21.3 20.582-54.784 20.582-74.65 0L196.71 352.564l-28.774-29.902-21.197-21.913c-7.065-7.27-11.673-16.589-13.414-26.624L61.338-35.123c-2.765-11.981 1.433-24.167 10.035-32.154 8.397-8.294 20.685-12.083 32.46-8.909l307.098 82.842c1.741 0.41 3.38 0.82 5.018 1.331a38.894 38.894 0 0 1 4.813 1.843c5.939 2.663 11.161 6.35 15.667 10.957l21.197 22.016z m237.568 729.498L888.32 585.728 438.17 119.296 245.043 305.869 695.193 772.3zM138.24 2.048l21.811 90.931 68.301-65.945-90.112-24.986z m136.602 37.786l-103.424 99.942 28.672 119.398 16.179 16.794 193.126-186.573-16.179-16.793-118.374-32.768z m0 0"  horiz-adv-x="1024" />

    
    <glyph glyph-name="qingkong1" unicode="&#59371;" d="M218.829-6.656l-5.12 2.458c-31.744 15.155-52.736 42.393-56.115 72.908-1.024 9.319-0.82 23.962 6.144 40.96 7.68 19.047 22.016 36.762 42.393 52.736C238.49 187.7 240.64 273.818 240.64 299.622v7.783l-7.782 0.307c-17.408 0.717-31.847 8.5-39.63 21.3-7.884 13.004-7.884 29.08-0.102 44.236l68.71 132.71c6.145 11.879 17 22.733 30.618 30.618 13.21 7.68 28.058 11.878 41.677 11.878h99.635V717.722c0 31.436 27.034 57.036 60.212 57.036h70.041c33.178 0 60.211-25.6 60.211-57.036v-169.268h95.335c13.619 0 28.467-4.198 41.677-11.878 13.619-7.782 24.473-18.637 30.617-30.618l68.71-132.71c7.885-15.155 7.783-31.232-0.102-44.237-4.813-7.987-12.288-14.131-21.504-17.715l-6.349-2.458 1.23-6.656c5.938-31.539 10.034-66.662 14.54-105.984l0.922-8.192c3.379-29.593 6.758-60.21 11.161-89.6 4.71-31.948-5.12-61.132-27.955-82.227-15.565-14.438-31.437-20.275-35.942-21.709l-3.79-1.228H218.83z m423.219 165.58c-0.41-1.945-0.82-3.89-1.229-6.04v-0.103l-0.102-0.82c-3.584-20.889-9.114-51.609-15.258-79.36a690.786 690.786 0 0 0-4.3-18.636l-2.458-10.138h34.816l2.457 3.38c17.101 23.449 47.412 69.529 58.061 115.097l0.103 0.41 2.252 13.312 50.688-6.144-2.15-10.855c-0.41-1.945-0.82-3.891-1.229-6.041l-0.102-0.41c-6.963-40.96-13.62-74.138-19.661-98.509l-2.56-10.137h42.803l1.741 0.921c3.686 1.843 9.114 5.12 13.926 10.035 9.728 9.728 13.108 21.3 10.855 36.352-4.506 30.004-7.987 60.928-11.367 90.932l-0.102 0.512c-4.813 42.598-9.318 82.841-16.077 116.633l-1.331 6.554H290.918v-8.192c0-25.19-1.74-48.64-4.915-69.837-7.68-50.278-24.064-85.606-48.845-104.96-20.684-16.077-31.13-33.28-29.388-48.435 1.228-10.752 9.01-21.709 20.89-29.184l2.047-1.229h72.704l2.458 3.38c17.1 23.449 47.513 69.631 58.06 115.097l0.103 0.512 0.614 3.379 1.639 9.626 50.688-6.042-2.15-10.854c-0.41-1.946-0.82-3.994-1.23-6.042l-0.102-0.41c-3.584-21.094-9.216-52.019-15.36-79.974a690.786 690.786 0 0 0-4.3-18.637l-2.458-10.137h17.305l2.458 3.379c17.1 23.45 47.514 69.632 58.06 115.097l0.103 0.512 0.615 3.38 1.638 9.625 50.688-6.041-2.15-10.855a206.57 206.57 0 0 1-1.23-6.041v-0.205c-3.583-21.197-9.215-52.224-15.36-80.077a965.772 965.772 0 0 0-4.3-18.534l-2.458-10.138h34.407l2.457 3.38c17.101 23.449 47.412 69.426 58.061 115.097l0.103 0.41 2.252 13.311 50.688-6.144-2.662-11.161z m-308.02 339.15c-9.727 0-23.654-7.68-27.545-15.156L241.87 358.195h569.753l-64.614 124.723c-3.891 7.476-17.818 15.156-27.546 15.156H573.85V721.306l-5.12 2.048c-1.434 0.614-3.072 0.921-4.71 0.921h-70.042c-1.639 0-3.277-0.307-4.71-0.921l-5.12-2.048V497.97h-150.12z"  horiz-adv-x="1024" />

    
    <glyph glyph-name="zhengbiaobianji1" unicode="&#59372;" d="M44.81-62.523h2672.488V-128H44.811z m430.82 154.178l28.748 29.772 458.749 475.425c19.848 20.564 18.722 54.018-2.558 74.582L748.382 876.46c-21.28 20.564-54.734 20.564-74.582 0L214.949 401.137 186.2 371.263l-21.177-21.894c-7.06-7.264-11.663-16.574-13.403-26.6l-71.922-308.97c-2.762-11.97 1.432-24.145 10.026-32.125 8.39-8.287 20.666-12.072 32.432-8.9l306.821 82.766c1.74 0.41 3.376 0.819 5.013 1.33a38.86 38.86 0 0 1 4.809 1.842c5.934 2.66 11.151 6.343 15.653 10.947l21.178 21.996zM712.984 820.497l192.953-186.405L456.19 168.079 263.238 354.484 712.984 820.497zM156.53 50.937l21.792 90.849 68.24-65.886-90.032-24.963z m136.479 37.751l-103.331 99.853 28.646 119.29 16.165 16.78 192.953-186.406-16.165-16.778-118.268-32.739z m0 0"  horiz-adv-x="2762" />

    
    <glyph glyph-name="tongzhixinxi" unicode="&#58881;" d="M512 799C282.8 799 97 613.2 97 384s185.8-415 415-415 415 185.8 415 415S741.2 799 512 799z m0-622.5c-19.1 0-34.6 15.5-34.6 34.6V418.6c0 19.1 15.5 34.6 34.6 34.6s34.6-15.5 34.6-34.6v-207.5c0-19.1-15.5-34.6-34.6-34.6z m0 345.8c-19.1 0-34.6 15.5-34.6 34.6s15.5 34.6 34.6 34.6 34.6-15.5 34.6-34.6-15.5-34.6-34.6-34.6z"  horiz-adv-x="1024" />

    
    <glyph glyph-name="yibohui" unicode="&#58882;" d="M512-31C282.8-31 97 154.8 97 384S282.8 799 512 799s415-185.8 415-415-185.8-415-415-415z m5.2 674.4c-22.9 0-41.5-18.6-41.5-41.5v-332c0-22.9 18.6-41.5 41.5-41.5s41.5 18.6 41.5 41.5v332c0 22.9-18.6 41.5-41.5 41.5z m0-466.9c-22.9 0-41.5-18.6-41.5-41.5s18.6-41.5 41.5-41.5 41.5 18.6 41.5 41.5-18.6 41.5-41.5 41.5z"  horiz-adv-x="1024" />

    
    <glyph glyph-name="yishenhe" unicode="&#58883;" d="M512 799c229.2 0 415-185.8 415-415S741.1-31 512-31 97 154.9 97 384 282.8 799 512 799z m-41.5-539.5L357.9 383.1c-0.3 0.3-0.5 0.6-0.8 0.8-12 12.2-31.6 12.4-43.9 0.4-12.8-12.5-13.2-33-1-46l158.2-168.9 45.9 45.1 237 279.3c11.7 13.8 10.8 34.4-2.2 47.1-0.5 0.5-1 1-1.6 1.4-12.6 10.7-31.5 9.2-42.2-3.5L470.5 259.5z"  horiz-adv-x="1024" />

    


  </font>
</defs>
</svg>
