<?xml version="1.0" encoding="UTF-8"?>
<svg width="30px" height="30px" viewBox="0 0 30 30" version="1.1" xmlns="http://www.w3.org/2000/svg" xmlns:xlink="http://www.w3.org/1999/xlink">
    <!-- Generator: Sketch 57.1 (83088) - https://sketch.com -->
    <title>icon/文件格式/ai</title>
    <desc>Created with Sketch.</desc>
    <g id="icon/文件格式/ai" stroke="none" stroke-width="1" fill="none" fill-rule="evenodd">
        <g id="Shape">
            <path d="M4.390625,1.66533454e-15 C3.078125,1.66533454e-15 2,1.078125 2,2.390625 L2,27.609375 C2,28.921875 3.078125,30 4.390625,30 L25.859375,30 C27.125,30 28.203125,28.921875 28.203125,27.609375 L28.203125,9.515625 L19.34375,0 L4.390625,0 L4.390625,1.66533454e-15 Z" fill="#FFC35E"></path>
            <path d="M28.203125,9.5625 L28.203125,10.03125 L22.203125,10.03125 C22.203125,10.03125 19.25,9.421875 19.34375,6.84375 C19.34375,6.84375 19.4375,9.5625 22.15625,9.5625 L28.203125,9.5625 L28.203125,9.5625 Z" fill="#FFB446"></path>
            <path d="M19.34375,0 L19.34375,6.84375 C19.34375,7.59375 19.859375,9.5625 22.203125,9.5625 L28.203125,9.5625 L19.34375,0 L19.34375,0 Z" fill="#FFFFFF" opacity="0.5"></path>
            <path d="M11.421875,25.265625 C11.28125,25.265625 11.140625,25.171875 11.09375,25.03125 L10.671875,24 L7.859375,24 L7.4375,25.03125 C7.390625,25.171875 7.25,25.265625 7.109375,25.265625 C6.921875,25.265625 6.734375,25.078125 6.734375,24.890625 C6.734375,24.84375 6.734375,24.796875 6.78125,24.75 L8.703125,19.921875 C8.796875,19.6875 9.03125,19.546875 9.265625,19.546875 C9.546875,19.546875 9.734375,19.6875 9.828125,19.921875 L11.796875,24.75 L11.796875,24.890625 C11.796875,25.078125 11.65625,25.265625 11.421875,25.265625 L11.421875,25.265625 Z M9.265625,20.34375 L8.09375,23.34375 L10.484375,23.34375 L9.265625,20.34375 Z M13.25,25.265625 C13.0625,25.265625 12.921875,25.125 12.921875,24.9375 L12.921875,19.875 C12.921875,19.6875 13.0625,19.546875 13.296875,19.546875 C13.484375,19.546875 13.625,19.6875 13.625,19.875 L13.625,24.9375 C13.625,25.125 13.484375,25.265625 13.25,25.265625 L13.25,25.265625 Z" fill="#FFFFFF"></path>
        </g>
    </g>
</svg>