<?xml version="1.0" encoding="UTF-8"?>
<svg width="30px" height="30px" viewBox="0 0 30 30" version="1.1" xmlns="http://www.w3.org/2000/svg" xmlns:xlink="http://www.w3.org/1999/xlink">
    <!-- Generator: Sketch 57.1 (83088) - https://sketch.com -->
    <title>icon/文件格式/attachment</title>
    <desc>Created with Sketch.</desc>
    <g id="icon/文件格式/attachment" stroke="none" stroke-width="1" fill="none" fill-rule="evenodd">
        <g id="Shape">
            <path d="M4.390625,1.66533454e-15 C3.078125,1.66533454e-15 2,1.03125 2,2.34375 L2,27.609375 C2,28.921875 3.078125,30 4.390625,30 L25.859375,30 C27.171875,30 28.25,28.921875 28.25,27.609375 L28.25,9.515625 L19.390625,0 L4.390625,0 L4.390625,1.66533454e-15 Z" fill="#8199AF"></path>
            <path d="M28.25,9.5625 L28.25,10.03125 L22.25,10.03125 C22.25,10.03125 19.296875,9.421875 19.34375,6.84375 C19.34375,6.84375 19.484375,9.5625 22.203125,9.5625 L28.25,9.5625 Z" fill="#617F9B"></path>
            <path d="M19.390625,0 L19.390625,6.84375 C19.390625,7.59375 19.90625,9.5625 22.25,9.5625 L28.25,9.5625 L19.390625,0 Z" fill="#FFFFFF" opacity="0.5"></path>
            <path d="M14.46875,19.453125 C14.984375,18.890625 14.984375,18.046875 14.46875,17.484375 C13.953125,16.921875 13.0625,16.96875 12.546875,17.484375 L8.234375,21.796875 C7.71875,22.3125 7.71875,23.203125 8.234375,23.71875 C8.75,24.234375 9.640625,24.28125 10.15625,23.71875 L12.828125,21.09375 C12.96875,20.953125 12.96875,20.71875 12.828125,20.578125 C12.6875,20.4375 12.40625,20.390625 12.265625,20.578125 L10.578125,22.21875 C10.34375,22.453125 10.015625,22.453125 9.78125,22.21875 C9.546875,21.984375 9.546875,21.609375 9.78125,21.375 L11.421875,19.734375 C12.03125,19.125 13.015625,19.125 13.625,19.734375 C14.234375,20.34375 14.234375,21.328125 13.625,21.9375 L11,24.5625 C10.015625,25.546875 8.421875,25.546875 7.390625,24.5625 C6.40625,23.578125 6.40625,21.984375 7.390625,21 L11.703125,16.6875 C12.6875,15.703125 14.328125,15.703125 15.3125,16.6875 C16.296875,17.671875 16.296875,19.265625 15.3125,20.25 L14.890625,20.671875 C14.84375,20.25 14.703125,19.828125 14.421875,19.453125 L14.46875,19.453125 L14.46875,19.453125 Z" fill="#FFFFFF"></path>
        </g>
    </g>
</svg>