<?xml version="1.0" encoding="UTF-8"?>
<svg width="30px" height="30px" viewBox="0 0 30 30" version="1.1" xmlns="http://www.w3.org/2000/svg" xmlns:xlink="http://www.w3.org/1999/xlink">
    <!-- Generator: Sketch 57.1 (83088) - https://sketch.com -->
    <title>icon/文件格式/audio</title>
    <desc>Created with Sketch.</desc>
    <g id="icon/文件格式/audio" stroke="none" stroke-width="1" fill="none" fill-rule="evenodd">
        <g id="Shape">
            <path d="M4.4375,1.66533454e-15 C3.125,1.66533454e-15 2.046875,1.078125 2.046875,2.390625 L2.046875,27.609375 C2.046875,28.921875 3.125,30 4.4375,30 L25.859375,30 C27.171875,30 28.25,28.921875 28.25,27.609375 L28.25,9.515625 L19.390625,0 L4.4375,0 L4.4375,1.66533454e-15 Z" fill="#379FD3"></path>
            <path d="M28.25,9.5625 L28.25,10.03125 L22.25,10.03125 C22.25,10.03125 19.296875,9.421875 19.390625,6.84375 C19.390625,6.84375 19.484375,9.5625 22.203125,9.5625 L28.25,9.5625 Z" fill="#2987C8"></path>
            <path d="M19.390625,0 L19.390625,6.84375 C19.390625,7.59375 19.90625,9.5625 22.25,9.5625 L28.25,9.5625 L19.390625,0 Z" fill="#FFFFFF" opacity="0.5"></path>
            <path d="M15.96875,15.9375 L9.3125,16.828125 L9.3125,23.109375 C8.984375,23.015625 8.5625,22.96875 8.140625,23.0625 C7.203125,23.25 6.59375,23.859375 6.78125,24.421875 C6.96875,25.03125 7.859375,25.3125 8.796875,25.125 C9.640625,24.984375 10.203125,24.46875 10.203125,23.953125 L10.203125,23.953125 L10.203125,18.9375 L15.078125,18.328125 L15.078125,22.21875 C14.75,22.125 14.328125,22.125 13.90625,22.21875 C12.921875,22.40625 12.3125,23.015625 12.5,23.578125 C12.6875,24.140625 13.578125,24.46875 14.5625,24.28125 C15.40625,24.09375 16.015625,23.578125 15.96875,23.0625 L15.96875,15.9375 L15.96875,15.9375 Z" fill="#FFFFFF"></path>
        </g>
    </g>
</svg>