<?xml version="1.0" encoding="UTF-8"?>
<svg width="30px" height="30px" viewBox="0 0 30 30" version="1.1" xmlns="http://www.w3.org/2000/svg" xmlns:xlink="http://www.w3.org/1999/xlink">
    <!-- Generator: Sketch 57.1 (83088) - https://sketch.com -->
    <title>icon/文件格式/box_notes</title>
    <desc>Created with Sketch.</desc>
    <g id="icon/文件格式/box_notes" stroke="none" stroke-width="1" fill="none" fill-rule="evenodd">
        <g id="Shape">
            <path d="M4.390625,1.66533454e-15 C3.078125,1.66533454e-15 2,1.078125 2,2.390625 L2,27.609375 C2,28.921875 3.078125,30 4.390625,30 L25.859375,30 C27.171875,30 28.25,28.921875 28.25,27.609375 L28.25,9.515625 L19.390625,0 L4.390625,0 L4.390625,1.66533454e-15 Z" fill="#277A84"></path>
            <path d="M28.25,9.5625 L28.25,10.03125 L22.25,10.03125 C22.25,10.03125 19.25,9.421875 19.34375,6.890625 C19.34375,6.890625 19.4375,9.5625 22.15625,9.5625 L28.25,9.5625 Z" fill="#1E5B60"></path>
            <path d="M19.390625,0 L19.390625,6.84375 C19.390625,7.59375 19.90625,9.5625 22.25,9.5625 L28.25,9.5625 L19.390625,0 Z" fill="#FFFFFF" opacity="0.5"></path>
            <path d="M14.703125,18.421875 L15.6875,17.4375 L6.921875,17.4375 C6.921875,17.4375 6.734375,17.4375 6.734375,17.625 L6.734375,18.28125 C6.734375,18.375 6.828125,18.421875 6.921875,18.421875 L14.703125,18.421875 L14.703125,18.421875 Z M11.28125,21.84375 L12.265625,20.859375 L6.921875,20.859375 C6.921875,20.859375 6.734375,20.859375 6.734375,21.046875 L6.734375,21.65625 C6.734375,21.65625 6.828125,21.84375 6.921875,21.84375 L11.28125,21.84375 L11.28125,21.84375 Z M8.890625,25.265625 L9.03125,24.28125 L6.921875,24.28125 C6.921875,24.28125 6.734375,24.28125 6.734375,24.46875 L6.734375,25.078125 C6.734375,25.171875 6.828125,25.265625 6.921875,25.265625 L8.890625,25.265625 L8.890625,25.265625 Z M9.3125,25.265625 C9.3125,25.265625 10.109375,25.21875 10.25,25.21875 C10.390625,25.171875 10.4375,25.125 10.484375,25.078125 L16.625,18.9375 C16.625,18.9375 16.390625,19.125 15.875,18.609375 C15.5,18.1875 15.6875,17.953125 15.6875,17.953125 C15.6875,17.953125 9.6875,23.90625 9.59375,24.046875 C9.453125,24.140625 9.453125,24.234375 9.453125,24.28125 C9.453125,24.328125 9.3125,25.265625 9.3125,25.265625 Z M16.390625,17.203125 C16.296875,17.296875 15.96875,17.671875 15.921875,17.71875 C15.875,17.765625 15.828125,17.8125 15.875,18 C15.921875,18.140625 16.203125,18.609375 16.625,18.75 C16.625,18.75 16.765625,18.796875 16.90625,18.65625 C17,18.5625 17.421875,18.1875 17.421875,18.1875 C17.421875,18.1875 17.515625,18.09375 17.421875,17.859375 C17.328125,17.671875 17.046875,17.296875 16.671875,17.15625 C16.484375,17.0625 16.390625,17.203125 16.390625,17.203125 Z" fill="#FFFFFF"></path>
        </g>
    </g>
</svg>