<?xml version="1.0" encoding="UTF-8"?>
<svg width="30px" height="30px" viewBox="0 0 30 30" version="1.1" xmlns="http://www.w3.org/2000/svg" xmlns:xlink="http://www.w3.org/1999/xlink">
    <!-- Generator: Sketch 57.1 (83088) - https://sketch.com -->
    <title>icon/文件格式/eps</title>
    <desc>Created with Sketch.</desc>
    <g id="icon/文件格式/eps" stroke="none" stroke-width="1" fill="none" fill-rule="evenodd">
        <g transform="translate(2.000000, 0.000000)" id="Shape">
            <path d="M2.390625,1.66533454e-15 C1.078125,1.66533454e-15 0,1.078125 0,2.390625 L0,27.609375 C0,28.921875 1.078125,30 2.390625,30 L23.859375,30 C25.171875,30 26.25,28.921875 26.25,27.609375 L26.25,9.515625 L17.390625,0 L2.390625,0 L2.390625,1.66533454e-15 Z" fill="#FFC35E"></path>
            <path d="M8.15625,25.265625 L5.25,25.265625 C4.96875,25.265625 4.734375,25.03125 4.734375,24.75 L4.734375,20.15625 C4.734375,19.875 4.96875,19.640625 5.25,19.640625 L8.15625,19.640625 C8.34375,19.640625 8.484375,19.78125 8.484375,19.96875 C8.484375,20.109375 8.34375,20.25 8.15625,20.25 L5.4375,20.25 L5.4375,22.078125 L8.109375,22.078125 C8.296875,22.078125 8.4375,22.21875 8.4375,22.40625 C8.4375,22.546875 8.296875,22.6875 8.109375,22.6875 L5.4375,22.6875 L5.4375,24.65625 L8.15625,24.65625 C8.34375,24.65625 8.484375,24.796875 8.484375,24.9375 C8.484375,25.125 8.34375,25.265625 8.15625,25.265625 L8.15625,25.265625 Z M12,23.015625 L10.453125,23.015625 L10.453125,24.984375 C10.453125,25.171875 10.3125,25.3125 10.125,25.3125 C9.890625,25.3125 9.75,25.171875 9.75,24.984375 L9.75,20.15625 C9.75,19.875 9.984375,19.640625 10.265625,19.640625 L12,19.640625 C13.171875,19.640625 13.78125,20.4375 13.78125,21.328125 C13.78125,22.265625 13.125,23.015625 12,23.015625 Z M11.953125,20.25 L10.453125,20.25 L10.453125,22.40625 L11.953125,22.40625 C12.609375,22.40625 13.078125,21.984375 13.078125,21.328125 C13.078125,20.71875 12.609375,20.25 11.953125,20.25 L11.953125,20.25 Z M16.734375,25.359375 C15.890625,25.359375 15.234375,25.078125 14.765625,24.65625 C14.671875,24.609375 14.671875,24.515625 14.671875,24.421875 C14.671875,24.234375 14.765625,24.046875 15,24.046875 C15.046875,24.046875 15.140625,24.09375 15.1875,24.140625 C15.5625,24.46875 16.125,24.75 16.78125,24.75 C17.765625,24.75 18.09375,24.1875 18.09375,23.765625 C18.09375,22.3125 14.765625,23.109375 14.765625,21.09375 C14.765625,20.203125 15.609375,19.546875 16.6875,19.546875 C17.4375,19.546875 18.046875,19.78125 18.515625,20.15625 C18.5625,20.203125 18.609375,20.296875 18.609375,20.390625 C18.609375,20.578125 18.46875,20.765625 18.28125,20.765625 C18.234375,20.765625 18.140625,20.71875 18.09375,20.671875 C17.671875,20.34375 17.15625,20.203125 16.640625,20.203125 C15.984375,20.203125 15.46875,20.53125 15.46875,21.09375 C15.46875,22.359375 18.796875,21.609375 18.796875,23.71875 C18.796875,24.515625 18.28125,25.359375 16.734375,25.359375 L16.734375,25.359375 Z" fill="#FFFFFF"></path>
            <path d="M26.25,9.5625 L26.25,10.03125 L20.25,10.03125 C19.125,10.03125 17.296875,9.421875 17.390625,6.84375 C17.390625,6.84375 17.484375,9.5625 20.203125,9.5625 L26.25,9.5625 Z" fill="#FFB446"></path>
            <path d="M17.390625,0 L17.390625,6.84375 C17.390625,7.59375 17.90625,9.5625 20.25,9.5625 L26.25,9.5625 L17.390625,0 Z" fill="#FFFFFF" opacity="0.5"></path>
        </g>
    </g>
</svg>