<?xml version="1.0" encoding="UTF-8"?>
<svg width="30px" height="30px" viewBox="0 0 30 30" version="1.1" xmlns="http://www.w3.org/2000/svg" xmlns:xlink="http://www.w3.org/1999/xlink">
    <!-- Generator: Sketch 57.1 (83088) - https://sketch.com -->
    <title>icon/文件格式/excel</title>
    <desc>Created with Sketch.</desc>
    <g id="icon/文件格式/excel" stroke="none" stroke-width="1" fill="none" fill-rule="evenodd">
        <g transform="translate(2.000000, 0.000000)" id="Shape">
            <path d="M2.390625,1.66533454e-15 C1.078125,1.66533454e-15 0,1.078125 0,2.390625 L0,27.609375 C0,28.921875 1.078125,30 2.390625,30 L23.859375,30 C25.171875,30 26.25,28.921875 26.25,27.609375 L26.25,9.515625 L17.390625,0 L2.390625,0 L2.390625,1.66533454e-15 Z" fill="#45B058"></path>
            <path d="M26.25,9.5625 L26.25,10.03125 L20.25,10.03125 C20.25,10.03125 17.25,9.421875 17.34375,6.84375 C17.34375,6.84375 17.4375,9.5625 20.15625,9.5625 L26.25,9.5625 Z" fill="#349C42"></path>
            <path d="M17.34375,0 L17.34375,6.84375 C17.34375,7.59375 17.90625,9.5625 20.25,9.5625 L26.25,9.5625 L17.34375,0 Z" fill="#FFFFFF" opacity="0.5"></path>
        </g>
        <polygon id="X" fill="#FFFFFF" fill-rule="nonzero" points="6 25 9.192 20.058 6.266 15.284 7.736 15.284 10.046 19.274 10.13 19.274 12.594 15.284 13.966 15.284 10.928 19.974 14.078 25 12.608 25 10.116 20.828 10.032 20.828 7.414 25"></polygon>
    </g>
</svg>