<?xml version="1.0" encoding="UTF-8"?>
<svg width="30px" height="30px" viewBox="0 0 30 30" version="1.1" xmlns="http://www.w3.org/2000/svg" xmlns:xlink="http://www.w3.org/1999/xlink">
    <!-- Generator: Sketch 57.1 (83088) - https://sketch.com -->
    <title>icon/文件格式/exe</title>
    <desc>Created with Sketch.</desc>
    <g id="icon/文件格式/exe" stroke="none" stroke-width="1" fill="none" fill-rule="evenodd">
        <g transform="translate(2.000000, 0.000000)" id="Shape">
            <path d="M2.390625,1.66533454e-15 C1.078125,1.66533454e-15 0,1.078125 0,2.390625 L0,27.609375 C0,28.921875 1.078125,30 2.390625,30 L23.859375,30 C25.171875,30 26.25,28.921875 26.25,27.609375 L26.25,9.515625 L17.390625,0 L2.390625,0 L2.390625,1.66533454e-15 Z" fill="#8199AF"></path>
            <path d="M26.25,9.5625 L26.25,10.03125 L20.25,10.03125 C20.25,10.03125 17.296875,9.421875 17.34375,6.890625 C17.34375,6.890625 17.4375,9.5625 20.15625,9.5625 L26.25,9.5625 Z" fill="#617F9B"></path>
            <path d="M17.390625,0 L17.390625,6.84375 C17.390625,7.59375 17.90625,9.5625 20.25,9.5625 L26.25,9.5625 L17.390625,0 Z" fill="#FFFFFF" opacity="0.5"></path>
            <path d="M8.203125,25.265625 L5.25,25.265625 C4.96875,25.265625 4.734375,25.03125 4.734375,24.75 L4.734375,20.15625 C4.734375,19.875 4.96875,19.640625 5.25,19.640625 L8.203125,19.640625 C8.34375,19.640625 8.484375,19.78125 8.484375,19.96875 C8.484375,20.15625 8.34375,20.25 8.203125,20.25 L5.4375,20.25 L5.4375,22.078125 L8.109375,22.078125 C8.296875,22.078125 8.4375,22.21875 8.4375,22.40625 C8.4375,22.59375 8.296875,22.6875 8.109375,22.6875 L5.4375,22.6875 L5.4375,24.65625 L8.203125,24.65625 C8.34375,24.65625 8.484375,24.796875 8.484375,24.9375 C8.484375,25.125 8.34375,25.265625 8.203125,25.265625 L8.203125,25.265625 Z M13.875,25.3125 C13.734375,25.3125 13.640625,25.3125 13.59375,25.21875 L11.859375,22.875 L10.078125,25.21875 C10.03125,25.3125 9.9375,25.3125 9.84375,25.3125 C9.65625,25.3125 9.515625,25.171875 9.515625,24.984375 C9.515625,24.9375 9.515625,24.84375 9.5625,24.796875 L11.390625,22.40625 L9.703125,20.109375 C9.65625,20.0625 9.609375,20.015625 9.609375,19.921875 C9.609375,19.78125 9.75,19.59375 9.984375,19.59375 C10.078125,19.59375 10.171875,19.640625 10.21875,19.734375 L11.859375,21.890625 L13.453125,19.734375 C13.5,19.640625 13.59375,19.59375 13.734375,19.59375 C13.875,19.59375 14.0625,19.734375 14.0625,19.921875 C14.0625,20.015625 14.0625,20.0625 14.015625,20.109375 L12.328125,22.359375 L14.109375,24.796875 C14.15625,24.84375 14.203125,24.9375 14.203125,24.984375 C14.203125,25.171875 14.015625,25.3125 13.875,25.3125 Z M18.890625,25.265625 L15.984375,25.265625 C15.703125,25.265625 15.46875,25.03125 15.46875,24.75 L15.46875,20.15625 C15.46875,19.875 15.703125,19.640625 15.984375,19.640625 L18.890625,19.640625 C19.078125,19.640625 19.21875,19.78125 19.21875,19.96875 C19.21875,20.15625 19.078125,20.25 18.890625,20.25 L16.171875,20.25 L16.171875,22.078125 L18.84375,22.078125 C19.03125,22.078125 19.171875,22.21875 19.171875,22.40625 C19.171875,22.59375 19.03125,22.6875 18.84375,22.6875 L16.171875,22.6875 L16.171875,24.65625 L18.890625,24.65625 C19.078125,24.65625 19.21875,24.796875 19.21875,24.9375 C19.21875,25.125 19.078125,25.265625 18.890625,25.265625 L18.890625,25.265625 Z" fill="#FFFFFF"></path>
        </g>
    </g>
</svg>