<?xml version="1.0" encoding="UTF-8"?>
<svg width="30px" height="30px" viewBox="0 0 30 30" version="1.1" xmlns="http://www.w3.org/2000/svg" xmlns:xlink="http://www.w3.org/1999/xlink">
    <!-- Generator: Sketch 57.1 (83088) - https://sketch.com -->
    <title>icon/文件格式/gdocs</title>
    <desc>Created with Sketch.</desc>
    <g id="icon/文件格式/gdocs" stroke="none" stroke-width="1" fill="none" fill-rule="evenodd">
        <g id="Shape">
            <path d="M4.390625,1.66533454e-15 C3.078125,1.66533454e-15 2,1.078125 2,2.390625 L2,27.609375 C2,28.921875 3.078125,30 4.390625,30 L25.859375,30 C27.171875,30 28.25,28.921875 28.25,27.609375 L28.25,9.515625 L19.390625,0 L4.390625,0 L4.390625,1.66533454e-15 Z" fill="#3C8CEA"></path>
            <path d="M28.25,9.5625 L28.25,10.03125 L22.25,10.03125 C22.25,10.03125 19.25,9.421875 19.34375,6.890625 C19.34375,6.890625 19.4375,9.5625 22.15625,9.5625 L28.25,9.5625 Z" fill="#2D6FE4"></path>
            <path d="M19.390625,0 L19.390625,6.84375 C19.390625,7.59375 19.90625,9.5625 22.25,9.5625 L28.25,9.5625 L19.390625,0 Z" fill="#FFFFFF" opacity="0.5"></path>
            <path d="M13.90625,24.75 L12.40625,25.125 C11.796875,25.21875 11.28125,25.265625 10.71875,25.265625 C7.859375,25.265625 6.734375,23.15625 6.734375,21.515625 C6.734375,19.5 8.28125,17.625 10.953125,17.625 C11.515625,17.625 12.03125,17.71875 12.546875,17.859375 C13.296875,18.09375 13.671875,18.375 13.90625,18.515625 L13.015625,19.3125 L12.6875,19.40625 L12.921875,18.984375 C12.59375,18.65625 11.9375,18 10.71875,18 C9.078125,18 7.859375,19.265625 7.859375,21.09375 C7.859375,23.015625 9.265625,24.84375 11.515625,24.84375 C12.171875,24.84375 12.5,24.75 12.828125,24.609375 L12.828125,22.921875 L11.28125,23.015625 L12.078125,22.59375 L14.28125,22.59375 L14,22.828125 C13.953125,22.875 13.953125,22.921875 13.90625,23.015625 L13.90625,23.484375 L13.90625,24.75 L13.90625,24.75 Z" fill="#FFFFFF"></path>
        </g>
    </g>
</svg>