<?xml version="1.0" encoding="UTF-8"?>
<svg width="30px" height="30px" viewBox="0 0 30 30" version="1.1" xmlns="http://www.w3.org/2000/svg" xmlns:xlink="http://www.w3.org/1999/xlink">
    <!-- Generator: Sketch 57.1 (83088) - https://sketch.com -->
    <title>icon/文件格式/gdoc</title>
    <desc>Created with Sketch.</desc>
    <g id="icon/文件格式/gdoc" stroke="none" stroke-width="1" fill="none" fill-rule="evenodd">
        <g id="Shape">
            <path d="M4.390625,1.66533454e-15 C3.078125,1.66533454e-15 2,1.078125 2,2.390625 L2,27.609375 C2,28.921875 3.078125,30 4.390625,30 L25.859375,30 C27.171875,30 28.25,28.921875 28.25,27.609375 L28.25,9.515625 L19.390625,0 L4.390625,0 L4.390625,1.66533454e-15 Z" fill="#3C8CEA"></path>
            <path d="M6.734375,17.53125 L16.859375,17.53125 L16.859375,18.515625 L6.734375,18.515625 L6.734375,17.53125 Z M6.734375,19.78125 L16.859375,19.78125 L16.859375,20.765625 L6.734375,20.765625 L6.734375,19.78125 Z M6.734375,22.03125 L16.859375,22.03125 L16.859375,23.015625 L6.734375,23.015625 L6.734375,22.03125 Z M6.734375,24.28125 L12.5,24.28125 L12.5,25.265625 L6.734375,25.265625 L6.734375,24.28125 Z" fill="#FFFFFF"></path>
            <path d="M28.25,9.5625 L28.25,10.03125 L22.25,10.03125 C22.25,10.03125 19.25,9.421875 19.34375,6.890625 C19.34375,6.890625 19.4375,9.5625 22.15625,9.5625 L28.25,9.5625 Z" fill="#2D6FE4"></path>
            <path d="M19.390625,0 L19.390625,6.84375 C19.390625,7.59375 19.90625,9.5625 22.25,9.5625 L28.25,9.5625 L19.390625,0 Z" fill="#FFFFFF" opacity="0.5"></path>
        </g>
    </g>
</svg>