<?xml version="1.0" encoding="UTF-8"?>
<svg width="30px" height="30px" viewBox="0 0 30 30" version="1.1" xmlns="http://www.w3.org/2000/svg" xmlns:xlink="http://www.w3.org/1999/xlink">
    <!-- Generator: Sketch 57.1 (83088) - https://sketch.com -->
    <title>icon/文件格式/gform</title>
    <desc>Created with Sketch.</desc>
    <g id="icon/文件格式/gform" stroke="none" stroke-width="1" fill="none" fill-rule="evenodd">
        <g id="Shape">
            <path d="M4.390625,1.66533454e-15 C3.078125,1.66533454e-15 2,1.03125 2,2.34375 L2,27.609375 C2,28.921875 3.078125,30 4.390625,30 L25.859375,30 C27.171875,30 28.25,28.921875 28.25,27.609375 L28.25,9.515625 L19.390625,0 L4.390625,0 L4.390625,1.66533454e-15 Z" fill="#673AB7"></path>
            <path d="M28.25,9.5625 L28.25,10.03125 L22.25,10.03125 C22.25,10.03125 19.296875,9.421875 19.34375,6.84375 C19.34375,6.84375 19.484375,9.5625 22.203125,9.5625 L28.25,9.5625 Z" fill="#45317C"></path>
            <path d="M19.390625,0 L19.390625,6.84375 C19.390625,7.59375 19.90625,9.5625 22.25,9.5625 L28.25,9.5625 L19.390625,0 Z" fill="#FFFFFF" opacity="0.5"></path>
            <path d="M7.953125,18.46875 C7.953125,18.28125 7.8125,18.140625 7.625,18.140625 L7.015625,18.140625 C6.828125,18.140625 6.6875,18.28125 6.6875,18.46875 L6.6875,19.078125 C6.6875,19.265625 6.828125,19.40625 7.015625,19.40625 L7.625,19.40625 C7.8125,19.40625 7.953125,19.265625 7.953125,19.078125 L7.953125,18.46875 Z M16.765625,18.46875 C16.765625,18.28125 16.625,18.140625 16.4375,18.140625 L9.078125,18.140625 C8.890625,18.140625 8.75,18.28125 8.75,18.46875 L8.75,19.078125 C8.75,19.265625 8.890625,19.40625 9.078125,19.40625 L16.4375,19.40625 C16.625,19.40625 16.765625,19.265625 16.765625,19.078125 L16.765625,18.46875 Z M7.953125,21.421875 C7.953125,21.234375 7.8125,21.09375 7.625,21.09375 L7.015625,21.09375 C6.828125,21.09375 6.6875,21.234375 6.6875,21.421875 L6.6875,22.03125 C6.6875,22.21875 6.828125,22.359375 7.015625,22.359375 L7.625,22.359375 C7.8125,22.359375 7.953125,22.21875 7.953125,22.03125 L7.953125,21.421875 Z M16.765625,21.421875 C16.765625,21.234375 16.578125,21.09375 16.390625,21.09375 L9.125,21.09375 C8.9375,21.09375 8.75,21.234375 8.75,21.421875 L8.75,22.03125 C8.75,22.21875 8.9375,22.359375 9.125,22.359375 L16.390625,22.359375 C16.578125,22.359375 16.765625,22.21875 16.765625,22.03125 L16.765625,21.421875 Z M7.953125,24.328125 C7.953125,24.140625 7.8125,24 7.625,24 L7.015625,24 C6.828125,24 6.6875,24.140625 6.6875,24.328125 L6.6875,24.9375 C6.6875,25.125 6.828125,25.265625 7.015625,25.265625 L7.625,25.265625 C7.8125,25.265625 7.953125,25.125 7.953125,24.9375 L7.953125,24.328125 Z M16.765625,24.328125 C16.765625,24.140625 16.625,24 16.4375,24 L9.078125,24 C8.890625,24 8.75,24.140625 8.75,24.328125 L8.75,24.9375 C8.75,25.125 8.890625,25.265625 9.078125,25.265625 L16.4375,25.265625 C16.625,25.265625 16.765625,25.125 16.765625,24.9375 L16.765625,24.328125 Z" fill="#FFFFFF"></path>
        </g>
    </g>
</svg>