<?xml version="1.0" encoding="UTF-8"?>
<svg width="30px" height="30px" viewBox="0 0 30 30" version="1.1" xmlns="http://www.w3.org/2000/svg" xmlns:xlink="http://www.w3.org/1999/xlink">
    <!-- Generator: Sketch 57.1 (83088) - https://sketch.com -->
    <title>icon/文件格式/gpres</title>
    <desc>Created with Sketch.</desc>
    <g id="icon/文件格式/gpres" stroke="none" stroke-width="1" fill="none" fill-rule="evenodd">
        <g id="Shape">
            <path d="M4.390625,1.66533454e-15 C3.078125,1.66533454e-15 2,1.078125 2,2.390625 L2,27.609375 C2,28.921875 3.078125,30 4.390625,30 L25.859375,30 C27.171875,30 28.25,28.921875 28.25,27.609375 L28.25,9.515625 L19.390625,0 L4.390625,0 L4.390625,1.66533454e-15 Z" fill="#F8BE46"></path>
            <path d="M6.734375,17.578125 L6.734375,23.15625 L12.546875,23.15625 L12.546875,17.578125 L6.734375,17.578125 Z M12.03125,22.078125 L7.296875,22.078125 L7.296875,18.609375 L12.03125,18.609375 L12.03125,22.078125 Z M12.359375,19.6875 L12.359375,20.71875 L16.296875,20.71875 L16.296875,24.1875 L11.515625,24.1875 L11.515625,22.875 L11,22.875 L11,25.265625 L16.8125,25.265625 L16.8125,19.6875 L12.359375,19.6875 L12.359375,19.6875 Z" fill="#FFFFFF"></path>
            <path d="M28.25,9.5625 L28.25,10.03125 L22.25,10.03125 C22.25,10.03125 19.25,9.421875 19.34375,6.890625 C19.34375,6.890625 19.4375,9.5625 22.15625,9.5625 L28.25,9.5625 Z" fill="#F6AD34"></path>
            <path d="M19.390625,0 L19.390625,6.84375 C19.390625,7.59375 19.90625,9.5625 22.25,9.5625 L28.25,9.5625 L19.390625,0 Z" fill="#FFFFFF" opacity="0.5"></path>
        </g>
    </g>
</svg>