<?xml version="1.0" encoding="UTF-8"?>
<svg width="30px" height="30px" viewBox="0 0 30 30" version="1.1" xmlns="http://www.w3.org/2000/svg" xmlns:xlink="http://www.w3.org/1999/xlink">
    <!-- Generator: Sketch 57.1 (83088) - https://sketch.com -->
    <title>icon/文件格式/gsheet</title>
    <desc>Created with Sketch.</desc>
    <g id="icon/文件格式/gsheet" stroke="none" stroke-width="1" fill="none" fill-rule="evenodd">
        <g transform="translate(2.000000, 0.000000)">
            <path d="M2.390625,1.66533454e-15 C1.078125,1.66533454e-15 0.046875,1.078125 0.046875,2.390625 L0.046875,27.609375 C0.046875,28.921875 1.078125,30 2.390625,30 L23.859375,30 C25.171875,30 26.25,28.921875 26.25,27.609375 L26.25,9.515625 L17.390625,0 L2.390625,0 L2.390625,1.66533454e-15 Z" id="Shape" fill="#20A971"></path>
            <g id="Group" transform="translate(4.000000, 18.000000)" fill="#FFFFFF" fill-rule="nonzero">
                <polygon id="Shape" points="3.07371429 3.48857143 4.53485714 6.28571429 3.44914286 6.28571429 2.53485714 4.11371429 2.45657143 4.11371429 1.472 6.28571429 0.386285714 6.28571429 1.84742857 3.48857143 0.292571429 0.527428571 1.36285714 0.527428571 2.37828571 2.87142857 2.45657143 2.87142857 3.55828571 0.527428571 4.62857143 0.527428571"></polygon>
                <polygon id="Shape" points="6.87828571 0.528 6.87828571 5.57485714 9.52685714 5.57485714 9.52685714 6.28571429 5.92514286 6.28571429 5.92514286 0.528"></polygon>
                <path d="M13.7377143,4.70742857 C13.7377143,4.91542857 13.6948571,5.11771429 13.6085714,5.31314286 C13.5222857,5.50857143 13.4017143,5.68 13.2457143,5.82857143 C13.0897143,5.97714286 12.8965714,6.09542857 12.6674286,6.184 C12.4382857,6.27257143 12.1777143,6.31657143 11.8862857,6.31657143 C11.7611429,6.31657143 11.6325714,6.30971429 11.4994286,6.29714286 C11.3662857,6.28457143 11.2325714,6.26171429 11.0971429,6.23085714 C10.9617143,6.19942857 10.8325714,6.15657143 10.7102857,6.10171429 C10.588,6.04685714 10.4822857,5.98057143 10.3937143,5.90228571 L10.5577143,5.23028571 C10.6302857,5.272 10.7228571,5.31257143 10.8348571,5.35142857 C10.9468571,5.39028571 11.0622857,5.42685714 11.1822857,5.46057143 C11.3017143,5.49485714 11.4217143,5.52171429 11.5417143,5.54285714 C11.6611429,5.56342857 11.7731429,5.57428571 11.8777143,5.57428571 C12.1954286,5.57428571 12.4388571,5.5 12.608,5.35142857 C12.7771429,5.20285714 12.8617143,4.98285714 12.8617143,4.69142857 C12.8617143,4.51428571 12.8017143,4.36342857 12.6822857,4.23828571 C12.5622857,4.11314286 12.4125714,4 12.2331429,3.89828571 C12.0537143,3.79657143 11.8594286,3.69542857 11.6508571,3.59371429 C11.4422857,3.492 11.2468571,3.372 11.0651429,3.23428571 C10.8828571,3.09657143 10.732,2.93371429 10.612,2.74628571 C10.492,2.55885714 10.4325714,2.32457143 10.4325714,2.04342857 C10.4325714,1.78857143 10.4794286,1.56171429 10.5731429,1.364 C10.6668571,1.16628571 10.7931429,0.997714286 10.952,0.86 C11.1108571,0.722285714 11.296,0.616571429 11.5068571,0.543428571 C11.7177143,0.470285714 11.9405714,0.434285714 12.1748571,0.434285714 C12.4142857,0.434285714 12.6565714,0.456571429 12.9011429,0.500571429 C13.1457143,0.544571429 13.3434286,0.616571429 13.4948571,0.715428571 C13.4634286,0.782857143 13.4268571,0.857142857 13.3857143,0.938285714 C13.344,1.01942857 13.3045714,1.09428571 13.2685714,1.16457143 C13.232,1.23485714 13.2005714,1.29371429 13.1748571,1.34057143 C13.1485714,1.38742857 13.1331429,1.41371429 13.128,1.41885714 C13.0965714,1.40342857 13.0617143,1.38285714 13.0222857,1.35657143 C12.9828571,1.33028571 12.9268571,1.30457143 12.8542857,1.27828571 C12.7811429,1.252 12.6851429,1.23428571 12.5651429,1.22342857 C12.4451429,1.21257143 12.2914286,1.21542857 12.104,1.23142857 C11.9994286,1.24228571 11.9011429,1.27142857 11.8068571,1.32114286 C11.7125714,1.37085714 11.6297143,1.43142857 11.5565714,1.50457143 C11.4834286,1.57771429 11.4262857,1.65942857 11.3845714,1.75085714 C11.3428571,1.84171429 11.3222857,1.92971429 11.3222857,2.01257143 C11.3222857,2.22057143 11.3817143,2.38857143 11.5017143,2.51657143 C11.6211429,2.64457143 11.7697143,2.756 11.9468571,2.85257143 C12.124,2.94914286 12.3165714,3.04285714 12.5251429,3.13371429 C12.7331429,3.22457143 12.9274286,3.336 13.1074286,3.46571429 C13.2874286,3.59542857 13.4365714,3.75885714 13.5565714,3.95371429 C13.6777143,4.14914286 13.7377143,4.4 13.7377143,4.70742857 Z" id="Shape"></path>
            </g>
            <path d="M26.25,9.515625 L26.25,9.984375 L20.25,9.984375 C20.25,9.984375 17.296875,9.421875 17.390625,6.84375 C17.390625,6.84375 17.484375,9.515625 20.203125,9.515625 L26.25,9.515625 Z" id="Shape" fill="#189355"></path>
            <path d="M17.390625,0 L17.390625,6.796875 C17.390625,7.59375 17.90625,9.515625 20.25,9.515625 L26.25,9.515625 L17.390625,0 Z" id="Shape" fill="#FFFFFF" opacity="0.5"></path>
        </g>
    </g>
</svg>