<?xml version="1.0" encoding="UTF-8"?>
<svg width="30px" height="30px" viewBox="0 0 30 30" version="1.1" xmlns="http://www.w3.org/2000/svg" xmlns:xlink="http://www.w3.org/1999/xlink">
    <!-- Generator: Sketch 57.1 (83088) - https://sketch.com -->
    <title>icon/文件格式/html</title>
    <desc>Created with Sketch.</desc>
    <g id="icon/文件格式/html" stroke="none" stroke-width="1" fill="none" fill-rule="evenodd">
        <g transform="translate(2.000000, 0.000000)" id="Shape">
            <path d="M2.390625,1.66533454e-15 C1.078125,1.66533454e-15 0.046875,1.078125 0.046875,2.390625 L0.046875,27.609375 C0.046875,28.921875 1.078125,30 2.390625,30 L23.859375,30 C25.171875,30 26.25,28.921875 26.25,27.609375 L26.25,9.515625 L17.390625,0 L2.390625,0 L2.390625,1.66533454e-15 Z" fill="#F7622C"></path>
            <path d="M26.25,9.5625 L26.25,10.03125 L20.25,10.03125 C20.25,10.03125 17.296875,9.421875 17.34375,6.84375 C17.34375,6.84375 17.484375,9.5625 20.203125,9.5625 L26.25,9.5625 Z" fill="#F54921"></path>
            <path d="M17.390625,0 L17.390625,6.84375 C17.390625,7.59375 17.90625,9.5625 20.25,9.5625 L26.25,9.5625 L17.390625,0 Z" fill="#FFFFFF" opacity="0.5"></path>
            <path d="M8.859375,23.8125 L8.71875,23.8125 L5.15625,22.21875 C4.921875,22.125 4.78125,21.890625 4.78125,21.609375 C4.78125,21.375 4.921875,21.140625 5.15625,21.046875 L8.71875,19.453125 C8.765625,19.453125 8.8125,19.40625 8.859375,19.40625 C9.09375,19.40625 9.28125,19.59375 9.28125,19.828125 C9.28125,20.015625 9.1875,20.15625 9.046875,20.25 L5.765625,21.65625 L9.046875,23.015625 C9.1875,23.109375 9.28125,23.25 9.28125,23.4375 C9.28125,23.671875 9.09375,23.8125 8.859375,23.8125 L8.859375,23.8125 Z M12.84375,18.65625 L10.78125,24.890625 C10.6875,25.078125 10.546875,25.171875 10.359375,25.171875 C10.078125,25.171875 9.890625,24.984375 9.890625,24.75 C9.890625,24.703125 9.9375,24.65625 9.9375,24.609375 L12,18.421875 C12.09375,18.234375 12.234375,18.09375 12.421875,18.09375 C12.703125,18.09375 12.84375,18.28125 12.84375,18.515625 L12.84375,18.65625 L12.84375,18.65625 Z M17.625,22.21875 L14.0625,23.8125 L13.921875,23.8125 C13.6875,23.8125 13.5,23.671875 13.5,23.4375 C13.5,23.25 13.59375,23.109375 13.734375,23.015625 L17.0625,21.65625 L13.734375,20.25 C13.59375,20.15625 13.5,20.015625 13.5,19.828125 C13.5,19.59375 13.6875,19.40625 13.921875,19.40625 C13.96875,19.40625 14.015625,19.453125 14.0625,19.453125 L17.625,21.046875 C17.859375,21.140625 18,21.375 18,21.609375 C18,21.890625 17.859375,22.125 17.625,22.21875 L17.625,22.21875 Z" fill="#FFFFFF"></path>
        </g>
    </g>
</svg>