<?xml version="1.0" encoding="UTF-8"?>
<svg width="30px" height="30px" viewBox="0 0 30 30" version="1.1" xmlns="http://www.w3.org/2000/svg" xmlns:xlink="http://www.w3.org/1999/xlink">
    <!-- Generator: Sketch 57.1 (83088) - https://sketch.com -->
    <title>icon/文件格式/image</title>
    <desc>Created with Sketch.</desc>
    <g id="icon/文件格式/image" stroke="none" stroke-width="1" fill="none" fill-rule="evenodd">
        <g transform="translate(2.000000, 0.000000)" id="Shape">
            <path d="M2.390625,0 C1.078125,0 0.046875,1.078125 0.046875,2.390625 L0.046875,27.65625 C0.046875,28.96875 1.078125,30 2.390625,30 L23.859375,30 C25.171875,30 26.25,28.96875 26.25,27.65625 L26.25,9.5625 L17.390625,0 L2.390625,0 L2.390625,0 Z" fill="#49C9A7"></path>
            <path d="M26.25,9.5625 L26.25,10.03125 L20.25,10.03125 C20.25,10.03125 17.296875,9.421875 17.34375,6.84375 C17.34375,6.84375 17.484375,9.5625 20.203125,9.5625 L26.25,9.5625 Z" fill="#37BB91"></path>
            <path d="M17.390625,0 L17.390625,6.84375 C17.390625,7.59375 17.90625,9.5625 20.25,9.5625 L26.25,9.5625 L17.390625,0 Z" fill="#FFFFFF" opacity="0.5"></path>
            <path d="M5,26 L5,14 L17,14 L17,26 L5,26 L5,26 Z M15.6666667,15.3333333 L6.33333333,15.3333333 L6.33333333,22.6666667 L15.6666667,22.6666667 L15.6666667,15.3333333 Z M10.1348601,20.2374429 L12.3180662,17.3333333 L13.0458015,18.4840183 L13.7735369,18.2648402 L14.3333333,21.3333333 L7,21.3333333 L8.95928753,19.5251142 L10.1348601,20.2374429 L10.1348601,20.2374429 Z M8.03030303,18 C7.48484848,18 7,17.6 7,17 C7,16.4666667 7.48484848,16 8.03030303,16 C8.57575758,16 9,16.4666667 9,17 C9,17.6 8.57575758,18 8.03030303,18 L8.03030303,18 Z" fill="#FFFFFF"></path>
        </g>
    </g>
</svg>