<?xml version="1.0" encoding="UTF-8"?>
<svg width="30px" height="30px" viewBox="0 0 30 30" version="1.1" xmlns="http://www.w3.org/2000/svg" xmlns:xlink="http://www.w3.org/1999/xlink">
    <!-- Generator: Sketch 57.1 (83088) - https://sketch.com -->
    <title>icon/文件格式/pack</title>
    <desc>Created with Sketch.</desc>
    <g id="icon/文件格式/pack" stroke="none" stroke-width="1" fill="none" fill-rule="evenodd">
        <g id="Shape">
            <path d="M4.4375,1.66533454e-15 C3.125,1.66533454e-15 2.046875,1.078125 2.046875,2.390625 L2.046875,27.609375 C2.046875,28.921875 3.125,30 4.4375,30 L25.859375,30 C27.171875,30 28.25,28.921875 28.25,27.609375 L28.25,9.515625 L19.390625,0 L4.4375,0 L4.4375,1.66533454e-15 Z" fill="#4E74B7"></path>
            <path d="M28.25,9.5625 L28.25,10.03125 L22.25,10.03125 C22.25,10.03125 19.296875,9.421875 19.34375,6.84375 C19.34375,6.84375 19.484375,9.5625 22.203125,9.5625 L28.25,9.5625 Z" fill="#3A57A5"></path>
            <path d="M19.390625,0 L19.390625,6.84375 C19.390625,7.59375 19.90625,9.5625 22.25,9.5625 L28.25,9.5625 L19.390625,0 Z" fill="#FFFFFF" opacity="0.5"></path>
            <path d="M15.6875,19.171875 L15.6875,24.75 C15.6875,25.03125 15.453125,25.3125 15.125,25.3125 L7.296875,25.3125 C7.015625,25.3125 6.734375,25.03125 6.734375,24.75 L6.734375,19.171875 C6.734375,19.078125 6.734375,19.03125 6.78125,18.984375 L7.53125,16.734375 C7.578125,16.5 7.8125,16.359375 8.046875,16.359375 L14.375,16.359375 C14.609375,16.359375 14.84375,16.5 14.890625,16.734375 L15.640625,18.984375 C15.6875,19.03125 15.6875,19.078125 15.6875,19.171875 L15.6875,19.171875 Z M14.515625,19.171875 L13.953125,17.484375 L8.46875,17.484375 L7.90625,19.171875 L14.515625,19.171875 L14.515625,19.171875 Z" fill="#FFFFFF"></path>
        </g>
    </g>
</svg>