<?xml version="1.0" encoding="UTF-8"?>
<svg width="30px" height="30px" viewBox="0 0 30 30" version="1.1" xmlns="http://www.w3.org/2000/svg" xmlns:xlink="http://www.w3.org/1999/xlink">
    <!-- Generator: Sketch 57.1 (83088) - https://sketch.com -->
    <title>icon/文件格式/ppt</title>
    <desc>Created with Sketch.</desc>
    <g id="icon/文件格式/ppt" stroke="none" stroke-width="1" fill="none" fill-rule="evenodd">
        <g transform="translate(2.000000, 0.000000)">
            <path d="M2.390625,1.66533454e-15 C1.078125,1.66533454e-15 0,1.078125 0,2.390625 L0,27.609375 C0,28.921875 1.078125,30 2.390625,30 L23.859375,30 C25.171875,30 26.25,28.921875 26.25,27.609375 L26.25,9.515625 L17.390625,0 L2.390625,0 L2.390625,1.66533454e-15 Z" id="Shape" fill="#E34221"></path>
            <path d="M5,25 L5,15.284 L7.702,15.284 C10.446,15.284 11.258,16.236 11.258,18.392 C11.258,20.674 10.222,21.556 7.702,21.556 L6.26,21.556 L6.26,25 L5,25 Z M6.26,20.506 L7.59,20.506 C9.396,20.506 9.97,20.03 9.97,18.392 C9.97,16.908 9.396,16.376 7.59,16.376 L6.26,16.376 L6.26,20.506 Z" id="P" fill="#FFFFFF" fill-rule="nonzero"></path>
            <path d="M26.25,9.5625 L26.25,10.03125 L20.25,10.03125 C20.25,10.03125 17.296875,9.421875 17.34375,6.84375 C17.34375,6.84375 17.484375,9.5625 20.203125,9.5625 L26.25,9.5625 Z" id="Shape" fill="#DC3119"></path>
            <path d="M17.390625,0 L17.390625,6.84375 C17.390625,7.59375 17.90625,9.5625 20.25,9.5625 L26.25,9.5625 L17.390625,0 Z" id="Shape" fill="#FFFFFF" opacity="0.5"></path>
        </g>
    </g>
</svg>