<?xml version="1.0" encoding="UTF-8"?>
<svg width="30px" height="30px" viewBox="0 0 30 30" version="1.1" xmlns="http://www.w3.org/2000/svg" xmlns:xlink="http://www.w3.org/1999/xlink">
    <!-- Generator: Sketch 57.1 (83088) - https://sketch.com -->
    <title>icon/文件格式/stypi</title>
    <desc>Created with Sketch.</desc>
    <g id="icon/文件格式/stypi" stroke="none" stroke-width="1" fill="none" fill-rule="evenodd">
        <g id="Shape">
            <path d="M4.390625,1.66533454e-15 C3.078125,1.66533454e-15 2,1.078125 2,2.390625 L2,27.609375 C2,28.921875 3.078125,30 4.390625,30 L25.8125,30 C27.125,30 28.203125,28.921875 28.203125,27.609375 L28.203125,9.515625 L19.34375,0 L4.390625,0 L4.390625,1.66533454e-15 Z" fill="#DDD965"></path>
            <path d="M28.25,9.5625 L28.25,10.03125 L22.25,10.03125 C22.25,10.03125 19.296875,9.421875 19.34375,6.84375 C19.34375,6.84375 19.484375,9.5625 22.203125,9.5625 L28.25,9.5625 Z" fill="#C1BC45"></path>
            <path d="M19.390625,0 L19.390625,6.84375 C19.390625,7.59375 19.90625,9.5625 22.25,9.5625 L28.25,9.5625 L19.390625,0 Z" fill="#FFFFFF" opacity="0.5"></path>
            <path d="M15.78125,16.3125 L7.53125,16.3125 C7.109375,16.3125 6.78125,16.640625 6.78125,17.0625 L6.78125,24.5625 C6.78125,24.9375 7.109375,25.265625 7.53125,25.265625 L13.671875,25.265625 L16.53125,22.453125 L16.53125,17.0625 C16.53125,16.640625 16.203125,16.3125 15.78125,16.3125 Z" fill="#FFFFFF"></path>
            <path d="M8.421875,20.4375 L14.84375,20.4375 L14.84375,21.1875 L8.421875,21.1875 L8.421875,20.4375 Z M8.421875,18.75 L14.84375,18.75 L14.84375,19.5 L8.421875,19.5 L8.421875,18.75 Z M8.421875,22.078125 L12.59375,22.078125 L12.59375,22.875 L8.421875,22.875 L8.421875,22.078125 Z" fill="#DBD75D"></path>
        </g>
    </g>
</svg>