<?xml version="1.0" encoding="UTF-8"?>
<svg width="30px" height="30px" viewBox="0 0 30 30" version="1.1" xmlns="http://www.w3.org/2000/svg" xmlns:xlink="http://www.w3.org/1999/xlink">
    <!-- Generator: Sketch 57.1 (83088) - https://sketch.com -->
    <title>icon/文件格式/visio</title>
    <desc>Created with Sketch.</desc>
    <g id="icon/文件格式/visio" stroke="none" stroke-width="1" fill="none" fill-rule="evenodd">
        <g transform="translate(2.000000, 0.000000)" id="Shape">
            <path d="M2.390625,1.66533454e-15 C1.078125,1.66533454e-15 0,1.078125 0,2.390625 L0,27.609375 C0,28.921875 1.078125,30 2.390625,30 L23.859375,30 C25.171875,30 26.25,28.921875 26.25,27.609375 L26.25,9.515625 L17.390625,0 L2.390625,0 L2.390625,1.66533454e-15 Z" fill="#496AB3"></path>
            <path d="M26.25,9.5625 L26.25,10.03125 L20.25,10.03125 C20.25,10.03125 17.296875,9.421875 17.34375,6.84375 C17.34375,6.84375 17.484375,9.5625 20.203125,9.5625 L26.25,9.5625 Z" fill="#374FA0"></path>
            <path d="M17.390625,0 L17.390625,6.84375 C17.390625,7.59375 17.90625,9.5625 20.25,9.5625 L26.25,9.5625 L17.390625,0 Z" fill="#FFFFFF" opacity="0.5"></path>
            <path d="M9.796875,20.015625 L7.875,24.84375 C7.78125,25.078125 7.546875,25.21875 7.3125,25.21875 L7.265625,25.21875 C7.03125,25.21875 6.796875,25.078125 6.703125,24.84375 L4.78125,20.015625 C4.734375,19.96875 4.734375,19.921875 4.734375,19.875 C4.734375,19.6875 4.921875,19.5 5.109375,19.5 C5.25,19.5 5.390625,19.59375 5.484375,19.734375 L7.3125,24.421875 L9.09375,19.734375 C9.140625,19.59375 9.28125,19.5 9.46875,19.5 C9.65625,19.5 9.84375,19.6875 9.84375,19.875 C9.84375,19.921875 9.796875,19.96875 9.796875,20.015625 L9.796875,20.015625 Z M11.296875,25.21875 C11.0625,25.21875 10.921875,25.078125 10.921875,24.890625 L10.921875,19.828125 C10.921875,19.640625 11.0625,19.5 11.296875,19.5 C11.484375,19.5 11.625,19.640625 11.625,19.828125 L11.625,24.890625 C11.625,25.078125 11.484375,25.21875 11.296875,25.21875 L11.296875,25.21875 Z M15,25.265625 C14.15625,25.265625 13.5,24.984375 13.03125,24.5625 C12.9375,24.515625 12.890625,24.421875 12.890625,24.328125 C12.890625,24.140625 13.03125,23.953125 13.21875,23.953125 C13.3125,23.953125 13.359375,24 13.40625,24.046875 C13.828125,24.375 14.34375,24.65625 15,24.65625 C16.03125,24.65625 16.3125,24.140625 16.3125,23.671875 C16.3125,22.21875 12.984375,23.015625 12.984375,21.046875 C12.984375,20.109375 13.828125,19.453125 14.953125,19.453125 C15.65625,19.453125 16.265625,19.6875 16.734375,20.0625 C16.828125,20.15625 16.875,20.25 16.875,20.34375 C16.875,20.484375 16.734375,20.671875 16.546875,20.671875 C16.453125,20.671875 16.40625,20.625 16.3125,20.578125 C15.890625,20.25 15.375,20.109375 14.859375,20.109375 C14.203125,20.109375 13.734375,20.4375 13.734375,21 C13.734375,22.265625 17.0625,21.515625 17.0625,23.625 C17.0625,24.46875 16.5,25.265625 15,25.265625 L15,25.265625 Z" fill="#FFFFFF"></path>
        </g>
    </g>
</svg>