<?xml version="1.0" encoding="UTF-8"?>
<svg width="30px" height="30px" viewBox="0 0 30 30" version="1.1" xmlns="http://www.w3.org/2000/svg" xmlns:xlink="http://www.w3.org/1999/xlink">
    <!-- Generator: Sketch 57.1 (83088) - https://sketch.com -->
    <title>icon/文件格式/word</title>
    <desc>Created with Sketch.</desc>
    <g id="icon/文件格式/word" stroke="none" stroke-width="1" fill="none" fill-rule="evenodd">
        <g transform="translate(2.000000, 0.000000)" id="Shape">
            <path d="M2.390625,1.66533454e-15 C1.078125,1.66533454e-15 0,1.03125 0,2.34375 L0,27.609375 C0,28.921875 1.078125,30 2.390625,30 L23.859375,30 C25.171875,30 26.25,28.921875 26.25,27.609375 L26.25,9.515625 L17.390625,0 L2.390625,0 L2.390625,1.66533454e-15 Z" fill="#14A9DA"></path>
            <path d="M26.25,9.5625 L26.25,10.03125 L20.25,10.03125 C20.25,10.03125 17.296875,9.421875 17.34375,6.84375 C17.34375,6.84375 17.484375,9.5625 20.203125,9.5625 L26.25,9.5625 Z" fill="#0F93D0"></path>
            <path d="M17.390625,0 L17.390625,6.84375 C17.390625,7.59375 17.90625,9.5625 20.25,9.5625 L26.25,9.5625 L17.390625,0 Z" fill="#FFFFFF" opacity="0.5"></path>
        </g>
        <path d="M8.08659997,23.9388912 L6,15 L6,15 L7.316,15 L9.136,23.246 L9.22,23.246 L10.9918092,16.8624606 C11.1112981,16.4319616 11.503226,16.134 11.95,16.134 C12.396774,16.134 12.7887019,16.4319616 12.9081908,16.8624606 L14.68,23.246 L14.68,23.246 L14.764,23.246 L16.57,15 L17.844,15 L15.7185811,23.9396407 C15.6103769,24.3947543 15.2037997,24.716 14.736,24.716 C14.2647062,24.716 13.8515712,24.4009334 13.7268924,23.9464303 L11.964,17.52 L11.964,17.52 L11.88,17.52 L10.0792756,23.9475858 C9.95198918,24.4019275 9.53783496,24.716 9.066,24.716 C8.59862525,24.716 8.19284282,24.3940303 8.08659997,23.9388912 Z" id="W" fill="#FFFFFF" fill-rule="nonzero"></path>
    </g>
</svg>