<?xml version="1.0" encoding="UTF-8"?>
<svg width="30px" height="30px" viewBox="0 0 30 30" version="1.1" xmlns="http://www.w3.org/2000/svg" xmlns:xlink="http://www.w3.org/1999/xlink">
    <!-- Generator: Sketch 57.1 (83088) - https://sketch.com -->
    <title>icon/文件格式/xml</title>
    <desc>Created with Sketch.</desc>
    <g id="icon/文件格式/xml" stroke="none" stroke-width="1" fill="none" fill-rule="evenodd">
        <g transform="translate(2.000000, 0.000000)" id="Shape">
            <path d="M2.390625,1.66533454e-15 C1.078125,1.66533454e-15 0,1.03125 0,2.34375 L0,27.609375 C0,28.921875 1.078125,30 2.390625,30 L23.859375,30 C25.171875,30 26.25,28.921875 26.25,27.609375 L26.25,9.515625 L17.390625,0 L2.390625,0 L2.390625,1.66533454e-15 Z" fill="#FC7B24"></path>
            <path d="M26.25,9.5625 L26.25,10.03125 L20.25,10.03125 C20.25,10.03125 17.296875,9.421875 17.34375,6.84375 C17.34375,6.84375 17.484375,9.5625 20.203125,9.5625 L26.25,9.5625 Z" fill="#FB5C1B"></path>
            <path d="M17.390625,0 L17.390625,6.84375 C17.390625,7.59375 17.90625,9.5625 20.25,9.5625 L26.25,9.5625 L17.390625,0 Z" fill="#FFFFFF" opacity="0.5"></path>
            <path d="M9.09375,25.21875 C9,25.21875 8.90625,25.21875 8.8125,25.125 L7.078125,22.78125 L5.34375,25.125 C5.25,25.21875 5.15625,25.21875 5.0625,25.21875 C4.875,25.21875 4.734375,25.078125 4.734375,24.890625 C4.734375,24.84375 4.734375,24.75 4.78125,24.703125 L6.609375,22.3125 L4.921875,20.015625 C4.875,19.96875 4.875,19.921875 4.875,19.828125 C4.875,19.6875 5.015625,19.5 5.203125,19.5 C5.296875,19.5 5.390625,19.546875 5.484375,19.640625 L7.078125,21.796875 L8.671875,19.640625 C8.765625,19.546875 8.859375,19.5 8.953125,19.5 C9.140625,19.5 9.28125,19.640625 9.28125,19.828125 C9.28125,19.921875 9.28125,19.96875 9.234375,20.015625 L7.546875,22.265625 L9.375,24.703125 C9.421875,24.75 9.421875,24.84375 9.421875,24.890625 C9.421875,25.078125 9.28125,25.21875 9.09375,25.21875 Z M15.84375,25.21875 C15.65625,25.21875 15.515625,25.078125 15.515625,24.890625 L15.515625,20.53125 L13.640625,25.125 C13.59375,25.171875 13.546875,25.21875 13.453125,25.21875 C13.359375,25.21875 13.3125,25.171875 13.265625,25.125 L11.390625,20.53125 L11.390625,24.890625 C11.390625,25.078125 11.25,25.21875 11.0625,25.21875 C10.828125,25.21875 10.6875,25.078125 10.6875,24.890625 L10.6875,20.0625 C10.6875,19.78125 10.96875,19.5 11.296875,19.5 C11.53125,19.5 11.765625,19.640625 11.859375,19.875 L13.453125,23.8125 L15.046875,19.875 C15.140625,19.640625 15.375,19.5 15.609375,19.5 C15.9375,19.5 16.21875,19.78125 16.21875,20.0625 L16.21875,24.890625 C16.21875,25.078125 16.078125,25.21875 15.84375,25.21875 Z M20.8125,25.171875 L18.234375,25.171875 C17.953125,25.171875 17.71875,24.9375 17.71875,24.65625 L17.71875,19.828125 C17.71875,19.640625 17.90625,19.5 18.09375,19.5 C18.28125,19.5 18.421875,19.640625 18.421875,19.828125 L18.421875,24.5625 L20.8125,24.5625 C20.953125,24.5625 21.09375,24.703125 21.09375,24.84375 C21.09375,25.03125 20.953125,25.171875 20.8125,25.171875 L20.8125,25.171875 Z" fill="#FFFFFF"></path>
        </g>
    </g>
</svg>